<?xml version="1.0" encoding="utf-8"?>
<!-- Generator: Adobe Illustrator 24.0.0, SVG Export Plug-In . SVG Version: 6.00 Build 0)  -->
<svg version="1.1" id="pyramid-toy" xmlns="http://www.w3.org/2000/svg" xmlns:xlink="http://www.w3.org/1999/xlink" x="0px"
	 y="0px" viewBox="0 0 232 317" style="enable-background:new 0 0 232 317;" xml:space="preserve">
<style type="text/css">
	.st0{fill:#A855FF;}
	.st1{fill:#9352E8;}
	.st2{fill:#138EE2;}
	.st3{fill:#1288C9;}
	.st4{fill:#2CD4E5;}
	.st5{fill:#29C6CE;}
	.st6{fill:#68D844;}
	.st7{fill:#5ECC36;}
	.st8{fill:#FFE600;}
	.st9{fill:#FFCE00;}
	.st10{fill:#FF8B00;}
	.st11{fill:#FF6D00;}
	.st12{fill:#FF0000;}
	.st13{fill:#EA0000;}
	.st14{fill:#FFFFFF;}
</style>
<path id="violet" class="st0" d="M211,276c11.1,0,20,9,20,20c0,5.5-2.2,10.5-5.9,14.1s-8.6,5.9-14.1,5.9H21c-11,0-20-8.9-20-20
	c0-5.5,2.2-10.5,5.9-14.1S15.5,276,21,276h11.5h167H211z"/>
<path id="violet-shadow" class="st1" d="M1,296L1,296c0-11,9-20,20-20h17.1c-12.6,6.1-21.2,19.1-21.2,34c0,1.9,0.1,3.8,0.4,5.7
	C8,313.9,1,305.8,1,296z M214.7,276.4c0.3,1.8,0.4,3.7,0.4,5.7c0,14.9-8.7,27.8-21.2,34H211c11,0,20-9,20-20v0
	C231,286.2,224,278.1,214.7,276.4z"/>
<path id="blue" class="st2" d="M199.5,236c11.1,0,20,8.9,20,20c0,5.5-2.2,10.5-5.9,14.1s-8.6,5.9-14.1,5.9h-167c-11,0-20-8.9-20-20
	c0-5.5,2.2-10.5,5.9-14.1c3.6-3.6,8.6-5.9,14.1-5.9H44h144H199.5z"/>
<path id="blue-shadow" class="st3" d="M12.5,256L12.5,256c0-11,9-20,20-20h17.1c-12.6,6.1-21.2,19.1-21.2,34c0,1.9,0.1,3.8,0.4,5.7
	C19.5,273.9,12.5,265.8,12.5,256z M203.2,236.4c0.3,1.8,0.4,3.7,0.4,5.7c0,14.9-8.7,27.8-21.2,34h17.1c11,0,20-9,20-20v0
	C219.5,246.2,212.5,238.1,203.2,236.4z"/>
<path id="sky" class="st4" d="M188,196c11.1,0,20,8.9,20,20c0,5.5-2.2,10.5-5.9,14.1c-3.6,3.6-8.6,5.9-14.1,5.9H44c-11,0-20-9-20-20
	c0-5.5,2.2-10.5,5.9-14.1c3.6-3.6,8.6-5.9,14.1-5.9h11.5h121H188z"/>
<path id="sky-shadow" class="st5" d="M24,216L24,216c0-11,9-20,20-20h17.1c-12.6,6.1-21.2,19.1-21.2,34c0,1.9,0.1,3.8,0.4,5.7
	C31,233.9,24,225.8,24,216z M191.7,196.4c0.3,1.8,0.4,3.7,0.4,5.7c0,14.9-8.7,27.8-21.2,34H188c11,0,20-9,20-20v0
	C208,206.2,201,198.1,191.7,196.4z"/>
<path id="green" class="st6" d="M176.5,156c11.1,0,20,8.9,20,20c0,5.5-2.2,10.5-5.9,14.1c-3.6,3.6-8.6,5.9-14.1,5.9h-121
	c-11,0-20-9-20-20c0-5.5,2.2-10.5,5.9-14.1c3.6-3.6,8.6-5.9,14.1-5.9h17.3h86.5H176.5z"/>
<path id="green-shadow" class="st7" d="M35.5,176L35.5,176c0-11,9-20,20-20h17.1c-12.6,6.1-21.2,19.1-21.2,34c0,1.9,0.1,3.8,0.4,5.7
	C42.5,193.9,35.5,185.8,35.5,176z M180.2,156.4c0.3,1.8,0.4,3.7,0.4,5.7c0,14.9-8.7,27.8-21.2,34h17.1c11,0,20-9,20-20v0
	C196.5,166.2,189.5,158.1,180.2,156.4z"/>
<path id="yellow" class="st8" d="M159.2,116c11.1,0,20,9,20,20c0,5.5-2.2,10.5-5.9,14.1c-3.6,3.6-8.6,5.9-14.1,5.9H72.7
	c-11,0-20-9-20-20c0-5.5,2.2-10.5,5.9-14.1s8.6-5.9,14.1-5.9h11.5h63.5H159.2z"/>
<path id="yellow-shadow" class="st9" d="M52.7,136.4L52.7,136.4c0-11,9-20,20-20h17.1c-12.6,6.1-21.2,19.1-21.2,34
	c0,1.9,0.1,3.8,0.4,5.7C59.8,154.3,52.7,146.1,52.7,136.4z M162.9,116.4c0.3,1.8,0.4,3.7,0.4,5.7c0,14.9-8.7,27.8-21.2,34h17.1
	c11,0,20-9,20-20v0C179.2,126.2,172.2,118.1,162.9,116.4z"/>
<path id="orange" class="st10" d="M147.7,76c11.1,0,20,9,20,20c0,5.5-2.2,10.5-5.9,14.1c-3.6,3.6-8.6,5.9-14.1,5.9H84.2
	c-11,0-20-8.9-20-20c0-5.5,2.2-10.5,5.9-14.1S78.7,76,84.2,76H116H147.7z"/>
<path id="orange-shadow" class="st11" d="M167.7,96L167.7,96c0,11-9,20-20,20h-17.1c12.6-6.1,21.2-19.1,21.2-34
	c0-1.9-0.1-3.8-0.4-5.7C160.7,78.1,167.7,86.2,167.7,96z M80.6,115.6c-0.3-1.8-0.4-3.7-0.4-5.7c0-14.9,8.7-27.8,21.2-34H84.2
	c-11,0-20,9-20,20v0C64.2,105.8,71.3,113.9,80.6,115.6z"/>
<path id="red" class="st12" d="M116,1c15.2,0,27.5,27.8,27.5,48.5c0,23.4-12.3,26.5-27.5,26.5s-27.5-3.1-27.5-26.5
	C88.5,28.8,100.8,1,116,1z"/>
<path id="red-shadow" class="st13" d="M143.5,49c0,23.4-12.3,26.5-27.5,26.5c-7.3,0-13.9-0.7-18.9-4.1c22.7-3.5,40.2-23.2,40.2-46.9
	c0-1.4-0.1-2.7-0.2-4.1C141.1,29.3,143.5,39.9,143.5,49z"/>
<path id="light" class="st14" d="M115.5,30.5c-2.3,7.4-7.6,12.3-11.9,11c-4.3-1.3-5.9-8.4-3.7-15.8c2.3-7.4,7.6-12.3,11.9-11
	S117.8,23.1,115.5,30.5z M104.1,47.9c-2,0-3.6,1.6-3.6,3.6c0,2,1.6,3.6,3.6,3.6c2,0,3.6-1.6,3.6-3.6C107.7,49.6,106,47.9,104.1,47.9
	z M51.5,296L51.5,296c0-3.9-3.1-7-7-7H18.3c-3.9,0-7,3.1-7,7v0c0,3.9,3.1,7,7,7h26.2C48.4,303,51.5,299.9,51.5,296z M63.3,290.9
	c-2.8,0-5.1,2.3-5.1,5.1c0,2.8,2.3,5.1,5.1,5.1c2.8,0,5.1-2.3,5.1-5.1C68.3,293.2,66.1,290.9,63.3,290.9z M98.8,96L98.8,96
	c0-3.9-3.1-7-7-7H76.9c-3.9,0-7,3.1-7,7v0c0,3.9,3.1,7,7,7h14.9C95.7,103,98.8,99.9,98.8,96z M110,90.9c-2.8,0-5.1,2.3-5.1,5.1
	s2.3,5.1,5.1,5.1c2.8,0,5.1-2.3,5.1-5.1S112.8,90.9,110,90.9z M84.3,176L84.3,176c0-3.9-3.1-7-7-7H53.4c-3.9,0-7,3.1-7,7v0
	c0,3.9,3.1,7,7,7h23.9C81.2,183,84.3,179.9,84.3,176z M95.6,170.9c-2.8,0-5.1,2.3-5.1,5.1c0,2.8,2.3,5.1,5.1,5.1s5.1-2.3,5.1-5.1
	C100.7,173.2,98.4,170.9,95.6,170.9z M75,216L75,216c0-3.9-3.1-7-7-7H41.7c-3.9,0-7,3.1-7,7v0c0,3.9,3.1,7,7,7h26.2
	C71.8,223,75,219.9,75,216z M86.7,210.9c-2.8,0-5.1,2.3-5.1,5.1c0,2.8,2.3,5.1,5.1,5.1c2.8,0,5.1-2.3,5.1-5.1
	C91.8,213.2,89.5,210.9,86.7,210.9z M63.2,256L63.2,256c0-3.9-3.1-7-7-7H30c-3.9,0-7,3.1-7,7v0c0,3.9,3.1,7,7,7h26.2
	C60.1,263,63.2,259.9,63.2,256z M75,250.9c-2.8,0-5.1,2.3-5.1,5.1c0,2.8,2.3,5.1,5.1,5.1s5.1-2.3,5.1-5.1
	C80.1,253.2,77.8,250.9,75,250.9z M87.1,136L87.1,136c0-3.9-3.1-7-7-7H65.2c-3.9,0-7,3.1-7,7v0c0,3.9,3.1,7,7,7h14.9
	C83.9,143,87.1,139.9,87.1,136z M98.3,130.9c-2.8,0-5.1,2.3-5.1,5.1c0,2.8,2.3,5.1,5.1,5.1s5.1-2.3,5.1-5.1
	C103.4,133.2,101.1,130.9,98.3,130.9z"/>
<path id="circuit" d="M211,275h-2.6c2.2-1,4.2-2.4,5.9-4.2c4-4,6.2-9.2,6.2-14.8c0-11.6-9.4-21-21-21h-2.6c2.2-1,4.2-2.4,5.9-4.2
	c4-4,6.2-9.2,6.2-14.8c0-11.6-9.4-21-21-21h-2.6c2.2-1,4.2-2.4,5.9-4.2c4-4,6.2-9.2,6.2-14.8c0-11.6-9.4-21-21-21h-8.3
	c2.2-1,4.2-2.4,5.9-4.2c4-4,6.2-9.2,6.2-14.8c0-11.6-9.4-21-21-21h-2.6c2.2-1,4.2-2.4,5.9-4.2c4-4,6.2-9.2,6.2-14.8
	c0-11.6-9.4-21-21-21h-16.7c7.7-2.8,13.4-9.6,13.4-25.5c0-19.9-12-49.5-28.5-49.5S87.5,29.6,87.5,49.5c0,15.9,5.8,22.6,13.4,25.5
	H84.3c-5.6,0-10.9,2.2-14.8,6.2c-4,4-6.2,9.2-6.2,14.8c0,8.4,5,15.6,12.1,19h-2.6c-5.6,0-10.9,2.2-14.8,6.2c-4,4-6.2,9.2-6.2,14.8
	c0,8.4,5,15.6,12.1,19h-8.4c-5.6,0-10.9,2.2-14.8,6.2c-4,4-6.2,9.2-6.2,14.8c0,8.4,5,15.6,12.1,19H44c-5.6,0-10.9,2.2-14.8,6.2
	c-4,4-6.2,9.2-6.2,14.8c0,8.4,5,15.6,12.1,19h-2.6c-5.6,0-10.9,2.2-14.8,6.2c-4,4-6.2,9.2-6.2,14.8c0,8.4,5,15.6,12.1,19H21
	c-5.6,0-10.9,2.2-14.8,6.2c-4,4-6.2,9.2-6.2,14.8c0,11.6,9.4,21,21,21h190c5.6,0,10.9-2.2,14.8-6.2c4-4,6.2-9.2,6.2-14.8
	C232,284.4,222.6,275,211,275z M89.5,49.5C89.5,28.6,102,2,116,2s26.5,26.6,26.5,47.5c0,21.3-9.7,25.5-26.5,25.5
	S89.5,70.8,89.5,49.5z M65.3,96c0-5.1,2-9.8,5.6-13.4C74.4,79,79.2,77,84.3,77h63.5c10.5,0,19,8.5,19,19c0,5.1-2,9.8-5.6,13.4
	c-3.6,3.6-8.4,5.6-13.4,5.6H84.3C73.8,115,65.3,106.5,65.3,96z M53.8,136c0-5.1,2-9.8,5.6-13.4c3.6-3.6,8.4-5.6,13.4-5.6h86.5
	c10.5,0,19,8.5,19,19c0,5.1-2,9.8-5.6,13.4c-3.6,3.6-8.4,5.6-13.4,5.6H72.8C62.3,155,53.8,146.5,53.8,136z M36.5,176
	c0-5.1,2-9.8,5.6-13.4c3.6-3.6,8.4-5.6,13.4-5.6h121c10.5,0,19,8.5,19,19c0,5.1-2,9.8-5.6,13.4c-3.6,3.6-8.4,5.6-13.4,5.6h-121
	C45,195,36.5,186.5,36.5,176z M25,216c0-5.1,2-9.8,5.6-13.4c3.6-3.6,8.4-5.6,13.4-5.6h144c10.5,0,19,8.5,19,19c0,5.1-2,9.8-5.6,13.4
	c-3.6,3.6-8.4,5.6-13.4,5.6H44C33.5,235,25,226.5,25,216z M13.5,256c0-5.1,2-9.8,5.6-13.4c3.6-3.6,8.4-5.6,13.4-5.6h167
	c10.5,0,19,8.5,19,19c0,5.1-2,9.8-5.6,13.4c-3.6,3.6-8.4,5.6-13.4,5.6h-167C22,275,13.5,266.5,13.5,256z M224.4,309.4
	c-3.6,3.6-8.4,5.6-13.4,5.6H21c-10.5,0-19-8.5-19-19c0-5.1,2-9.8,5.6-13.4c3.6-3.6,8.4-5.6,13.4-5.6h190c10.5,0,19,8.5,19,19
	C230,301.1,228,305.8,224.4,309.4z"/>
</svg>
