<?xml version="1.0" encoding="utf-8"?>
<!-- Generator: Adobe Illustrator 24.0.0, SVG Export Plug-In . SVG Version: 6.00 Build 0)  -->
<svg version="1.1" id="car" xmlns="http://www.w3.org/2000/svg" xmlns:xlink="http://www.w3.org/1999/xlink" x="0px" y="0px"
	 viewBox="0 0 528 349.2" style="enable-background:new 0 0 528 349.2;" xml:space="preserve">
<style type="text/css">
	.st0{fill:#FF0000;}
	.st1_car{fill:#EA0000;}
	.st2_car{fill:#138EE2;}
	.st3_car{fill:#1288C9;}
	.st4_car{fill:#FFE600;}
	.st5_car{fill:#474747;}
	.st6_car{fill:#D3D3D3;}
	.st7_car{fill:#EAEAEA;}
	.st8_car{fill:#FF6C6C;}
	.st9_car{fill:#2CD4E5;}
	.st10_car{fill:#636363;}
	.st11_car{fill:#FFFFFF;}
</style>
<path class="st0" d="M37.6,163.5c8.3-16.4,24.4-28.3,43.7-30.8l55.9-7.2l0.7-5.1l7.1-54.9c1.6-14.1,7.3-27,15.7-37.3
	c0.2-0.2,0.3-0.4,0.5-0.6c1.3-1.7,2.8-3.3,4.3-4.8C178.7,9.3,197.2,1,217.4,1h153.1c22,0,42,9.8,55.4,25.5c9.2,10.7,15.3,24.1,17,39
	l2.8,21.4l5,38.6l39.1,8.9c11.1,2.5,19.2,11.9,20.4,23c-0.1,0-0.1,0-0.2,0c-4.7,0-6,7.5-6,16.8c0,9.3,1.3,16.8,6,16.8
	c0.1,0,0.2,0,0.4,0v29.7c-0.4,0-0.9-0.1-1.3-0.1H31.4v-12.8c12.5-2.5,30.4-11.8,30.4-23C61.8,175.4,49.1,167.3,37.6,163.5z"/>
<path class="st1_car" d="M510.2,160.2v113H31.4v-76.8c176.9,34.8,382.5,34.4,414.2-109.4l5,38.6l39.1,8.9
	C501.7,137.2,510.2,147.8,510.2,160.2z"/>
<path class="st2_car" d="M527,238.7v16.4c0,10-8.1,18.1-18.1,18.1H20.4c-10,0-18.1-8.1-18.1-18.1v-16.4c0-10,8.1-18.1,18.1-18.1h488.5
	C518.9,220.6,527,228.7,527,238.7z M61.8,184.8c0,13-24.5,23.6-36.2,23.6c-1.1,0-2.1-0.1-3.1-0.3c-1.1,1.1-2.4,1.6-4,1.6
	c-6.8,0-14.6-10.9-14.6-24.3c0-13.4,7.8-24.3,14.6-24.3c0.9,0,1.8,0.2,2.6,0.6c1.3-0.4,2.8-0.6,4.5-0.6
	C37.4,161.2,61.8,171.8,61.8,184.8z M509.9,157.4c-4.7,0-6,7.5-6,16.8c0,9.3,1.3,16.8,6,16.8c4.7,0,10.1-7.5,10.1-16.8
	C520,164.9,514.6,157.4,509.9,157.4z"/>
<path class="st3_car" d="M527,250.7v4.3c0,10-8.1,18.1-18.1,18.1H20.4c-10,0-18.1-8.1-18.1-18.1v-4.3H527z M25.2,197.7
	c-4.7,0-9.3-0.7-13.6-2c1.7,7.6,5.7,12.8,14,12.8c11.8,0,36.2-10.6,36.2-23.6c0-1.4-0.3-2.8-0.8-4.1
	C52.5,191.1,39.6,197.7,25.2,197.7z"/>
<path class="st4_car" d="M20.2,185.5c0,11.1-1.5,20-7.2,20s-12.1-9-12.1-20c0-11.1,6.4-20,12.1-20S20.2,174.4,20.2,185.5z M508.8,174.2
	c0,7.6,1.1,13.8,4.9,13.8c3.9,0,8.3-6.2,8.3-13.8c0-7.6-4.4-13.8-8.3-13.8C509.8,160.4,508.8,166.6,508.8,174.2z M498.4,205.1
	c0,7.2,9.7,7.2,11.7,7.2s6-3.2,6-7.2s-4-7.2-6-7.2S498.4,197.9,498.4,205.1z M414.5,142.9v-3.9c0-1.5-1.2-2.8-2.8-2.8h-27.5
	c-1.5,0-2.8,1.2-2.8,2.8v3.9c0,1.5,1.2,2.8,2.8,2.8h27.5C413.3,145.6,414.5,144.4,414.5,142.9z M55.9,287.9
	c-8.1,0-14.8-6.5-14.8-14.6c0-0.1,0-0.1,0-0.2c0-56.7,46-102.6,102.6-102.6s102.6,46,102.6,102.6c0,0.1,0,0.1,0,0.2
	c0,8.1-6.7,14.6-14.8,14.6H55.9z M485.8,287.9c8.1,0,14.8-6.5,14.8-14.6c0-0.1,0-0.1,0-0.2c0-56.7-46-102.6-102.6-102.6
	s-102.6,46-102.6,102.6c0,0.1,0,0.1,0,0.2c0,8.1,6.7,14.6,14.8,14.6H485.8z"/>
<path class="st5_car" d="M132.6,198.7c3.6-0.5,7.3-0.8,11-0.8c2.8,0,5.5,0.2,8.1,0.4l-0.2,8.9l9,1.7l3.2-8.4c6.3,1.7,12.2,4.3,17.7,7.5
	l-3.8,8.1l7.5,5.3l6.3-6.4c4.9,4.1,9.3,8.8,13.1,14l-6.7,5.9l4.7,7.9l8.3-3.2c2.8,5.7,5,11.8,6.3,18.1l-8.6,2.6l1.1,9.1l8.9,0.4
	c0,1.1,0.1,2.1,0.1,3.2c0,5.5-0.6,10.8-1.7,15.9l-8.9-1.1l-2.7,8.8l8,4c-2.4,6-5.5,11.7-9.3,16.8l-7.7-4.6l-6,6.9l5.7,6.9
	c-4.6,4.5-9.7,8.4-15.3,11.6l-5.1-7.3l-8.3,3.9l2.4,8.6c-5.9,2.2-12.2,3.7-18.7,4.3l-1.7-8.8l-9.2,0.2l-1.4,8.8
	c-6.5-0.4-12.9-1.6-18.8-3.6l2-8.7l-8.5-3.6l-4.8,7.5c-5.7-3-11-6.7-15.7-11l5.4-7.1l-6.3-6.7l-7.5,4.9c-4-5-7.3-10.5-9.9-16.4
	l7.8-4.3l-3-8.7l-8.8,1.4c-1.5-6-2.4-12.3-2.4-18.8c0-0.1,0-0.2,0-0.3l8.9-0.8l0.8-9.2l-8.6-2.3c1.1-6.4,3-12.6,5.6-18.4l8.5,2.9
	l4.4-8l-7-5.6c3.6-5.4,7.8-10.2,12.6-14.5l6.5,6.1l7.3-5.5l-4.1-7.9c5.4-3.4,11.2-6.2,17.4-8.2l3.5,8.2l8.9-2.1L132.6,198.7z
	 M387.5,207.7l-8.9,2.1l-3.5-8.2c-6.2,2-12,4.7-17.4,8.2l4.1,7.9l-7.3,5.5l-6.5-6.1c-4.8,4.3-9,9.1-12.6,14.5l7,5.6l-4.4,8l-8.5-2.9
	c-2.6,5.8-4.5,11.9-5.6,18.4l8.6,2.3l-0.8,9.2l-8.9,0.8c0,0.1,0,0.2,0,0.3c0,6.5,0.8,12.8,2.4,18.8l8.8-1.4l3,8.7l-7.8,4.3
	c2.6,5.9,6,11.4,9.9,16.4l7.5-4.9l6.3,6.7l-5.4,7.1c4.7,4.3,10,8,15.7,11l4.8-7.5l8.5,3.6l-2,8.7c6,2,12.3,3.2,18.8,3.6l1.4-8.8
	l9.2-0.2l1.7,8.8c6.5-0.7,12.8-2.1,18.7-4.3l-2.4-8.6l8.3-3.9l5.1,7.3c5.6-3.2,10.7-7.1,15.3-11.6l-5.7-6.9l6-6.9l7.7,4.6
	c3.8-5.1,6.9-10.8,9.3-16.8l-8-4l2.7-8.8l8.9,1.1c1.1-5.1,1.7-10.5,1.7-15.9c0-1.1,0-2.1-0.1-3.2l-8.9-0.4l-1.1-9.1l8.6-2.6
	c-1.3-6.4-3.5-12.5-6.3-18.1l-8.3,3.2l-4.7-7.9l6.7-5.9c-3.8-5.2-8.2-9.9-13.1-14l-6.3,6.4l-7.5-5.3l3.8-8.1
	c-5.5-3.2-11.4-5.7-17.7-7.5l-3.2,8.4l-9-1.7l0.2-8.9c-2.7-0.3-5.4-0.4-8.1-0.4c-3.8,0-7.4,0.3-11,0.8L387.5,207.7z"/>
<path class="st6_car" d="M183.1,273.1c0,21.8-17.7,39.4-39.4,39.4s-39.4-17.7-39.4-39.4c0-21.8,17.7-39.4,39.4-39.4
	S183.1,251.4,183.1,273.1z M398,233.7c-21.8,0-39.4,17.7-39.4,39.4c0,21.8,17.7,39.4,39.4,39.4s39.4-17.7,39.4-39.4
	C437.4,251.4,419.8,233.7,398,233.7z"/>
<path class="st7_car" d="M120.4,297.8c-13.2-13.2-13.2-34.6,0-47.8c13.2-13.2,34.6-13.2,47.8,0C181.4,263.2,133.6,311,120.4,297.8z
	 M422.5,250c-13.2-13.2-34.6-13.2-47.8,0c-13.2,13.2-13.2,34.6,0,47.8C387.9,311,435.7,263.2,422.5,250z"/>
<path class="st0" d="M166.3,273.1c0,12.5-10.1,22.6-22.6,22.6c-12.5,0-22.6-10.1-22.6-22.6s10.1-22.6,22.6-22.6
	C156.2,250.5,166.3,260.7,166.3,273.1z M398,250.5c-12.5,0-22.6,10.1-22.6,22.6s10.1,22.6,22.6,22.6s22.6-10.1,22.6-22.6
	S410.5,250.5,398,250.5z"/>
<path class="st8_car" d="M425.8,26.5c-32,11.2-90.6,18-137.1,18c-45.1,0-96.1-6.4-127.7-17c1.3-1.7,2.8-3.3,4.3-4.8
	C178.7,9.3,197.2,1,217.4,1h153.1C392.5,1,412.4,10.8,425.8,26.5z M76.8,141c-9.7,3.2-16.2,11.8-14.7,16.4
	c1.5,4.6,10.5,3.4,20.2,0.3s16.5-7.1,15-11.7C95.7,141.3,86.5,137.8,76.8,141z"/>
<path class="st8_car" d="M130.8,283.4c-6.4-6.4-6.4-16.7,0-23.1c6.4-6.4,16.7-6.4,23.1,0C160.3,266.7,137.2,289.8,130.8,283.4z
	 M408.2,260.3c-6.4-6.4-16.7-6.4-23.1,0c-6.4,6.4-6.4,16.7,0,23.1C391.5,289.8,414.6,266.7,408.2,260.3z"/>
<path class="st9_car" d="M272.9,121c-3.1,0-5.7-2.6-5.7-5.7V33.9c0-3.2,2.6-5.7,5.7-5.7h99.4c20.5,0,37.8,15.4,40.2,35.8l4.7,50.8
	c0.2,1.6-0.4,3.2-1.5,4.4c-1.1,1.2-2.6,1.9-4.2,1.9H272.9z M217.1,28.2h-56.5c-8.4,10.4-14,23.2-15.7,37.3l-7.1,54.9l79.3,0.5
	c3.1,0,5.7-2.6,5.7-5.7V33.9C222.8,30.8,220.3,28.2,217.1,28.2z"/>
<path class="st10_car" d="M95.8,301.5c-0.5,0-1-0.3-1.3-0.8c-4.7-8.4-7.2-18-7.2-27.6c0-31.1,25.3-56.4,56.4-56.4c0.8,0,1.5,0.7,1.5,1.5
	s-0.7,1.5-1.5,1.5c-29.4,0-53.4,24-53.4,53.4c0,9.2,2.4,18.2,6.8,26.2c0.4,0.7,0.2,1.6-0.6,2C96.3,301.5,96.1,301.5,95.8,301.5z
	 M101.5,305.5c-1.1,0-2,0.9-2,2s0.9,2,2,2c1.1,0,2-0.9,2-2S102.7,305.5,101.5,305.5z M350.8,301.4c0.7-0.4,1-1.3,0.6-2
	c-4.5-7.9-6.8-17-6.8-26.2c0-29.4,24-53.4,53.4-53.4c0.8,0,1.5-0.7,1.5-1.5s-0.7-1.5-1.5-1.5c-31.1,0-56.4,25.3-56.4,56.4
	c0,9.7,2.5,19.3,7.2,27.6c0.3,0.5,0.8,0.8,1.3,0.8C350.4,301.5,350.6,301.5,350.8,301.4z M355.8,305.5c-1.1,0-2,0.9-2,2s0.9,2,2,2
	s2-0.9,2-2S357,305.5,355.8,305.5z"/>
<path class="st11_car" d="M318.7,100.4c-0.2,0-0.5-0.1-0.6-0.2c-0.4-0.4-0.5-1-0.1-1.4l31.8-37.6c0.4-0.4,1-0.5,1.4-0.1
	c0.4,0.4,0.5,1,0.1,1.4L319.5,100C319.3,100.3,319,100.4,318.7,100.4z M324.6,79.6l24.7-29.2c0.4-0.4,0.3-1.1-0.1-1.4
	c-0.4-0.4-1.1-0.3-1.4,0.1L323,78.3c-0.4,0.4-0.3,1.1,0.1,1.4c0.2,0.2,0.4,0.2,0.6,0.2C324.1,79.9,324.4,79.8,324.6,79.6z
	 M339.7,90.1l24.7-29.2c0.4-0.4,0.3-1.1-0.1-1.4c-0.4-0.4-1.1-0.3-1.4,0.1l-24.7,29.2c-0.4,0.4-0.3,1.1,0.1,1.4
	c0.2,0.2,0.4,0.2,0.6,0.2C339.2,90.5,339.5,90.4,339.7,90.1z M159.6,98.9L190,63c0.4-0.4,0.3-1.1-0.1-1.4c-0.4-0.4-1.1-0.3-1.4,0.1
	l-30.4,36c-0.4,0.4-0.3,1.1,0.1,1.4c0.2,0.2,0.4,0.2,0.6,0.2C159.2,99.3,159.4,99.2,159.6,98.9z M164.5,79.4l23.6-28
	c0.4-0.4,0.3-1.1-0.1-1.4c-0.4-0.4-1.1-0.3-1.4,0.1l-23.6,28c-0.4,0.4-0.3,1.1,0.1,1.4c0.2,0.2,0.4,0.2,0.6,0.2
	C164,79.8,164.3,79.6,164.5,79.4z M179,89.5l23.6-28c0.4-0.4,0.3-1.1-0.1-1.4c-0.4-0.4-1.1-0.3-1.4,0.1l-23.6,28
	c-0.4,0.4-0.3,1.1,0.1,1.4c0.2,0.2,0.4,0.2,0.6,0.2C178.5,89.8,178.8,89.7,179,89.5z M53.1,272.2c0.3-15.8,4.8-31.5,12.9-45.2
	c14.9-25.2,40.2-41.6,69.4-44.9c1.1-0.1,1.9-1.1,1.8-2.2c-0.1-1.1-1.1-1.9-2.2-1.8c-30.4,3.5-56.8,20.6-72.4,46.9
	c-8.5,14.3-13.1,30.6-13.5,47.2c0,1.1,0.9,2,2,2c0,0,0,0,0,0C52.2,274.1,53.1,273.3,53.1,272.2z M308.5,272.2
	c0.3-15.8,4.8-31.5,12.9-45.2c14.9-25.2,40.2-41.6,69.4-44.9c1.1-0.1,1.9-1.1,1.8-2.2c-0.1-1.1-1.1-1.9-2.2-1.8
	c-30.4,3.5-56.8,20.6-72.4,46.9c-8.5,14.3-13.1,30.6-13.5,47.2c0,1.1,0.9,2,2,2c0,0,0,0,0,0C307.6,274.1,308.5,273.3,308.5,272.2z
	 M422.6,114.3l-4.7-50.9c-2.7-23.1-22.3-40.6-45.6-40.6h-99.4c-6.2,0-11.1,5-11.1,11.1v81.4c0,6.2,5,11.1,11.1,11.1h138.6
	C418.1,126.4,423.2,120.8,422.6,114.3z M415.8,119.2c-1.1,1.2-2.6,1.9-4.2,1.9H272.9c-3.1,0-5.7-2.6-5.7-5.7V33.9
	c0-3.2,2.6-5.7,5.7-5.7h99.4c20.5,0,37.8,15.4,40.2,35.8l4.7,50.8C417.4,116.4,416.9,118,415.8,119.2z M217.1,22.8h-51.7
	c-2.3,2.3-5.3,6.1-4.8,5.4h56.5c3.1,0,5.7,2.6,5.7,5.7v81.3c0,3.1-2.6,5.7-5.7,5.7l-79.3-0.5l-0.7,5.1l79.8,0.8
	c6.2,0.1,11.3-4.9,11.3-11.1V33.9C228.3,27.7,223.3,22.8,217.1,22.8z"/>
<path d="M398,232.7c-22.3,0-40.4,18.1-40.4,40.4c0,22.3,18.1,40.4,40.4,40.4c22.3,0,40.4-18.1,40.4-40.4
	C438.4,250.8,420.3,232.7,398,232.7z M398,311.6c-21.2,0-38.4-17.2-38.4-38.4s17.2-38.4,38.4-38.4s38.4,17.2,38.4,38.4
	S419.2,311.6,398,311.6z M398,249.5c-13,0-23.6,10.6-23.6,23.6s10.6,23.6,23.6,23.6s23.6-10.6,23.6-23.6S411,249.5,398,249.5z
	 M398,294.7c-11.9,0-21.6-9.7-21.6-21.6s9.7-21.6,21.6-21.6c11.9,0,21.6,9.7,21.6,21.6S409.9,294.7,398,294.7z M143.7,232.7
	c-22.3,0-40.4,18.1-40.4,40.4c0,22.3,18.1,40.4,40.4,40.4c22.3,0,40.4-18.1,40.4-40.4C184.1,250.8,166,232.7,143.7,232.7z
	 M143.7,311.6c-21.2,0-38.4-17.2-38.4-38.4s17.2-38.4,38.4-38.4s38.4,17.2,38.4,38.4S164.9,311.6,143.7,311.6z M511.2,219.7v-6.6
	c2.6-0.8,5.9-4.2,5.9-8.1c0-3.9-3.3-7.3-5.9-8.1v-5.3c1.7-0.4,3.5-1.7,5-3.5c3.5-1.9,6.7-7.4,6.7-14.1c0-6.7-3.2-12.2-6.8-14.1
	c-1.6-1.9-3.5-3.2-5.3-3.5c-1.5-11.3-9.7-20.5-21.1-23.1l-38.4-8.7l-7.6-59.3C439.5,28.1,408,0,370.4,0H217.4
	c-20,0-38.7,7.8-52.7,22.1c-0.5,0.5-1,1-1.4,1.5c-0.3,0.3-0.6,0.7-0.9,1c-0.1,0.1-0.2,0.2-0.3,0.3c-7.5,8.4-12.8,18.2-15.8,29
	c-1.1,3.8-1.8,7.6-2.3,11.5l-7.1,54.9l-0.6,4.3l-55.1,7.1c-16.1,2.1-30,10.6-39.1,22.9c-0.1,0.1-0.3,0.3-0.3,0.4
	c-1.7,2.3-3.2,4.7-4.6,7.3c-4.2-1.3-8.3-2.1-11.6-2.1c-1.6,0-3,0.2-4.4,0.5c-0.8-0.3-1.7-0.5-2.6-0.5c-3,0-6.2,1.9-9,5.2l0,0
	C4.6,168,0,175.9,0,185.5c0,9.6,4.6,17.5,9.6,20.1c2.7,3.3,6,5.2,9,5.2c1.7,0,3.2-0.6,4.3-1.6c0.9,0.1,1.8,0.2,2.7,0.2
	c1.5,0,3.1-0.2,4.8-0.4v10.6h-10c-10.5,0-19.1,8.6-19.1,19.1v16.4c0,10.5,8.6,19.1,19.1,19.1h19.7c0.5,8.2,7.4,14.8,15.8,14.8h13.2
	c0.2,1.1,0.5,2.2,0.7,3.2c0.1,0.5,0.6,0.8,1.1,0.7l8-1.3l2.5,7.1l-7.1,3.9c-0.5,0.3-0.6,0.8-0.4,1.3c2.6,5.9,6,11.5,10.1,16.6
	c0.3,0.4,0.9,0.5,1.3,0.2l6.8-4.4l5.1,5.5l-4.9,6.5c-0.3,0.4-0.3,1,0.1,1.3c4.8,4.3,10.2,8.1,16,11.1c0.5,0.2,1,0.1,1.3-0.3l4.4-6.8
	l6.9,2.9l-1.8,7.9c-0.1,0.5,0.2,1,0.7,1.2c6.2,2,12.6,3.3,19.1,3.7c0,0,0,0,0.1,0c0.5,0,0.9-0.4,1-0.8l1.2-8l7.5-0.1l1.5,8
	c0.1,0.5,0.6,0.8,1.1,0.8c6.5-0.6,12.8-2.1,18.9-4.4c0.5-0.2,0.8-0.7,0.6-1.2l-2.1-7.8l6.8-3.2l4.6,6.6c0.3,0.4,0.9,0.6,1.3,0.3
	c5.7-3.2,10.9-7.2,15.5-11.7c0.4-0.4,0.4-0.9,0.1-1.3l-5.1-6.3l4.9-5.7l6.9,4.2c0.4,0.3,1,0.2,1.3-0.3c3.8-5.2,7-11,9.4-17
	c0.2-0.5,0-1-0.5-1.3l-7.2-3.6l2.2-7.2l8,1c0.5,0.1,1-0.3,1.1-0.8c0-0.1,0-0.2,0.1-0.4h13.3c8.4,0,15.3-6.5,15.8-14.8h47.1
	c0.5,8.2,7.4,14.8,15.8,14.8h13.2c0.2,1.1,0.5,2.2,0.7,3.2c0.1,0.5,0.6,0.8,1.1,0.7l8-1.3l2.5,7.1l-7.1,3.9
	c-0.5,0.3-0.6,0.8-0.4,1.3c2.6,5.9,6,11.5,10.1,16.6c0.3,0.4,0.9,0.5,1.3,0.2l6.8-4.4l5.1,5.5l-4.9,6.5c-0.3,0.4-0.3,1,0.1,1.3
	c4.8,4.3,10.2,8.1,16,11.1c0.5,0.2,1,0.1,1.3-0.3l4.4-6.8l6.9,2.9l-1.8,7.9c-0.1,0.5,0.2,1,0.7,1.2c6.2,2,12.6,3.3,19.1,3.7
	c0,0,0,0,0.1,0c0.5,0,0.9-0.4,1-0.8l1.2-8l7.5-0.1l1.5,8c0.1,0.5,0.6,0.8,1.1,0.8c6.5-0.6,12.8-2.1,18.9-4.4
	c0.5-0.2,0.8-0.7,0.6-1.2l-2.1-7.8l6.8-3.2l4.6,6.6c0.3,0.4,0.9,0.6,1.3,0.3c5.7-3.2,10.9-7.2,15.5-11.7c0.4-0.4,0.4-0.9,0.1-1.3
	l-5.1-6.3l4.9-5.7l6.9,4.2c0.4,0.3,1,0.2,1.3-0.3c3.8-5.2,7-11,9.4-17c0.2-0.5,0-1-0.5-1.3l-7.2-3.6l2.2-7.2l8,1
	c0.5,0.1,1-0.3,1.1-0.8c0-0.1,0-0.2,0.1-0.4h13.3c8.4,0,15.3-6.5,15.8-14.8h7.3c10.5,0,19.1-8.6,19.1-19.1v-16.4
	C528,228.9,520.7,220.9,511.2,219.7z M515.2,205.1c0,3.5-3.6,6.2-5,6.2c-4.9,0-10.7-1.1-10.7-6.2c0-5.1,5.8-6.2,10.7-6.2
	C511.6,198.9,515.2,201.7,515.2,205.1z M521,174.2c0,6.9-4,12.8-7.3,12.8c-2.6,0-3.9-4.4-3.9-12.8s1.4-12.8,3.9-12.8
	C517,161.4,521,167.3,521,174.2z M512.8,159.5c-4.5,0.9-5,8.7-5,14.7c0,6,0.5,13.8,5,14.7c-1,0.7-1.9,1-2.9,1c-3.3,0-5-5.3-5-15.8
	s1.7-15.8,5-15.8C510.8,158.4,511.8,158.8,512.8,159.5z M145.9,65.7c0.1-0.9,0.2-1.8,0.4-2.7c0.1-0.4,0.1-0.8,0.2-1.2
	c0.1-0.5,0.2-1,0.3-1.5c0.1-0.5,0.2-1.1,0.3-1.6c0.1-0.3,0.1-0.6,0.2-0.9c0.1-0.5,0.2-0.9,0.3-1.4c0.1-0.2,0.1-0.4,0.2-0.6
	c0-0.1,0-0.2,0.1-0.2c0.3-1.1,0.6-2.2,1-3.3c0.1-0.2,0.1-0.4,0.2-0.6c0.7-2.2,1.5-4.3,2.4-6.3c0.1-0.2,0.2-0.5,0.3-0.7
	c0.4-0.9,0.8-1.8,1.3-2.7c0.1-0.1,0.1-0.2,0.2-0.3c0.5-1,1-1.9,1.5-2.9c0.2-0.3,0.3-0.5,0.5-0.8c0.4-0.8,0.9-1.5,1.3-2.2
	c0.1-0.2,0.3-0.4,0.4-0.7c0.6-0.9,1.1-1.7,1.7-2.6c0.2-0.3,0.4-0.6,0.6-0.9c0.5-0.6,0.9-1.2,1.4-1.9c0.2-0.2,0.3-0.4,0.5-0.6h56
	c2.6,0,4.7,2.1,4.7,4.7v81.3c0,2.6-2.1,4.7-4.7,4.7l-78.1-0.5L145.9,65.7z M138.8,121.4l78.4,0.5c3.7,0,6.7-3,6.7-6.7V33.9
	c0-3.7-3-6.7-6.7-6.7h-54.4c0,0,0.1-0.1,0.1-0.1c0.4-0.5,0.8-1,1.3-1.4c0.1-0.1,0.2-0.2,0.3-0.3c0.4-0.4,0.8-0.9,1.2-1.3
	c0.1-0.1,0.1-0.2,0.2-0.2h51.3c5.6,0,10.1,4.5,10.1,10.1v81.3c0,2.7-1.1,5.3-3,7.2c-1.9,1.9-4.5,2.9-7.2,2.9l-78.7-0.8L138.8,121.4z
	 M81.5,133.7l48.4-6.2c-0.9,20.7-52.8,26.6-85.1,26.9C53.7,143.3,66.6,135.6,81.5,133.7z M43.3,156.3c11.5,0,88-1.4,88.6-29.1
	l5.4-0.7l79.8,0.8c0,0,0.1,0,0.1,0c3.2,0,6.2-1.2,8.5-3.5c2.3-2.3,3.6-5.4,3.6-8.6V33.9c0-6.7-5.4-12.1-12.1-12.1h-49.3
	C181.3,9,198.8,2,217.4,2h153.1c36.5,0,67.2,27.4,71.4,63.7l7.7,60c0.1,0.4,0.4,0.8,0.8,0.8l39.1,8.9c10.4,2.4,18,10.8,19.5,21.1
	c-5.4,1-6,10.4-6,17.7c0,7.4,0.7,17,6.3,17.7v5c-10.2,0.3-11.8,5.2-11.8,8.2s1.6,7.9,11.8,8.2v6.3c-0.1,0-0.2,0-0.3,0h-22.2
	c-18.2-30-51.1-50.1-88.7-50.1c-37.6,0-70.5,20.1-88.7,50.1h-76.9c-18.2-30-51.1-50.1-88.7-50.1c-37.6,0-70.5,20.1-88.7,50.1H32.4
	v-11c13-2.8,30.4-12.5,30.4-23.8c0-9.5-12.1-17.8-23.7-21.9C40.3,160.6,41.7,158.4,43.3,156.3z M294.4,272.1h-47
	c-0.2-18.4-5.2-35.6-13.7-50.6h74.5C299.5,236.5,294.5,253.8,294.4,272.1z M2,185.5c0-10.5,6-19,11.1-19c4.1,0,6.2,6.4,6.2,19
	s-2.1,19-6.2,19C8,204.5,2,196,2,185.5z M18.6,208.8c-1.7,0-3.6-0.8-5.3-2.3c7.1-0.2,8-12.1,8-21c0-8.9-0.8-20.8-8-21
	c1.7-1.5,3.6-2.3,5.3-2.3c5.1,0,7.7,7.8,7.7,23.3S23.6,208.8,18.6,208.8z M25.6,207.4c-0.4,0-0.8,0-1.1,0c3.3-4.9,3.8-14.3,3.8-21.9
	c0-8.3-0.6-18.7-4.8-23.2c0.7-0.1,1.4-0.1,2.1-0.1c11.6,0,35.2,10.5,35.2,22.6S37.2,207.4,25.6,207.4z M3.3,255.1v-16.4
	c0-9.4,7.7-17.1,17.1-17.1h33.4c-8.6,14.9-13.6,32.2-13.7,50.6H20.4C11,272.1,3.3,264.5,3.3,255.1z M216.4,287.9l-8-1
	c-0.5-0.1-0.9,0.2-1.1,0.7l-2.7,8.8c-0.1,0.5,0.1,1,0.5,1.2l7.2,3.6c-2.2,5.3-5,10.3-8.3,15l-6.9-4.1c-0.4-0.3-1-0.2-1.3,0.2l-6,6.9
	c-0.3,0.4-0.3,0.9,0,1.3l5.1,6.2c-4.1,4-8.7,7.4-13.7,10.3l-4.6-6.6c-0.3-0.4-0.8-0.5-1.2-0.3l-8.3,3.9c-0.4,0.2-0.7,0.7-0.5,1.2
	l2.1,7.8c-5.4,1.9-11,3.2-16.7,3.9l-1.5-7.9c-0.1-0.5-0.5-0.8-1-0.8c0,0,0,0,0,0l-9.2,0.2c-0.5,0-0.9,0.4-1,0.8l-1.2,7.9
	c-5.7-0.4-11.4-1.5-16.8-3.2l1.8-7.8c0.1-0.5-0.1-1-0.6-1.1l-8.5-3.6c-0.4-0.2-1,0-1.2,0.4l-4.3,6.8c-5.1-2.7-9.8-6-14-9.8l4.8-6.4
	c0.3-0.4,0.3-0.9-0.1-1.3l-6.3-6.7c-0.3-0.4-0.9-0.4-1.3-0.2l-6.7,4.4c-3.5-4.5-6.5-9.5-8.9-14.7l7-3.9c0.4-0.2,0.6-0.7,0.5-1.2
	l-3-8.7c-0.2-0.5-0.6-0.7-1.1-0.7l-7.9,1.3c-1.3-5.5-2.1-11.2-2.1-17l8-0.7c0.5,0,0.9-0.4,0.9-0.9l0.8-9.2c0-0.5-0.3-0.9-0.7-1.1
	l-7.8-2c1-5.6,2.7-11.1,5-16.4l7.6,2.6c0.5,0.2,1,0,1.2-0.5l4.4-8c0.2-0.4,0.1-1-0.3-1.3l-6.3-5c3.2-4.7,7-9.1,11.2-12.9l5.9,5.5
	c0.4,0.3,0.9,0.4,1.3,0.1l7.3-5.5c0.4-0.3,0.5-0.8,0.3-1.3l-3.7-7.1c4.9-3,10.1-5.5,15.5-7.3l3.1,7.4c0.2,0.4,0.7,0.7,1.1,0.6
	l8.9-2.1c0.5-0.1,0.8-0.5,0.8-1l-0.5-8c5.7-0.8,11.3-0.9,17.1-0.3l-0.1,8c0,0.5,0.3,0.9,0.8,1l9,1.7c0.5,0.1,1-0.2,1.1-0.6l2.8-7.5
	c5.5,1.6,10.8,3.8,15.8,6.7l-3.4,7.3c-0.2,0.4-0.1,1,0.3,1.2l7.5,5.3c0.4,0.3,0.9,0.2,1.3-0.1l5.7-5.7c4.3,3.7,8.3,7.9,11.7,12.5
	l-6.1,5.3c-0.4,0.3-0.5,0.9-0.2,1.3l4.7,7.9c0.3,0.4,0.8,0.6,1.2,0.4l7.5-2.9c2.5,5.2,4.4,10.6,5.6,16.2l-7.7,2.3
	c-0.5,0.1-0.8,0.6-0.7,1.1l1.1,9.1c0.1,0.5,0.5,0.9,0.9,0.9l8,0.4c0,0.7,0,1.5,0,2.3C217.9,278.1,217.4,283.1,216.4,287.9z
	 M245.3,273.3c0,7.5-6.2,13.6-13.8,13.6h-12.9c0.8-4.6,1.3-9.2,1.3-13.8c0-1.1,0-2.2-0.1-3.2c0-0.5-0.4-0.9-1-1l-8.1-0.4l-0.9-7.4
	l7.8-2.4c0.5-0.2,0.8-0.7,0.7-1.2c-1.3-6.3-3.5-12.5-6.4-18.4c-0.2-0.5-0.8-0.7-1.3-0.5l-7.6,2.9l-3.9-6.4l6.1-5.3
	c0.4-0.3,0.5-0.9,0.2-1.3c-3.8-5.3-8.3-10.1-13.3-14.2c-0.4-0.3-1-0.3-1.3,0.1l-5.7,5.8l-6.2-4.3l3.4-7.3c0.2-0.5,0-1-0.4-1.3
	c-5.6-3.3-11.6-5.8-17.9-7.6c-0.5-0.1-1,0.1-1.2,0.6l-2.9,7.6l-7.4-1.4l0.1-8.1c0-0.5-0.4-1-0.9-1c-2.8-0.3-5.6-0.5-8.3-0.5
	c-3.7,0-7.5,0.3-11.2,0.8c-0.5,0.1-0.9,0.5-0.9,1l0.5,8.1l-7.3,1.7l-3.2-7.5c-0.2-0.5-0.7-0.7-1.2-0.6c-6.2,2-12.1,4.8-17.6,8.3
	c-0.4,0.3-0.6,0.8-0.4,1.3l3.7,7.2l-6,4.5l-5.9-5.5c-0.4-0.4-1-0.4-1.3,0c-4.9,4.3-9.1,9.3-12.7,14.7c-0.3,0.4-0.2,1,0.2,1.3
	l6.3,5.1l-3.6,6.6l-7.7-2.6c-0.5-0.2-1,0.1-1.2,0.5c-2.7,5.9-4.6,12.2-5.6,18.6c-0.1,0.5,0.2,1,0.7,1.1l7.8,2.1l-0.6,7.5l-8.1,0.7
	c-0.5,0-0.9,0.5-0.9,1l0,0.3c0,4.6,0.4,9.2,1.2,13.8H55.9c-7.6,0-13.8-6.1-13.8-13.6l-1,0l1-0.2c0-56,45.6-101.6,101.6-101.6
	s101.6,45.6,101.6,101.6V273.3z M470.7,287.9l-8-1c-0.5-0.1-0.9,0.2-1.1,0.7l-2.7,8.8c-0.1,0.5,0.1,1,0.5,1.2l7.2,3.6
	c-2.2,5.3-5,10.3-8.3,15l-6.9-4.1c-0.4-0.3-1-0.2-1.3,0.2l-6,6.9c-0.3,0.4-0.3,0.9,0,1.3l5.1,6.2c-4.1,4-8.7,7.4-13.7,10.3l-4.6-6.6
	c-0.3-0.4-0.8-0.5-1.2-0.3l-8.3,3.9c-0.4,0.2-0.7,0.7-0.5,1.2l2.1,7.8c-5.4,1.9-11,3.2-16.7,3.9l-1.5-7.9c-0.1-0.5-0.5-0.8-1-0.8
	c0,0,0,0,0,0l-9.2,0.2c-0.5,0-0.9,0.4-1,0.8l-1.2,7.9c-5.7-0.4-11.4-1.5-16.8-3.2l1.8-7.8c0.1-0.5-0.1-1-0.6-1.1l-8.5-3.6
	c-0.4-0.2-1,0-1.2,0.4l-4.3,6.8c-5.1-2.7-9.8-6-14-9.8l4.8-6.4c0.3-0.4,0.3-0.9-0.1-1.3l-6.3-6.7c-0.3-0.4-0.9-0.4-1.3-0.2l-6.7,4.4
	c-3.5-4.5-6.5-9.5-8.9-14.7l7-3.9c0.4-0.2,0.6-0.7,0.5-1.2l-3-8.7c-0.2-0.5-0.6-0.7-1.1-0.7l-7.9,1.3c-1.3-5.5-2.1-11.2-2.1-17
	l8-0.7c0.5,0,0.9-0.4,0.9-0.9l0.8-9.2c0-0.5-0.3-0.9-0.7-1.1l-7.8-2c1-5.6,2.7-11.1,5-16.4l7.6,2.6c0.5,0.2,1,0,1.2-0.5l4.4-8
	c0.2-0.4,0.1-1-0.3-1.3l-6.3-5c3.2-4.7,7-9.1,11.2-12.9l5.9,5.5c0.4,0.3,0.9,0.4,1.3,0.1l7.3-5.5c0.4-0.3,0.5-0.8,0.3-1.3L359,210
	c4.9-3,10.1-5.5,15.5-7.3l3.1,7.4c0.2,0.4,0.7,0.7,1.1,0.6l8.9-2.1c0.5-0.1,0.8-0.5,0.8-1l-0.5-8c5.7-0.8,11.3-0.9,17.1-0.3l-0.1,8
	c0,0.5,0.3,0.9,0.8,1l9,1.7c0.5,0.1,1-0.2,1.1-0.6l2.8-7.5c5.5,1.6,10.8,3.8,15.8,6.7l-3.4,7.3c-0.2,0.4-0.1,1,0.3,1.2l7.5,5.3
	c0.4,0.3,0.9,0.2,1.3-0.1l5.7-5.7c4.3,3.7,8.3,7.9,11.7,12.5l-6.1,5.3c-0.4,0.3-0.5,0.9-0.2,1.3l4.7,7.9c0.3,0.4,0.8,0.6,1.2,0.4
	l7.5-2.9c2.5,5.2,4.4,10.6,5.6,16.2l-7.7,2.3c-0.5,0.1-0.8,0.6-0.7,1.1l1.1,9.1c0.1,0.5,0.5,0.9,0.9,0.9l8,0.4c0,0.7,0,1.5,0,2.3
	C472.2,278.1,471.7,283.1,470.7,287.9z M499.6,273.3c0,7.5-6.2,13.6-13.8,13.6h-12.9c0.8-4.6,1.3-9.2,1.3-13.8c0-1.2,0-2.3-0.1-3.2
	c0-0.5-0.4-0.9-1-1l-8.1-0.4l-0.9-7.4l7.8-2.4c0.5-0.2,0.8-0.7,0.7-1.2c-1.3-6.3-3.5-12.5-6.4-18.4c-0.2-0.5-0.8-0.7-1.3-0.5
	l-7.6,2.9l-3.9-6.4l6.1-5.3c0.4-0.3,0.5-0.9,0.2-1.3c-3.8-5.3-8.3-10.1-13.3-14.2c-0.4-0.3-1-0.3-1.3,0.1l-5.7,5.8l-6.2-4.3l3.4-7.3
	c0.2-0.5,0-1-0.4-1.3c-5.6-3.3-11.6-5.8-17.9-7.6c-0.5-0.1-1,0.1-1.2,0.6l-2.9,7.6l-7.4-1.4l0.1-8.1c0-0.5-0.4-1-0.9-1
	c-2.8-0.3-5.6-0.5-8.3-0.5c-3.7,0-7.5,0.3-11.2,0.8c-0.5,0.1-0.9,0.5-0.9,1l0.5,8.1l-7.3,1.7l-3.2-7.5c-0.2-0.5-0.7-0.7-1.2-0.6
	c-6.2,2-12.1,4.8-17.6,8.3c-0.4,0.3-0.6,0.8-0.4,1.3l3.7,7.2l-6,4.5l-5.9-5.5c-0.4-0.4-1-0.4-1.3,0c-4.9,4.3-9.1,9.3-12.7,14.7
	c-0.3,0.4-0.2,1,0.2,1.3l6.3,5.1l-3.6,6.6l-7.7-2.6c-0.5-0.2-1,0.1-1.2,0.5c-2.7,5.9-4.6,12.2-5.6,18.6c-0.1,0.5,0.2,1,0.7,1.1
	l7.8,2.1l-0.6,7.5l-8.1,0.7c-0.5,0-0.9,0.5-0.9,1l0,0.3c0,4.6,0.4,9.2,1.2,13.8h-12.8c-7.6,0-13.8-6.1-13.8-13.6v-0.2
	c0-56,45.6-101.6,101.6-101.6s101.6,45.6,101.6,101.6V273.3z M526,255.1c0,9.4-7.7,17.1-17.1,17.1h-7.3
	c-0.2-18.4-5.2-35.6-13.7-50.6h21.1c9.4,0,17.1,7.7,17.1,17.1V255.1z M143.7,249.5c-13,0-23.6,10.6-23.6,23.6s10.6,23.6,23.6,23.6
	s23.6-10.6,23.6-23.6S156.7,249.5,143.7,249.5z M143.7,294.7c-11.9,0-21.6-9.7-21.6-21.6s9.7-21.6,21.6-21.6s21.6,9.7,21.6,21.6
	S155.6,294.7,143.7,294.7z M272.9,122h138.6c1.9,0,3.7-0.8,5-2.2c1.3-1.4,1.9-3.2,1.7-5.1l-4.7-50.8c-2.4-20.9-20.1-36.7-41.2-36.7
	h-99.4c-3.7,0-6.7,3-6.7,6.7v81.4C266.2,119,269.2,122,272.9,122z M268.2,33.9c0-2.6,2.1-4.7,4.7-4.7h99.4c20,0,36.9,15,39.2,34.9
	l4.7,50.8c0.1,1.3-0.3,2.6-1.2,3.6c-0.9,1-2.1,1.5-3.5,1.5H272.9c-2.6,0-4.7-2.1-4.7-4.7V33.9z M272.9,127.4h138.6
	c3.4,0,6.7-1.4,9-4s3.4-5.9,3.1-9.3l-4.7-50.9c-2.7-23.7-22.7-41.5-46.5-41.5h-99.4c-6.7,0-12.1,5.4-12.1,12.1v81.4
	C260.8,122,266.2,127.4,272.9,127.4z M262.8,33.9c0-5.6,4.5-10.1,10.1-10.1h99.4c22.8,0,42,17.1,44.6,39.7l4.7,50.9
	c0.3,2.8-0.7,5.7-2.6,7.8s-4.6,3.3-7.5,3.3H272.9c-5.6,0-10.1-4.5-10.1-10.1V33.9z M411.8,135.2h-27.5c-2.1,0-3.8,1.7-3.8,3.8v3.9
	c0,2.1,1.7,3.8,3.8,3.8h27.5c2.1,0,3.8-1.7,3.8-3.8v-3.9C415.5,136.9,413.8,135.2,411.8,135.2z M413.5,142.9c0,1-0.8,1.8-1.8,1.8
	h-27.5c-1,0-1.8-0.8-1.8-1.8v-3.9c0-1,0.8-1.8,1.8-1.8h27.5c1,0,1.8,0.8,1.8,1.8V142.9z M456.7,170.5c0-0.6,0.4-1,1-1h30
	c0.6,0,1,0.4,1,1s-0.4,1-1,1h-30C457.1,171.5,456.7,171,456.7,170.5z M457.7,152.5h30c0.6,0,1-0.4,1-1s-0.4-1-1-1h-30
	c-0.6,0-1,0.4-1,1S457.1,152.5,457.7,152.5z M399.8,154.3c-37.3,0-72.2,16.7-95.6,45.8c-0.3,0.4-0.3,1.1,0.2,1.4
	c0.2,0.1,0.4,0.2,0.6,0.2c0.3,0,0.6-0.1,0.8-0.4c23-28.7,57.3-45.1,94-45.1c0.6,0,1-0.4,1-1S400.3,154.3,399.8,154.3z M457.7,161.4
	h30c0.6,0,1-0.4,1-1s-0.4-1-1-1h-30c-0.6,0-1,0.4-1,1S457.1,161.4,457.7,161.4z M245,201.8c0.6,0,1-0.4,1-1V25.9c0-0.6-0.4-1-1-1
	s-1,0.4-1,1v174.9C244,201.4,244.5,201.8,245,201.8z"/>
</svg>
