<?xml version="1.0" encoding="utf-8"?>
<!-- Generator: Adobe Illustrator 24.0.0, SVG Export Plug-In . SVG Version: 6.00 Build 0)  -->
<svg version="1.1" id="Layer_1" xmlns="http://www.w3.org/2000/svg" xmlns:xlink="http://www.w3.org/1999/xlink" x="0px" y="0px"
	 viewBox="0 0 310.5 482.6" style="enable-background:new 0 0 310.5 482.6;" xml:space="preserve">
<style type="text/css">
	.st0_doll{fill:#FFCEB6;}
	.st1_doll{fill:#6B4844;}
	.st2_doll{fill:#EF9A7F;}
	.st3_doll{fill:#FF2727;}
	.st4_doll{fill:#FFFFFF;}
	.st5_doll{fill:#0051AA;}
	.st6_doll{fill:#1977CC;}
	.st7_doll{fill:#FFE6DC;}
	.st8_doll{fill:#FFE600;}
	.st9_doll{fill:#138EE2;}
	.st10_doll{fill:#DB0000;}
</style>
<g id="body_1_">
	<g id="left-leg">
		<path class="st0_doll" d="M198.7,423.3c0.5,12.7,2.7,19.4,3.4,20.5c1.2,1.8,6.5,7.8,12.9,12.7c4.5,3.5,13.7,8.3,11.9,14.9
			c-1.2,4.2-10,9.5-26.1,3.4c-6.4-2.5-23.7,0.8-26.9-4c-3.9-5.9,0.2-14.5,0.5-20.2s-5-25-6.6-34.6c-4.9-28.8-7.8-63.7-3.3-75.9
			c4.7-12.7,31.4-5.9,32.3-2.2C200.2,352.5,198.3,414.4,198.7,423.3L198.7,423.3z"/>
		<path d="M214.1,478.5c-3.6,0-8.2-0.7-13.7-2.9c-2.5-1-7.1-1-11.5-1c-7,0-13.7-0.1-15.8-3.3c-3-4.4-1.7-10.1-0.7-15.1
			c0.5-2.1,0.9-4,0.9-5.7c0.1-3.4-2-12.7-3.8-20.9c-1.1-5.1-2.2-9.9-2.8-13.5c-5-29-7.9-63.9-3.3-76.4c2.8-7.6,12.4-8.2,17.8-7.9
			c7.2,0.4,15.7,3,16.4,5.9c2.6,10.9,2.3,47.6,2.1,69.5c-0.1,7.7-0.1,13.8,0,16.1l0,0c0.5,12.2,2.6,19,3.2,20
			c1.1,1.7,6.4,7.7,12.7,12.5c0.7,0.6,1.6,1.2,2.5,1.8c4.8,3.4,11.5,8,9.8,14.1c-0.5,1.9-2.3,3.8-4.8,5
			C221.3,477.5,218.4,478.5,214.1,478.5L214.1,478.5z M179.1,333.7c-4.5,0-11.7,0.9-13.8,6.7c-4.5,12.1-1.4,47.5,3.4,75.3
			c0.6,3.5,1.7,8.3,2.8,13.4c2,8.7,4,17.8,3.8,21.5c-0.1,1.8-0.5,3.9-1,6c-1,4.6-2.1,9.9,0.4,13.6c1.6,2.4,8.3,2.4,14.2,2.5
			c4.8,0,9.3,0.1,12.2,1.2c11.8,4.5,18.7,2.3,21,1c2-1,3.4-2.4,3.8-3.8c1.3-4.8-4.4-8.8-9-12c-0.9-0.6-1.8-1.3-2.6-1.9
			c-6.3-4.8-11.7-10.9-13.1-12.9c-0.9-1.4-3-8.3-3.6-21l0,0c-0.1-2.4,0-8.5,0-16.2c0.2-21.8,0.6-58.3-2-69c-0.4-1.2-7.7-4.2-16-4.4
			C179.5,333.7,179.3,333.7,179.1,333.7L179.1,333.7z"/>
	</g>
	<g id="right-leg">
		<path class="st0_doll" d="M111.6,423.4c0.4-8.9-1.6-70.8,1.9-85.4c0.9-3.7,27.6-10.5,32.3,2.2c4.5,12.2,1.6,47.1-3.3,75.9
			c-1.6,9.6-6.8,29-6.6,34.6c0.3,5.7,4.4,14.3,0.5,20.2c-3.2,4.8-20.5,1.5-26.9,4c-16.1,6.1-24.9,0.8-26.1-3.4
			c-1.8-6.6,7.4-11.4,11.9-14.9c6.4-4.9,11.7-10.9,12.9-12.7C108.9,442.8,111.1,436.1,111.6,423.4L111.6,423.4z"/>
		<path d="M96.1,478.6c-4.3,0-7.2-1-8.9-1.9c-2.5-1.3-4.3-3.1-4.8-5c-1.7-6.2,4.9-10.8,9.8-14.1c0.9-0.6,1.8-1.2,2.5-1.8
			c6.3-4.8,11.5-10.8,12.7-12.5c0.7-1,2.7-7.7,3.2-20c0.1-2.3,0-8.4,0-16.1c-0.2-21.9-0.6-58.6,2.1-69.5c0.7-2.9,9.2-5.4,16.4-5.9
			c5.4-0.3,15,0.3,17.8,7.9c4.6,12.5,1.7,47.4-3.3,76.4c-0.6,3.6-1.7,8.4-2.8,13.5c-1.8,8.2-3.9,17.5-3.8,20.9
			c0.1,1.6,0.5,3.6,0.9,5.7c1.1,5,2.3,10.7-0.7,15.1c-2.2,3.2-8.8,3.3-15.8,3.3c-4.4,0-9,0.1-11.5,1
			C104.3,477.8,99.7,478.6,96.1,478.6L96.1,478.6z M131.1,333.8c-0.2,0-0.4,0-0.6,0c-8.3,0.1-15.6,3.2-16,4.4
			c-2.6,10.6-2.2,47.2-2,69c0.1,7.7,0.1,13.9,0,16.2l0,0c-0.5,12.7-2.6,19.6-3.6,21c-1.4,2-6.8,8.1-13.1,12.9
			c-0.8,0.6-1.7,1.2-2.6,1.9c-4.6,3.2-10.3,7.2-9,12c0.4,1.4,1.8,2.8,3.8,3.8c2.4,1.2,9.2,3.5,21-1c2.8-1.1,7.4-1.1,12.2-1.2
			c5.9,0,12.6-0.1,14.2-2.5c2.5-3.7,1.4-9,0.4-13.6c-0.5-2.2-0.9-4.2-1-6c-0.2-3.7,1.9-12.7,3.8-21.5c1.1-5.1,2.2-9.8,2.8-13.3
			c4.8-27.8,7.9-63.3,3.4-75.3C142.8,334.7,135.6,333.8,131.1,333.8L131.1,333.8z M111.6,423.3"/>
	</g>
	<g id="right-hand">
		<path class="st0_doll" d="M122.8,236.2c16-10.3,21.8,23.5,0.5,24.5c-21.6,1.1-43,23.1-75.1,21.2c-3.9,3.8-13.8,6.3-17.3,6.1
			c-5.7,2.7-8.7,6.6-10.6,4.7c-1.2-1.2-0.5-2.7,2.9-7.1c0.8-1-0.3-2.5-1.3-2.1c-20.7,8.9-13.4-1.6-11.3-3.1
			c-3.4,0.3-9.4,0.4-9.4-2.6c0-4.7,18.2-9.4,18.5-11c0.3-3.2-12.7-2.5-12.3-7.6c0.3-4.5,21,1,23-1.7c2.2-3.3-6.2-12.4-0.4-14.7
			c1.6-0.6,2.9,2.9,5.7,5.4c2.3,2.1,8.1,3.1,9,8.8C63.5,258.7,93.3,255.2,122.8,236.2L122.8,236.2z"/>
		<path d="M21.3,294.2c-0.7,0-1.3-0.2-1.8-0.8c-2-2-0.2-4.6,2.8-8.4c0.1-0.1,0.1-0.2,0-0.3c-0.1-0.2-0.2-0.3-0.2-0.3
			c-9,3.9-13.9,4.6-15.3,2.2c-0.8-1.5,0.1-3.5,1.2-5.1c-2.7,0.1-5.5-0.2-7-1.5c-0.7-0.6-1-1.4-1-2.2c0-3.4,5.9-6,13.5-9.1
			c1.9-0.8,4.2-1.7,5-2.2c-0.4-0.5-3.1-1.2-4.3-1.5c-3.7-1-8.2-2.2-8-5.9c0-0.6,0.3-1.2,0.8-1.6c1.8-1.5,6.3-1.3,13-0.7
			c3.5,0.3,8.7,0.8,9.5,0.1c0.6-0.9-0.3-3.2-1.1-5.3c-0.7-1.8-1.4-3.7-1.5-5.3c-0.2-2.7,1.4-3.9,2.7-4.4c1.7-0.6,2.9,1,4.2,2.7
			c0.7,0.9,1.5,2,2.6,2.9c0.6,0.5,1.5,1,2.5,1.5c2.4,1.3,5.7,3,6.7,7c12.6,1,43.6,0.7,76.7-20.7c5.5-3.6,9.4-1.8,11.2-0.5
			c4.1,3.1,5.8,10.2,3.9,16.4c-2,6.3-7.1,10.1-14.1,10.5c-9,0.4-18.1,4.6-27.7,9.1c-13.3,6.1-28.4,13.1-47.1,12.1
			c-4.2,3.7-13.4,6.1-17.3,6.1h-0.1c-2,1-3.6,2-5,3C24.3,293.2,22.8,294.3,21.3,294.2L21.3,294.2z M22.1,282.4
			c0.6,0,1.3,0.3,1.7,0.9c0.7,0.9,0.7,2.1,0.1,2.9c-3.2,4.1-3.5,5.2-3,5.8c0.6,0.6,1.6,0,4-1.7c1.5-1,3.3-2.2,5.5-3.2
			c0.1-0.1,0.3-0.1,0.5-0.1c3.4,0.1,13-2.4,16.5-5.9c0.2-0.2,0.5-0.3,0.8-0.3c18.3,1.1,33.3-5.8,46.6-11.9
			c9.8-4.5,19.1-8.8,28.5-9.3c8.4-0.4,11.3-5.9,12.3-9.1c1.7-5.3,0.2-11.6-3.2-14.2c-2.4-1.8-5.5-1.6-8.9,0.5
			c-34.3,22.2-66.5,22.1-78.7,21c-0.5,0-0.8-0.4-0.9-0.8c-0.6-3.6-3.4-5.1-5.8-6.4c-1.1-0.6-2.1-1.1-2.9-1.8c-1.1-1-2-2.2-2.8-3.2
			c-0.6-0.8-1.5-2-1.9-2c-1.1,0.4-1.5,1.1-1.5,2.4c0.1,1.4,0.8,3.1,1.4,4.7c1.1,2.8,2.1,5.4,0.9,7.1c-1.2,1.6-4.9,1.4-11.3,0.8
			c-4.3-0.4-10.2-0.9-11.5,0.2c-0.1,0.1-0.1,0.1-0.1,0.2c-0.1,2,3.4,3,6.5,3.8s6,1.6,5.8,3.9c-0.2,1.1-1.6,1.7-6.3,3.6
			c-4.3,2-12.3,5.2-12.3,7.5c0,0.3,0.1,0.5,0.3,0.8c1,0.9,4.1,1.3,8,0.9c0.5,0,0.9,0.2,1,0.6c0.2,0.4,0,0.9-0.4,1.2
			c-1.1,0.8-3,3.6-2.5,4.5c0,0.1,1.2,1.9,12.8-3.1C21.6,282.5,21.9,282.4,22.1,282.4L22.1,282.4z M122.8,236.2"/>
	</g>
	<g id="left-hand">
		<path class="st0_doll" d="M187.7,236.2c29.5,19,59.3,22.5,78.1,20.8c0.9-5.7,6.7-6.7,9-8.8c2.8-2.5,4.1-6,5.7-5.4
			c5.8,2.3-2.6,11.4-0.4,14.7c2,2.7,22.7-2.8,23,1.7c0.3,5.1-12.7,4.4-12.3,7.6c0.3,1.6,18.5,6.3,18.5,11c0,3.1-6,2.9-9.4,2.6
			c2.1,1.5,9.4,12-11.3,3.1c-1-0.4-2.1,1.1-1.3,2.1c3.4,4.4,4.1,5.9,2.9,7.1c-1.9,1.9-4.9-2-10.6-4.7c-3.5,0.2-13.4-2.3-17.3-6.1
			c-32.1,1.9-53.5-20.1-75.1-21.2C165.9,259.7,171.7,225.9,187.7,236.2L187.7,236.2z"/>
		<path d="M289.2,294.3c-1.4,0-3-1.1-4.7-2.2c-1.4-1-3-2-5-3h-0.1c-3.9,0-13.2-2.4-17.3-6.1c-18.7,1-33.7-6-47.1-12.1
			c-9.7-4.4-18.8-8.6-27.7-9.1c-7-0.4-12.1-4.2-14.1-10.5c-1.9-6.2-0.2-13.2,3.9-16.4c1.8-1.4,5.6-3.1,11.2,0.5l0,0
			c33.1,21.4,64.2,21.7,76.7,20.7c1-4,4.3-5.7,6.7-7c1-0.5,1.9-1,2.5-1.5c1-0.9,1.8-2,2.6-2.9c1.3-1.7,2.5-3.3,4.2-2.7
			c1.3,0.5,2.9,1.7,2.7,4.4c-0.1,1.7-0.8,3.5-1.5,5.3c-0.8,2.1-1.7,4.4-1.1,5.3c0.7,0.7,5.9,0.2,9.4-0.1c6.7-0.6,11.2-0.9,13,0.7
			c0.5,0.4,0.8,1,0.8,1.6c0.3,3.7-4.3,4.9-8,5.9c-1.2,0.3-3.7,1-4.2,1.5c0.8,0.5,3.1,1.4,4.9,2.2c7.7,3.1,13.5,5.7,13.5,9.1
			c0,0.9-0.3,1.6-1,2.2c-1.5,1.3-4.3,1.6-7,1.5c1.1,1.6,2.1,3.6,1.2,5.1c-1.4,2.4-6.2,1.7-15.3-2.2c0,0-0.1,0.1-0.2,0.3
			c0,0.1,0,0.2,0,0.3c3,3.8,4.8,6.4,2.8,8.4C290.5,294,289.8,294.3,289.2,294.3L289.2,294.3z M279.7,287.1c0.2,0,0.3,0,0.4,0.1
			c2.2,1,4,2.3,5.5,3.2c2.4,1.6,3.5,2.2,4,1.7c0.5-0.6,0.3-1.7-3-5.8c-0.7-0.8-0.6-2,0-2.9c0.6-0.8,1.6-1.1,2.5-0.8
			c11.5,5,12.7,3.2,12.8,3.1c0.5-0.8-1.3-3.6-2.5-4.5c-0.4-0.3-0.5-0.7-0.3-1.2c0.2-0.4,0.6-0.7,1-0.6c3.9,0.4,7,0.1,8-0.9
			c0.2-0.2,0.3-0.4,0.3-0.8c0-2.3-8-5.5-12.3-7.2c-4.7-1.9-6-2.5-6.2-3.5c-0.3-2.3,2.7-3.1,5.8-4c3.1-0.8,6.6-1.8,6.5-3.8
			c0-0.1,0-0.1-0.1-0.2c-1.3-1.1-7.2-0.6-11.5-0.2c-6.4,0.6-10,0.8-11.2-0.7c-1.2-1.8-0.2-4.4,0.9-7.2c0.7-1.7,1.3-3.4,1.4-4.7
			s-0.3-2-1.4-2.4c-0.4,0-1.3,1.2-1.9,2c-0.8,1-1.7,2.2-2.8,3.2c-0.8,0.7-1.8,1.3-2.9,1.8c-2.4,1.3-5.2,2.8-5.8,6.4
			c-0.1,0.4-0.4,0.8-0.9,0.8c-12.2,1.1-44.4,1.2-78.7-21c-3.4-2.2-6.5-2.4-8.9-0.6c-3.5,2.6-4.9,8.8-3.2,14.2
			c1,3.2,3.9,8.7,12.3,9.1c9.3,0.5,18.6,4.7,28.5,9.3c13.2,6.1,28.2,13,46.5,11.9c0.3,0,0.5,0.1,0.8,0.3
			C266.7,284.7,276.3,287.2,279.7,287.1L279.7,287.1L279.7,287.1z"/>
	</g>
	<g id="torso">
		<path class="st0_doll" d="M187,275.7c0.9,14,9,39.8,10.6,68.6c-12.2,3.7-30.8,18.4-35.6,25.3c-2.3,0.4-4.7,0.6-7.1,0.6
			c-2.3,0-4.7-0.2-7.1-0.6c-4.8-6.9-23.4-21.7-35.6-25.3c1.7-29,9.8-54.7,10.7-68.7c0.9-12.9-2-38.5-2-38.5s0.6-0.4,1.6-1l0,0
			c0,0,10-6.1,20.5-8.4l0,0v-16.6c0-8.7,23.9-8.7,23.9,0v16.6c10.4,2.3,20.5,8.5,20.5,8.5l0,0c1,0.6,1.6,1,1.6,1
			S186.1,262.7,187,275.7L187,275.7z"/>
		<path d="M155,371.3c-2.4,0-4.9-0.2-7.3-0.6c-0.3,0-0.5-0.2-0.7-0.4c-4.8-6.9-23.1-21.4-35-24.9c-0.4-0.1-0.7-0.6-0.7-1
			c1-17.4,4.3-33.7,7-46.8c1.8-8.8,3.3-16.3,3.7-21.9c0.8-12.7-2-38.1-2-38.3c0-0.4,0.1-0.7,0.4-0.9c0,0,0.5-0.4,1.5-0.9l0.1-0.1
			c0.4-0.3,9.8-6,20.1-8.4v-15.9c0-5.2,6.7-7.5,12.9-7.5s12.9,2.4,12.9,7.5V227c10.2,2.4,19.7,8.1,20.1,8.4c0,0,0.1,0,0.1,0.1
			c1,0.6,1.5,0.9,1.5,0.9c0.3,0.2,0.5,0.6,0.4,0.9c0,0.3-2.8,25.6-2,38.3l0,0c0.4,5.5,1.9,13.1,3.7,21.9c2.7,13.1,6,29.4,7,46.8
			c0,0.5-0.3,0.9-0.7,1c-11.9,3.5-30.3,18-35,24.9c-0.2,0.2-0.4,0.4-0.7,0.4C159.9,371.1,157.4,371.3,155,371.3L155,371.3z
			 M148.4,368.8c2.2,0.3,4.4,0.5,6.6,0.5c2.2,0,4.4-0.2,6.6-0.5c5.2-7.1,23-21.1,35.1-25.1c-1-17-4.3-32.9-6.9-45.8
			c-1.8-8.8-3.3-16.5-3.7-22.1l0,0c-0.8-11.8,1.5-34.1,2-38.1c-0.3-0.2-0.6-0.4-1-0.6L187,237c-1.1-0.6-10.5-6.2-20.1-8.3
			c-0.5-0.1-0.8-0.5-0.8-1v-16.6c0-3.6-5.5-5.5-10.9-5.5s-10.9,1.9-10.9,5.5v16.6c0,0.5-0.4,0.9-0.9,1c-9.6,2.1-19,7.6-20.1,8.3
			l-0.1,0.1c-0.4,0.3-0.8,0.5-1,0.6c0.4,4,2.7,26.3,2,38.1c-0.4,5.7-1.9,13.3-3.7,22.2c-2.6,12.9-5.9,28.8-6.9,45.8
			C125.4,347.7,143.2,361.7,148.4,368.8L148.4,368.8z"/>
	</g>
</g>
<g id="head">
	<path class="st1_doll" d="M155.4,207c-98.4,0-143.6-37-135-75.8c3.8-17.6,10-21.6,17.4-37.6C50.7,66,61.3,1,155.4,1S260.1,66,273,93.6
		c7.4,16,13.5,20,17.4,37.6C298.9,170,253.8,207,155.4,207L155.4,207z"/>
	<path d="M155.4,208C95.1,208,49,193.7,28.9,168.6c-9.1-11.3-12.4-24.4-9.5-37.6c2.5-11.4,6-17.3,10.1-24.1c2.2-3.8,4.8-8,7.4-13.7
		c1.7-3.6,3.4-8.1,5.2-12.7c6.1-15.9,13.7-35.7,30.3-51.9C92,9.4,119.1,0,155.4,0s63.4,9.4,83,28.6c16.5,16.2,24.2,36,30.3,51.9
		c1.8,4.7,3.5,9.1,5.2,12.7c2.7,5.7,5.2,10,7.4,13.7c4,6.8,7.5,12.6,10.1,24.1c2.9,13.3-0.3,26.3-9.5,37.6
		C261.8,193.7,215.7,208,155.4,208L155.4,208z M155.4,2C74.5,2,56.1,49.7,44,81.2c-1.8,4.7-3.5,9.1-5.2,12.8
		c-2.7,5.8-5.3,10.1-7.5,13.9c-4.1,6.9-7.4,12.4-9.8,23.5c-2.8,12.7,0.3,25.1,9.1,36C50.2,191.9,95.7,206,155.4,206
		s105.2-14.1,124.9-38.6c8.7-10.9,11.9-23.3,9.1-36c-2.4-11.1-5.7-16.6-9.8-23.5c-2.3-3.8-4.8-8.1-7.5-13.9
		c-1.7-3.7-3.4-8.1-5.2-12.8C254.6,49.7,236.3,2,155.4,2L155.4,2z"/>
	<g id="ear-left">
		<path class="st0_doll" d="M64.4,150.4c0,8-7.4,14.5-15.4,14.5s-14.5-6.5-14.5-14.5S41,135.9,49,135.9S64.4,142.4,64.4,150.4z"/>
		<path class="st2_doll" d="M59.4,150.4c0,4-3.7,7.2-7.7,7.2s-7.2-3.2-7.2-7.2s3.2-7.2,7.2-7.2S59.4,146.4,59.4,150.4z"/>
		<path d="M49,165.9c-8.5,0-15.5-7-15.5-15.5s7-15.5,15.5-15.5s16.4,7.2,16.4,15.5S57.7,165.9,49,165.9z M49,136.9
			c-7.4,0-13.5,6-13.5,13.5s6,13.5,13.5,13.5s14.4-6.3,14.4-13.5S56.7,136.9,49,136.9z M51.7,158.6c-4.5,0-8.2-3.7-8.2-8.2
			s3.7-8.2,8.2-8.2s8.7,3.8,8.7,8.2S56.4,158.6,51.7,158.6z M51.7,144.2c-3.4,0-6.2,2.8-6.2,6.2s2.8,6.2,6.2,6.2s6.7-2.9,6.7-6.2
			S55.3,144.2,51.7,144.2z"/>
	</g>
	<g id="ear-right">
		<path class="st0_doll" d="M260.1,135.9c8,0,14.5,6.5,14.5,14.5s-6.5,14.5-14.5,14.5c-8,0-15.4-6.5-15.4-14.5S252.1,135.9,260.1,135.9z"
			/>
		<path class="st2_doll" d="M257.4,143.2c4,0,7.2,3.2,7.2,7.2s-3.2,7.2-7.2,7.2s-7.7-3.2-7.7-7.2S253.4,143.2,257.4,143.2z"/>
		<path d="M260.1,165.9c-8.7,0-16.4-7.2-16.4-15.5s7.7-15.5,16.4-15.5c8.8,0,15.5,7,15.5,15.5S268.7,165.9,260.1,165.9z
			 M260.1,136.9c-7.7,0-14.4,6.3-14.4,13.5s6.7,13.5,14.4,13.5c7.7,0,13.5-6,13.5-13.5S267.6,136.9,260.1,136.9z M257.4,158.6
			c-4.7,0-8.7-3.8-8.7-8.2s4-8.2,8.7-8.2c4.7,0,8.2,3.7,8.2,8.2S261.9,158.6,257.4,158.6z M257.4,144.2c-3.6,0-6.7,2.9-6.7,6.2
			s3.1,6.2,6.7,6.2c3.6,0,6.2-2.8,6.2-6.2S260.8,144.2,257.4,144.2z"/>
	</g>
	<g id="face">
		<path class="st0_doll" d="M254,143.3c0,51.4-44,74-98.4,74s-98.4-22.5-98.4-74s44-76.8,98.4-76.8S254,91.8,254,143.3z"/>
		<path d="M155.6,218.3c-62.2,0-99.4-28-99.4-75c0-24.6,10.1-44.8,29.2-58.5c17.6-12.6,41.9-19.3,70.1-19.3s52.5,6.7,70.1,19.3
			c19.1,13.7,29.2,34,29.2,58.5C255,190.2,217.8,218.3,155.6,218.3z M155.6,67.5c-47.1,0-97.4,19.9-97.4,75.8
			c0,45.7,36.4,73,97.4,73s97.4-27.3,97.4-73C253,87.4,202.7,67.5,155.6,67.5z"/>
	</g>
	<g>
		<path class="st1_doll" d="M149.4,54.4c12.1-24.7,55.6-20.1,82.8,4.4c34.6,31.2,35,82.9,21.7,89.5c-11.3,0-23.7-13.7-47.5-42.6
			C183.2,77.5,142.9,67.8,149.4,54.4L149.4,54.4z"/>
		<path d="M253.9,149.4c-11.6,0-23.6-13.1-48.3-43c-10.8-13.1-25.4-22.3-37.1-29.6c-13.8-8.7-23.8-14.9-20-22.8l0,0
			c4.1-8.4,12-14,22.7-16.1c19.3-3.7,44.1,4.4,61.6,20.2c24.4,22.1,32.5,54.4,29.6,75.1c-1.1,8.3-4,14-8.1,16
			C254.2,149.4,254,149.4,253.9,149.4L253.9,149.4z M181.1,39c-3.3,0-6.4,0.3-9.4,0.9c-10.1,1.9-17.5,7.1-21.3,15l0,0
			c-3.1,6.3,6.3,12.1,19.2,20.3c11.9,7.4,26.6,16.6,37.6,30c23.5,28.5,35.8,42.1,46.5,42.3c3.3-1.8,5.8-7,6.8-14.4
			c2.9-20.8-6.1-52.7-29-73.4C217.2,46.7,198,39,181.1,39L181.1,39z M149.4,54.4"/>
	</g>
	<g>
		<path class="st1_doll" d="M161.8,54.4c6.5,13.4-33.8,23.1-57,51.3c-23.8,28.9-36.2,42.6-47.5,42.6c-13.2-6.5-12.8-58.2,21.8-89.4
			C106.2,34.3,149.8,29.7,161.8,54.4L161.8,54.4z"/>
		<path d="M57.4,149.4c-0.2,0-0.3,0-0.4-0.1c-4.1-2-7-7.7-8.2-16c-2.9-20.7,5.2-53,29.6-75.1c17.5-15.8,42.3-24,61.6-20.2
			c10.7,2.1,18.6,7.6,22.7,16.1l0,0c3.9,7.9-6.1,14.2-20,22.8c-11.7,7.3-26.3,16.5-37.1,29.6C81.1,136.3,69.1,149.4,57.4,149.4
			L57.4,149.4z M130.2,39c-16.9,0-36.1,7.7-50.5,20.6c-22.8,20.6-31.8,52.5-29,73.4c1,7.4,3.5,12.6,6.8,14.4
			c10.7-0.2,23-13.8,46.5-42.3c11-13.4,25.8-22.6,37.6-30c12.9-8.1,22.3-14,19.2-20.3l0,0c-3.8-7.9-11.2-13-21.3-15
			C136.6,39.3,133.5,39,130.2,39L130.2,39z"/>
	</g>
	<path id="nose" d="M145.4,177.2c4.7,2.9,10.3,3.9,15.5,2.1c1.7-0.6,3.4-1.4,5-2.5c0.9-0.6,2,0.5,1.4,1.4c-4.9,7.8-18,8.3-23.3,0.5
		C143.4,177.8,144.5,176.6,145.4,177.2L145.4,177.2L145.4,177.2z"/>
	<path id="brows-left" d="M105.3,121.7c3-0.8,5.6-0.4,5.9,0.7c0.3,1.2-1.9,2.7-4.8,3.5s-5.6,0.4-5.9-0.7
		C100.2,124,102.4,122.5,105.3,121.7z"/>
	<path id="brows-right" d="M200,122.4c0.3-1.2,2.9-1.5,5.9-0.7s5.1,2.3,4.8,3.5s-2.9,1.5-5.9,0.7C201.8,125.2,199.7,123.6,200,122.4
		z"/>
	<g>
		<path class="st1_doll" d="M156.1,54.4c40.4,0,69,32.8,54.6,45.9c-7.7,7-24,1.8-31.4-5.9c17.1,34.1-18.4,44.8-23.9,10.4
			c-17.9,36.6-41.2,16.3-26.5-5.7c-1.4,3.1-29.1,13.9-32,0C93.6,82.9,124.4,54.4,156.1,54.4L156.1,54.4z"/>
		<path d="M172.4,126.9c-1.1,0-2.1-0.1-3.2-0.4c-6.7-1.8-11.9-8.7-14.2-18.6c-6.1,11.4-13.6,18-20.6,18.1c-3.9,0.1-7.4-1.9-9.4-5.6
			c-2.1-3.9-2.8-10.4,0.8-17.9c-5.1,2.6-13.8,5.1-20.4,4.4c-5.3-0.6-8.6-3.2-9.5-7.6c-1.2-5.6,1.5-12.8,7.5-20.1
			c10.1-12.4,30.9-25.7,52.7-25.7c28.3,0,52.1,16.4,58,31.6c2.5,6.4,1.6,12.1-2.7,16c-7.2,6.6-20.9,3.1-29.3-3
			c4,10,3.8,18.9-0.7,24.4C179.2,125.3,175.9,126.9,172.4,126.9L172.4,126.9z M155.5,103.8h0.1c0.4,0.1,0.8,0.4,0.8,0.8
			c1.7,10.7,6.7,18.1,13.3,19.9c3.9,1,7.7-0.2,10.2-3.3c4.6-5.6,4-15.5-1.4-26.4c-0.2-0.4-0.1-1,0.3-1.3c0.4-0.3,1-0.2,1.3,0.1
			c7.5,7.8,23.1,12.1,30,5.9c4.6-4.2,3.7-9.8,2.2-13.8c-5.7-14.6-28.7-30.3-56.1-30.3c-21.1,0-41.3,13-51.1,25
			C99.6,87.2,97,93.9,98,98.8c0.7,3.4,3.1,5.3,7.2,5.9c8.8,1.3,21.2-4.2,22.8-6c0.1-0.1,0.1-0.2,0.2-0.3c0.3-0.4,0.9-0.6,1.3-0.3
			s0.6,0.8,0.4,1.3c-0.1,0.1-0.1,0.3-0.3,0.4c-5.4,8.3-5,15.5-2.8,19.5c1.6,2.9,4.4,4.6,7.6,4.5c3.2-0.1,11.6-2.1,20.2-19.6
			C154.8,104,155.1,103.7,155.5,103.8L155.5,103.8z"/>
	</g>
	<g id="mouth">
		<path d="M155,208c-7,0-12.4-3.7-12.4-8.4s5.7-10.5,12.4-10.5s12.4,5.8,12.4,10.5S162,208,155,208z"/>
		<path class="st3_doll" d="M144.6,198.8c0.6-3.3,4.9-7.7,10.4-7.7c5.3,0,9.4,3.9,10.3,7.2C158.6,200.1,151.2,200.3,144.6,198.8z"/>
		<path class="st3_doll" d="M165.4,200.3c-0.6,3.2-5.1,5.7-10.4,5.7c-4.9,0-9.2-2.3-10.2-5.1c2.9,0.6,5.9,0.9,9,0.9
			C157.7,201.8,161.6,201.3,165.4,200.3z"/>
		<path d="M153.8,201.8c-7.4,0-14.7-1.8-20.1-5.3c-0.5-0.3-0.6-0.9-0.3-1.4s0.9-0.6,1.4-0.3c10.8,7,29,6.6,40.5-0.9
			c0.5-0.3,1.1-0.2,1.4,0.3c0.3,0.5,0.2,1.1-0.3,1.4C170,199.7,161.8,201.8,153.8,201.8L153.8,201.8z"/>
	</g>
	<g id="open-eyes">
		<g id="eyes-left">
			<path d="M125.6,169.4c-1.7,4.7-5,8.3-9.4,10.1c-2,0.8-4.1,1.2-6.2,1.2l0,0c-6.4,0-12.7-3.7-16.3-9.8c-1.3-1.7-2.4-3.5-3.2-5.5
				c-1.8-4.2-2.1-8.7-1.3-12.7c-1.8-1-4.4-2.5-4.5-2.6c-1-0.6-0.4-2.1,0.7-1.9l4.8,1c0.3-0.8,0.8-1.7,1.3-2.5l-3.2-4
				c-0.8-0.9,0.4-2.1,1.3-1.5l0,0l4.1,2.6c0.7-0.8,1.6-1.5,2.5-2.1c-0.8-1.7-1.7-3.7-1.8-3.8c-0.5-1,0.8-2,1.6-1.2l0,0l3.3,3.4
				c7-2.6,14.8,0.2,19.8,6.4c2.5,2.1,4.5,4.8,5.8,8C126.9,159.3,127,164.6,125.6,169.4z"/>
			<path class="st4_doll" d="M115.3,177.5c-8,3.3-17.5-1.3-21.3-10.3c-1.8-4.4-2-9.1-0.5-13.3s4.4-7.4,8.3-9c1.7-0.7,3.6-1.1,5.4-1.1l0,0
				c2.3,0,4.5,0.5,6.7,1.6c4,1.9,7.3,5.4,9.1,9.8c1.8,4.4,2,9.1,0.5,13.3C122,172.8,119.1,175.9,115.3,177.5z"/>
			<g id="pupil">
				<path class="st5_doll" d="M110.5,149.8c7.1,0,12.8,6.1,12.8,13.6s-5.7,13.7-12.8,13.7c-7.1,0-12.8-6.1-12.8-13.7
					C97.7,155.9,103.4,149.8,110.5,149.8z"/>
				<path class="st6_doll" d="M119.7,166.8c0.6,2.5-2,7-6.2,7.9s-8.4-2-9-4.5s2.8-3.4,7-4.4C115.7,164.9,119.2,164.4,119.7,166.8
					L119.7,166.8z"/>
				<path class="st4_doll" d="M104.5,157.8c1.5,0,2.8,1.2,2.8,2.8s-1.2,2.8-2.8,2.8s-2.8-1.2-2.8-2.8S103,157.8,104.5,157.8z"/>
			</g>
		</g>
		<g id="eyes-right">
			<path d="M185.1,169.2c1.7,4.7,5,8.3,9.4,10.1c2,0.8,4.1,1.2,6.2,1.2l0,0c6.4,0,12.7-3.7,16.3-9.8c1.3-1.6,2.4-3.4,3.2-5.5
				c1.8-4.3,2.1-8.7,1.3-12.7c1.7-1,4.3-2.6,4.5-2.6c1-0.6,0.4-2.1-0.7-1.9l-4.8,1c-0.4-0.9-0.8-1.7-1.3-2.5l3.2-4
				c0.7-0.9-0.4-2.1-1.3-1.5l0,0l-4.1,2.6c-0.8-0.8-1.6-1.5-2.5-2.1c0.8-1.7,1.8-3.7,1.8-3.8c0.5-1-0.9-2-1.6-1.2l0,0l-3.3,3.4
				c-6.9-2.5-14.8,0.2-19.8,6.4c-2.5,2.1-4.4,4.8-5.8,8C183.7,159.3,183.5,164.6,185.1,169.2z"/>
			<path class="st4_doll" d="M187,168.6c-1.5-4.2-1.3-8.9,0.5-13.3c1.8-4.4,5-7.8,9.1-9.8c2.2-1,4.5-1.6,6.7-1.6l0,0
				c1.9,0,3.7,0.4,5.4,1.1c3.9,1.6,6.8,4.8,8.3,9s1.3,9-0.5,13.3c-3.7,9-13.3,13.6-21.3,10.3C191.4,175.9,188.5,172.8,187,168.6z"/>
			<g id="pupil_1_">
				<path class="st5_doll" d="M212.8,163.4c0,7.5-5.7,13.7-12.8,13.6c-7.1,0-12.8-6.1-12.8-13.6s5.7-13.6,12.8-13.6
					S212.8,155.9,212.8,163.4z"/>
				<path class="st6_doll" d="M190.8,166.8c0.6-2.5,4-1.9,8.2-1s7.5,1.9,7,4.4c-0.6,2.5-4.8,5.4-9,4.5S190.3,169.3,190.8,166.8
					L190.8,166.8z"/>
				<path class="st4_doll" d="M208.8,160.6c0,1.5-1.2,2.8-2.8,2.8s-2.8-1.2-2.8-2.8s1.2-2.8,2.8-2.8S208.8,159.1,208.8,160.6z"/>
			</g>
		</g>
	</g>
	<g id="closed-eyes">
		<g id="eyes-left_1_">
			<path d="M84.9,168.6c0.1-0.1,2.7-1.6,4.5-2.6c-0.8-4-0.5-8.5,1.3-12.8c4.2-10.2,14.8-15.4,23.7-11.7s12.6,14.9,8.4,25
				c-4.1,9.9-14.3,15.1-23,12l-3.3,3.4l0,0c-0.8,0.8-2.1-0.1-1.6-1.2l1.8-3.8c-0.9-0.6-1.8-1.3-2.6-2.1l-4.1,2.6l0,0
				c-0.9,0.6-2.1-0.6-1.3-1.5l3.2-4c-0.5-0.8-1-1.6-1.3-2.5l-4.9,1C84.6,170.7,84,169.1,84.9,168.6z"/>
			<path class="st7_doll" d="M92.5,147.2c4.1-10,14.8-15.1,23.9-11.3c9,3.7,13,14.9,8.9,24.9c-3.2,7.8-10.4,12.6-17.7,12.6
				c-2.1,0-4.2-0.4-6.2-1.2c-4.4-1.8-7.7-5.4-9.4-10.1C90.4,157.3,90.5,152.1,92.5,147.2z"/>
		</g>
		<g id="eyes-right_1_">
			<path d="M225.6,170.4l-4.9-1c-0.4,0.9-0.8,1.7-1.3,2.5l3.2,4c0.7,0.9-0.4,2.1-1.3,1.5l0,0l-4.1-2.6c-0.8,0.8-1.6,1.5-2.6,2.1
				l1.8,3.8c0.5,1-0.9,2-1.6,1.2l0,0l-3.3-3.4c-8.7,3.2-18.9-2-23-12c-4.2-10.2-0.4-21.4,8.4-25c8.9-3.7,19.5,1.6,23.7,11.7
				c1.8,4.3,2.1,8.8,1.3,12.8c1.7,1,4.4,2.6,4.5,2.6C227.3,169.1,226.7,170.7,225.6,170.4z"/>
			<path class="st7_doll" d="M219.3,162c-1.7,4.7-5,8.3-9.4,10.1c-2,0.8-4.1,1.2-6.2,1.2c-7.3,0-14.5-4.8-17.7-12.6
				c-4.1-10-0.2-21.2,8.9-24.9c9-3.7,19.7,1.4,23.9,11.3C220.8,152.1,220.9,157.3,219.3,162z"/>
		</g>
	</g>
</g>
<g id="underpants_1_">
	<path class="st4_doll" d="M154.9,320.5c14.2,0,28.6-2,38.1-5.2c1.6,8.8,2.9,18.5,3.5,28.4c-12.1,4-29.9,18-35.1,25.1
		c-2.2,0.3-4.4,0.5-6.6,0.5c-2.1,0-4.3-0.2-6.6-0.5c-5.2-7.1-23-21.1-35.1-25.1c0.6-10,2-19.6,3.5-28.4
		C126.3,318.5,140.7,320.5,154.9,320.5z"/>
	<path d="M154.9,369.2c-2.1,0-4.3-0.2-6.6-0.5c-5.2-7.1-23-21.1-35.1-25.1c0.6-10,2-19.6,3.5-28.4c9.5,3.2,23.9,5.2,38.1,5.2
		s28.6-2,38.1-5.2c1.6,8.8,2.9,18.5,3.5,28.4c-12.1,4-29.9,18-35.1,25.1C159.2,369,157,369.2,154.9,369.2z M115.2,312.7
		c-1.8,9.7-3.4,20.4-4,31.6c0,0.5,0.3,0.9,0.7,1c11.9,3.5,30.3,18,35,24.9c0.2,0.2,0.4,0.4,0.7,0.4c2.1,0.4,5.1,0.7,6.9,0.7h0.8
		c2.6,0.1,4.8-0.3,6.9-0.7c0.3,0,0.5-0.2,0.7-0.4c4.8-6.9,23.1-21.4,35-24.9c0.4-0.1,0.7-0.6,0.7-1c-0.6-11.2-2.2-21.9-4-31.7
		l-1.9,0.6c-9.3,3.2-23.6,5.2-37.8,5.2c-14.1,0-28.5-2-37.8-5.2L115.2,312.7z"/>
</g>
<g id="singlet_1_">
	<path class="st4_doll" d="M154.9,318.5c-14.1,0-28.5-2-37.8-5.2c1-5.5,2-10.6,3-15.4c1.8-8.8,3.3-16.5,3.7-22.1
		c0.8-11.8-1.5-34.1-1.9-38.1c0.6-0.4,1.7-1.1,3.2-1.9c0.7,4.9,2.1,12.6,3.4,19.3c0.4,2.4,0.9,4.7,1.2,6.6c0.1,0.5,0.6,0.9,1.1,0.8
		c8-1.2,20.7-1.5,23.9-1.5h0.3c3.2,0,15.9,0.3,23.9,1.5c0.5,0.1,1-0.3,1.1-0.8c0.4-2,0.8-4.2,1.2-6.6c1.2-6.8,2.6-14.4,3.4-19.3
		c1.5,0.8,2.6,1.5,3.2,1.9c-0.4,4-2.7,26.3-1.9,38.1c0.4,5.7,1.9,13.3,3.7,22.1c1,4.7,2,9.9,3,15.4
		C183.4,316.5,169,318.5,154.9,318.5z"/>
	<path d="M116.8,315.2c9.5,3.2,23.9,5.2,38.1,5.2s28.6-2,38.1-5.2l1.9-0.7c-1.1-6.1-2.2-11.8-3.3-17.1c-1.8-8.8-3.3-16.3-3.7-21.9
		c-0.8-12.7,2-38.1,2-38.3c0-0.4-0.1-0.7-0.4-0.9c-0.1-0.1-2-1.3-5.2-3c-0.3-0.2-0.6-0.2-0.9,0c-0.3,0.1-0.5,0.4-0.5,0.8
		c-0.7,4.8-2.2,13.2-3.6,20.7c-0.4,2-0.7,4-1,5.7c-7.9-1.1-19.4-1.4-22.9-1.4c-0.1,0-0.9,0-0.9,0c-3.5,0-15,0.3-22.9,1.4
		c-0.3-1.7-0.7-3.7-1-5.7c-1.4-7.5-2.9-15.9-3.6-20.7c0-0.3-0.2-0.6-0.5-0.8c-0.3-0.1-0.6-0.1-0.9,0c-3.2,1.7-5.1,3-5.2,3
		c-0.3,0.2-0.5,0.6-0.4,0.9c0,0.3,2.8,25.6,2,38.3c-0.4,5.5-1.9,13.1-3.7,21.9c-1.1,5.3-2.2,11-3.3,17.2L116.8,315.2z M120.1,297.9
		c1.8-8.8,3.3-16.5,3.7-22.1c0.8-11.8-1.5-34.1-1.9-38.1c0.6-0.4,1.7-1.1,3.2-1.9c0.7,4.9,2.1,12.6,3.4,19.3
		c0.4,2.4,0.9,4.7,1.2,6.6c0.1,0.5,0.6,0.9,1.1,0.8c8-1.2,20.7-1.5,23.9-1.5h0.3c3.2,0,15.9,0.3,23.9,1.5c0.5,0.1,1-0.3,1.1-0.8
		c0.4-2,0.8-4.2,1.2-6.6c1.2-6.8,2.6-14.4,3.4-19.3c1.5,0.8,2.6,1.5,3.2,1.9c-0.4,4-2.7,26.3-1.9,38.1c0.4,5.7,1.9,13.3,3.7,22.1
		c1,4.7,2,9.9,3,15.4c-9.3,3.2-23.6,5.2-37.8,5.2c-14.1,0-28.5-2-37.8-5.2C118.1,307.8,119.2,302.6,120.1,297.9z"/>
</g>
<g id="dress">
	<path class="st8_doll" d="M98,318.5l17.8-84.1c0,0,12-6.7,27.4-7.6c0,6.1,9.8,6.8,11.9,6.8c2.1-0.1,11.9-0.7,11.9-6.8
		c15.4,0.9,27.4,7.6,27.4,7.6l17.8,84.1l0,0c11.1,3.9,22.7,13.6,28.7,24.9c-14,23.2-58.3,32.2-85.8,32.2s-71.8-9-85.8-32.2
		C75.2,332.1,86.9,322.3,98,318.5L98,318.5z"/>
	<path d="M241.9,342.9c-5.8-10.9-17.2-21-28.7-25.1l-17.7-83.6c-0.1-0.3-0.2-0.5-0.5-0.7c-0.5-0.3-12.4-6.9-27.9-7.8
		c-0.3,0-0.5,0.1-0.7,0.3s-0.3,0.5-0.3,0.7c0,5.2-8.9,5.8-10.9,5.8c-2-0.1-10.9-0.7-10.9-5.8c0-0.3-0.1-0.5-0.3-0.7
		s-0.5-0.3-0.7-0.3c-15.5,0.9-27.4,7.5-27.9,7.8c-0.3,0.1-0.4,0.4-0.5,0.7l-17.7,83.6C85.7,322,74.3,332,68.5,342.9
		c-0.2,0.3-0.2,0.7,0,1c14.4,24,59.8,32.7,86.7,32.7s72.2-8.7,86.7-32.7C242,343.5,242,343.2,241.9,342.9z M116.6,235
		c2.1-1.1,12.6-6.3,25.7-7.2c0.9,5.6,9.2,6.6,12.2,6.8c0.1,0,0.2,0,0.3,0h0.8c0.1,0,0.2,0,0.3,0c3-0.2,11.3-1.2,12.2-6.8
		c13,1,23.5,6.1,25.7,7.2l17.6,83c-3,2.1-19.9,12.6-56.1,12.6c-36.1-0.1-53.1-10.6-56.1-12.6L116.6,235z M155.2,374.5
		c-26.3,0-70.3-8.3-84.7-31.2c5.6-10.3,16.4-19.7,27.3-23.7v-0.1c2.8,2,19.6,13,56.9,13.1c0,0,0,0,0.1,0c0.3,0,0.5,0,0.8,0
		c0,0,0,0,0.1,0c37.4-0.2,54.1-11.1,56.9-13.1v0.1c10.8,4,21.7,13.4,27.3,23.7C225.5,366.2,181.4,374.5,155.2,374.5z"/>
</g>
<g id="sandals">
	<g id="sandals-right">
		<path class="st9_doll" d="M230.8,477.5c-2,3.7-7.4,4.5-13.5,4c0.1,0,0.1,0.1,0.2,0.1c-0.3-0.1-0.7-0.1-1.1-0.2c-1-0.1-2-0.2-3-0.4
			c-12.2-1-33.2,2.1-42.1-3.3c-0.3-1.4-0.3-3.2-0.2-4.7c-0.1-0.1-0.2-0.2-0.3-0.3c-2.5-3,0.4-10.4,3.1-18.7
			c2.4,3.1,8.3,5.7,14.8,6.9c6.2-5.3,13.6-13.9,14.6-16.8c2.2,0.8,3.9,2.8,4.5,3.9c-0.3,3.4-6.2,9.1-12,13.6
			c7.7,0,14.7-2.5,15.8-9.1C229.3,460,233.5,472.4,230.8,477.5z"/>
		<path d="M231.7,469.4c-2.5-7.1-9.7-13.5-19.6-17.7c-0.3-0.1-0.6-0.1-0.9,0c-0.3,0.1-0.5,0.4-0.5,0.7c-0.8,4.7-5,6.7-8.3,7.6
			c-1.1,0.3-2.3,0.5-3.5,0.6c5-4.1,9.7-9,10-12.4c0-0.2,0-0.4-0.2-0.6c-0.9-1.4-2.8-3.4-5-4.3c-0.3-0.1-0.5-0.1-0.8,0
			c-0.2,0.1-0.4,0.3-0.5,0.6c-0.9,2.6-7.9,10.8-14,16.1c-6.1-1.2-11.5-3.7-13.7-6.4c-0.2-0.3-0.6-0.4-1-0.4
			c-0.4,0.1-0.7,0.3-0.8,0.7l-0.8,2.3c-2.6,7.6-4.8,14.2-2.2,17.3l0,0c-0.1,1.6,0,3.3,0.2,4.5c0,0.3,0.2,0.5,0.5,0.7
			c6.2,3.7,17.6,3.5,28.6,3.3c5-0.1,9.8-0.2,13.7,0.1c1,0.2,6.4,0.6,7.2,0.6c5.1,0,9.5-1.2,11.3-4.7
			C232.8,475.8,232.8,472.6,231.7,469.4z M203.9,445.5c1.3,0.8,2.4,1.9,3,2.8c-0.6,2.9-5.7,8-11.3,12.4c-1.5,0-3-0.1-4.5-0.3
			C196.3,455.5,202,448.9,203.9,445.5z M199.4,479.9c-10,0.2-21.3,0.4-27.2-2.8c-0.1-0.8-0.2-1.6-0.2-2.5c2.9,1.2,8.1,1.8,15.2,2.5
			c3.8,0.4,7.5,0.8,9.8,1.3c0.8,0.2,1.9,0.5,3.1,0.8c0.8,0.2,1.6,0.4,2.4,0.6C201.5,479.8,200.5,479.9,199.4,479.9z M176.2,468
			L176.2,468 M211.4,479.7c-4-0.7-8-1.7-10.8-2.4c-1.3-0.3-2.3-0.6-3.2-0.8c-2.4-0.5-6.1-0.9-10-1.3c-5.6-0.6-13.7-1.5-15.3-2.7
			s-1.3-2.8-1.3-2.8c-0.1-3.1,1.6-7.9,3.3-13l0.2-0.7c2.7,2.4,7.2,4.4,12.1,5.5l2.5,0.5c1.3,0.2,2.6,0.4,4,0.5l3.2,0.1
			c2.3,0,4.6-0.3,6.6-0.8c5.1-1.3,8.4-4,9.5-7.9c12.5,5.6,16.3,13.1,17.4,16.1c1,2.8,1,5.3,0.1,7c-1.7,3.2-6.7,3.9-12.3,3.5
			L211.4,479.7z"/>
	</g>
	<g id="sandals-left_1_">
		<path class="st9_doll" d="M98.8,452.5c1.1,6.6,8.1,9.1,15.8,9.1c-5.8-4.5-11.7-10.2-12-13.6c0.7-1,2.3-3,4.5-3.9
			c1,2.9,8.4,11.5,14.6,16.8c6.5-1.2,12.4-3.8,14.8-6.9c2.7,8.2,5.6,15.7,3.1,18.7c-0.1,0.1-0.2,0.2-0.3,0.3
			c0.1,1.5,0.1,3.3-0.2,4.7c-8.9,5.3-29.8,2.2-42.1,3.3c-1,0.2-2,0.3-3,0.4c-0.4,0.1-0.7,0.1-1.1,0.2c0,0,0.1-0.1,0.2-0.1
			c-6.1,0.5-11.5-0.2-13.5-4C77,472.4,81.1,460,98.8,452.5z"/>
		<path d="M78.8,477.9c1.8,3.5,6.2,4.7,11.3,4.7c0.8,0,6.2-0.5,7.2-0.6c3.9-0.3,8.7-0.2,13.7-0.1c11,0.2,22.4,0.5,28.6-3.3
			c0.2-0.1,0.4-0.4,0.5-0.7c0.2-1.2,0.3-3,0.2-4.5l0,0c2.6-3.1,0.4-9.7-2.2-17.3l-0.8-2.3c-0.1-0.4-0.4-0.6-0.8-0.7
			c-0.4-0.1-0.7,0.1-1,0.4c-2.1,2.8-7.6,5.3-13.7,6.4c-6-5.3-13.1-13.5-14-16.1c-0.1-0.3-0.3-0.5-0.5-0.6s-0.5-0.1-0.8,0
			c-2.2,0.8-4.1,2.8-5,4.3c-0.1,0.2-0.2,0.4-0.2,0.6c0.3,3.4,5,8.3,10,12.4c-1.2-0.1-2.4-0.3-3.5-0.6c-3.4-0.8-7.5-2.8-8.3-7.6
			c0-0.3-0.2-0.6-0.5-0.7s-0.6-0.2-0.9,0c-9.9,4.2-17.1,10.7-19.6,17.7C77.6,472.6,77.6,475.8,78.8,477.9z M119.4,460.4
			c-1.5,0.2-3,0.3-4.5,0.3c-5.7-4.4-10.7-9.5-11.3-12.4c0.6-0.8,1.7-2,3-2.8C108.4,448.9,114.2,455.5,119.4,460.4z M107.9,479.8
			c0.9-0.2,1.7-0.4,2.4-0.6c1.2-0.3,2.3-0.6,3.1-0.8c2.3-0.5,5.9-0.9,9.8-1.3c7-0.7,12.3-1.3,15.2-2.5c0,0.8,0,1.7-0.2,2.5
			c-5.9,3.2-17.2,3-27.2,2.8C110,479.9,108.9,479.8,107.9,479.8z M134.3,468L134.3,468 M92.8,480.5c-5.6,0.4-10.5-0.2-12.3-3.5
			c-0.9-1.7-0.8-4.2,0.1-7c1.1-3,4.9-10.5,17.4-16.1c1.1,3.9,4.4,6.7,9.5,7.9c2,0.5,4.3,0.7,6.6,0.8l3.2-0.1c1.3-0.1,2.7-0.3,4-0.5
			l2.5-0.5c5-1.1,9.5-3.1,12.1-5.5l0.2,0.7c1.7,5.1,3.4,9.9,3.3,13c0,0,0.3,1.7-1.3,2.8s-9.7,2.1-15.3,2.7c-3.9,0.4-7.6,0.8-10,1.3
			c-0.8,0.2-1.9,0.5-3.2,0.8c-2.9,0.7-6.8,1.7-10.8,2.4L92.8,480.5z"/>
	</g>
</g>
<g id="bow">
	<path class="st3_doll" d="M235.3,29.8c-1.5,11.1-1.6,22.2-0.3,33.3c0.8,6.7-0.5,13.3-4.3,19c-9.5,14.4-24.8,12.2-41.8,1
		c-3.3-2.1-9-6.9-14.6-12.6c-1.5,0.6-3.2,0.8-4.9,0.4c-13.6-3-10.8-3-24.4-0.1c-2.2,0.5-4.3,0-6-1.1c-5.8,5.8-11.9,10.6-15.2,12.7
		C106.6,93.3,91.2,95.2,82,80.6c-3.6-5.7-4.8-12.4-3.9-19c1.5-11.1,1.7-22.2,0.3-33.3c-0.8-6.7,0.5-13.3,4.3-19
		c9.5-14.4,25.9-7.8,42.9,3.4c3.1,2,8,6.3,13,11.2c1.7-1.4,4-2.1,6.3-1.8c14,2,11.6,2,25.6,0.3c1.9-0.2,3.8,0.2,5.3,1.2
		c4.8-4.6,9.6-8.4,12.5-10.3c17.2-10.9,33.7-17.2,43-2.6C235,16.4,236.2,23.1,235.3,29.8z"/>
	<path class="st10_doll" d="M136,66.6c-6.2,6.2-20.8,15.4-30.6,17.4c-13,2.6-20.2-7.2-21-11.3c-0.8-4.1,4.5-8.7,17.5-11.4
		c9.7-2,24.9-3,32.5-1.7c0.2,1.5,0.5,3,0.7,4.5C135.3,65,135.6,65.8,136,66.6z M211.6,62.3c-9.2-2.1-23.6-3.3-31.5-2.4
		c-0.1,1.3-0.3,2.6-0.5,4c-0.2,1.5-0.8,2.9-1.7,4c6,6.4,18.7,15.5,28.1,17.6c13,2.9,22-7.3,22.9-11.4
		C229.8,69.9,224.5,65.2,211.6,62.3z"/>
	<path d="M232.2,10.2c-10.4-16.3-29.2-7.4-44.4,2.3c-2.6,1.7-7.3,5.4-12.1,9.9c-1.6-0.8-3.4-1.2-5.3-0.9l-2.9,0.3
		c-9.8,1.2-9.8,1.2-19.1-0.2l-3.4-0.5c-2.3-0.3-4.5,0.2-6.4,1.4c-4.9-4.9-9.8-8.9-12.5-10.7c-15-9.9-33.6-19.3-44.3-3.1
		c-3.8,5.7-5.3,12.5-4.4,19.7c1.3,10.9,1.2,22.1-0.3,33c-1,7.1,0.4,14,4,19.7c4.6,7.2,10.9,10.9,18.7,10.9c0,0,0,0,0,0
		c7,0,15.2-3,24.4-8.8c2.9-1.8,9-6.5,14.9-12.3c1.9,0.9,4,1.2,6.1,0.8c1.4-0.3,2.7-0.6,3.8-0.8c8.4-1.8,8.4-1.8,17,0.2
		c1,0.2,2,0.5,3.2,0.7c0.7,0.2,1.4,0.2,2.1,0.2c0.9,0,1.9-0.1,2.8-0.4c5.7,5.8,11.5,10.4,14.3,12.3c9.3,6.2,17.6,9.2,24.7,9.2
		c7.6,0,13.8-3.5,18.4-10.5c3.8-5.7,5.3-12.5,4.4-19.6c-1.3-11-1.2-22.1,0.3-33.1C237.3,22.8,235.9,15.9,232.2,10.2z M123.2,81.6
		c-8.9,5.6-16.8,8.5-23.4,8.5c0,0,0,0,0,0c-7.1,0-12.8-3.4-17-10c0,0,0,0,0,0c-3.4-5.3-4.7-11.7-3.8-18.4
		c1.6-11.2,1.7-22.5,0.3-33.6c-0.8-6.7,0.6-13,4.1-18.3c3.4-5.2,7.9-7.8,13.8-7.8c7.1,0,16.2,3.8,27.8,11.5c3,2,7.5,5.8,12.1,10.3
		c-1.2,1.2-2,2.7-2.4,4.4c-2.2,10-2.7,20.1-1.5,30.2c-8.8-1.2-24.1,0.3-31.5,1.8c-6.3,1.3-11.1,3.1-14.3,5.3c-3.9,2.7-4.3,5.5-4,7.3
		c0.8,4.2,7,12.6,17.7,12.6c1.4,0,2.9-0.1,4.5-0.5c9-1.8,23.2-10.3,30.2-16.9c0.5,0.6,1,1.2,1.6,1.7
		C132.2,75.1,126.7,79.4,123.2,81.6z M134.2,64.3c0.1,0.7,0.4,1.4,0.6,2C128.7,72,115.1,81,105.2,83C92.3,85.6,86,75.5,85.4,72.5
		c-0.4-2.2,1.5-4.1,3.1-5.2c2.9-2,7.6-3.7,13.6-5c7.5-1.5,16.3-2.2,23.3-2.2c3.2,0,6,0.1,8.2,0.4C133.7,61.7,133.9,63,134.2,64.3z
		 M169.7,69.9c-1.2-0.3-2.3-0.5-3.2-0.7c-9-2-9.2-2.1-17.9-0.2c-1.1,0.2-2.3,0.5-3.7,0.8c-1.9,0.4-3.9,0-5.5-1.1
		c-1.7-1.1-2.8-2.8-3.2-4.8c-2.3-11.7-2.1-23.6,0.5-35.2c0.8-3.7,4.4-6.1,8.1-5.6l3.3,0.5c9.7,1.4,9.7,1.4,19.7,0.2l2.9-0.3
		c3.9-0.5,7.6,2.3,8.1,6.2c1.5,11.3,1.5,22.8-0.2,34c-0.3,2.1-1.4,3.9-3.1,5C173.8,69.9,171.7,70.3,169.7,69.9z M180.6,64
		c0.2-1.1,0.3-2.1,0.4-3.2c1.4-0.1,3.1-0.2,5.2-0.2c0.7,0,1.5,0,2.3,0c7.4,0.2,16.4,1.2,22.9,2.7c13.3,3,17.2,7.5,16.5,10.5
		c-0.8,3.4-9,13.5-21.7,10.6c-5.6-1.3-13.3-5.4-20.5-11c-2.8-2.1-4.9-4.1-6.5-5.7C179.9,66.7,180.4,65.4,180.6,64z M234.3,29.7
		c-1.5,11.1-1.7,22.4-0.3,33.6c0.8,6.7-0.6,13-4.1,18.3c-8.4,12.7-22,12.9-40.4,0.7c-3.3-2.2-8.4-6.4-13.5-11.5
		c0.2-0.1,0.4-0.2,0.6-0.3c0.5-0.3,0.9-0.7,1.3-1.1c2.6,2.6,5.5,5,6.5,5.7c7.5,5.8,15.4,10,21.3,11.3c1.6,0.4,3.2,0.5,4.7,0.5
		c10.8,0,18.5-8.4,19.4-12.7c1.2-5.3-5.6-10.1-18-12.9c-6.6-1.5-15.7-2.5-23.2-2.7c-3-0.1-5.4,0-7.4,0.2c1-9.8,0.9-19.6-0.5-29.4
		c-0.3-2.4-1.6-4.5-3.3-5.9c4.4-4.1,8.6-7.5,11.5-9.4c11.5-7.3,20.6-11,27.6-11c6,0,10.6,2.7,14,8C234,16.6,235.3,23,234.3,29.7z"/>
</g>
</svg>
