<?xml version="1.0" encoding="utf-8"?>
<!-- Generator: Adobe Illustrator 24.0.0, SVG Export Plug-In . SVG Version: 6.00 Build 0)  -->
<svg version="1.1" id="teddy-bear" xmlns="http://www.w3.org/2000/svg" xmlns:xlink="http://www.w3.org/1999/xlink" x="0px" y="0px"
	 viewBox="0 0 314.8 382" style="enable-background:new 0 0 314.8 382;" xml:space="preserve">
<style type="text/css">
	.st0{fill:#F46A45;}
	.st1{fill:#D3563D;}
	.st2{fill:#FFC764;}
	.st3{fill:#632C23;}
	.st4{fill:#FFFFFF;}
	.st5{fill:#3F3F3F;}
</style>
<path class="st0" d="M302.5,73.6c-4.2,3.7-9.9,6.5-16.2,8.4c8.5,15.6,13.2,32.1,13.2,48.2c0,47.1-35.6,73.7-86.5,84.2
	c7.6,1.9,16.2,4.3,25.5,5.8c14.3,2.3,29.5,0.8,40.1,3.6c10,2.7,19.4,9.1,21.4,16.9c6.6,24.8-24.3,51.4-72.3,31.8
	c-5.1-2.1-10-4.5-14.4-7.2c1.3,6.8,2,13.6,2,20.3c0,8.7-1.2,16.3-3.3,23c6.6,3.4,14,7.5,22.2,10.9c7,2.9,16.1,8.5,31.7,6.4
	c8.9-1.2,17-2.1,22.6,3.1c2.4,2.3,4.1,5.2,4.9,8.4c2.4,9.1-1.1,20.9-9.9,30.3c-1,1-2,1.9-3,2.9c-0.9,0.9-1.9,1.7-2.9,2.5
	c-13.5,10.5-37.8,12.9-65.3-6.7c-11.4-8.1-20.3-17.9-26.1-27.4c-8.5,4.2-18.5,6.3-29.1,6.3s-20.5-2.1-29.1-6.3
	c-5.9,9.5-14.8,19.3-26.1,27.4c-27.5,19.6-51.7,17.2-65.3,6.7c-1-0.8-2-1.6-2.9-2.5c-1-1-2-1.9-3-2.9c-8.8-9.4-12.3-21.2-9.9-30.3
	c0.9-3.2,2.5-6.1,4.9-8.4c5.6-5.3,13.7-4.3,22.6-3.1c15.6,2.1,24.7-3.6,31.7-6.4c8.2-3.3,15.6-7.4,22.2-10.9
	c-2.1-6.7-3.3-14.4-3.3-23c0-6.7,0.7-13.5,2-20.3c-4.5,2.7-9.3,5.1-14.4,7.2c-48,19.6-78.9-7-72.3-31.8c2.1-7.9,11.4-14.3,21.4-16.9
	c10.6-2.8,25.7-1.3,40.1-3.6c9.3-1.5,17.9-3.9,25.5-5.8c-50.8-10.5-86.5-37.2-86.5-84.2c0-16.1,4.7-32.6,13.2-48.2
	c-6.3-1.8-11.9-4.6-16.2-8.4c-19-16.8-10.2-50-0.6-60.9C22.4,0.3,53.9-4.4,71.7,9.4c5.2,4,9.1,10.1,11.6,17
	c21.6-12.6,47-20.5,74.1-20.5s52.6,7.8,74.1,20.5c2.5-6.9,6.4-13,11.6-17c17.8-13.8,49.3-9.1,60.1,3.3
	C312.7,23.6,321.5,56.8,302.5,73.6z"/>
<path class="st1" d="M299.6,130.1c0-24.7-11.2-50.5-29.9-72.1c-0.2,82.3-64.5,149.5-145.6,154.3c-1.5,0.1-2.9,0.2-4.4,0.2
	c-0.1,0-0.2,0-0.3,0c-1.5,0-3.1,0.1-4.6,0.1c0,0,0,0,0,0c-1.6,0-3.2,0-4.8-0.1c-10.1-0.3-20-1.6-29.6-3.8c6.7,2.2,13.8,4.1,21.3,5.6
	c-7.6,1.9-16.2,4.3-25.5,5.8c-0.4,0.1-0.7,0.1-1.1,0.2c12.3,5.9,23.2,14.3,32.1,24.5c1.3-3.5,2.9-6.9,4.5-10.2
	c8.9-6.2,19.6-9.9,31.3-9.9c30.1,0,54.6,24.4,54.6,54.6c0,30.1-24.4,54.6-54.6,54.6c-12.8,0-24.6-4.5-34-11.9
	c10.4,15.8,28.2,23.3,48.4,23.3c32,0,58-18.9,58-59.7c0-13.5-2.9-27.8-7.8-40.8c8.9-10.2,19.8-18.6,32.1-24.5
	c-0.4-0.1-0.7-0.1-1.1-0.2c-9.3-1.5-17.9-3.9-25.5-5.8C264,203.9,299.6,177.2,299.6,130.1z"/>
<path class="st2" d="M47.9,351.6c6.5,5.8,12.1,12.5,8.6,16.4c-3.5,3.9-11.5,2.4-18-3.4c-6.5-5.8-8.9-13.6-5.5-17.5
	C36.5,343.2,41.4,345.8,47.9,351.6z M266.9,351.6c-6.5,5.8-12.1,12.5-8.6,16.4c3.5,3.9,11.5,2.4,18-3.4c6.5-5.8,8.9-13.6,5.5-17.5
	C278.3,343.2,273.4,345.8,266.9,351.6z M285.2,244.2c0-5.8-7.9-7.2-17.3-7.3c-9.4-0.1-16.7,1.3-16.8,7.1c0,5.8,8.3,13.7,17.7,13.7
	S285.1,250,285.2,244.2z M46,257.8c9.4-0.1,17.7-8,17.7-13.7c0-5.8-7.4-7.1-16.8-7.1c-9.4,0.1-17.4,1.5-17.3,7.3
	C29.6,250,36.6,257.8,46,257.8z M185.8,298.5c0,15.7-12.7,26.9-28.4,26.9S129,314.2,129,298.5c0-15.7,12.7-33.4,28.4-33.4
	S185.8,282.8,185.8,298.5z M177.7,129.6c0.3,0.1,0.6,0.2,0.9,0.3l0.1-0.3c12.6-29.2,25.3-70.8,27.9-113.3l0.5-1.4
	c-15.5-5.7-32.2-8.9-49.7-8.9c-17.5,0-34.3,3.2-49.7,8.9l0.5,1.4c2.6,42.5,15.3,84.1,27.9,113.3l0.1,0.3c0.2-0.1,0.3-0.1,0.5-0.1
	c-21.7,7.1-37,24.6-37,41.9c0,22.4,25.9,36,57.8,36s57.8-13.6,57.8-36C215.1,154.3,199.6,136.7,177.7,129.6z M275.8,65.5
	c2.7-1.1,5.1-2.6,7.1-4.3c8.6-7.6,9.2-21.1,1.2-30.1c-7.9-9-21.4-10.2-30-2.6c-2.6,2.3-4.8,5.3-6.4,8.8
	C258.6,45.7,268,55.2,275.8,65.5z M31.9,61.2c2,1.8,4.4,3.2,7.1,4.3c7.8-10.3,17.2-19.9,28-28.2c-1.6-3.5-3.8-6.5-6.4-8.8
	c-8.6-7.6-22.1-6.5-30,2.6C22.7,40.1,23.2,53.6,31.9,61.2z"/>
<path class="st3" d="M180.9,154.5c0,5.4-10.5,9.7-23.6,9.7s-23.6-4.3-23.6-9.7c0-5.4,10.5-14.7,23.6-14.7S180.9,149.1,180.9,154.5z"
	/>
<path d="M107.2,16.6c0-0.3,0.1-0.5,0.2-0.7c0.3-0.1,0.6-0.2,0.9-0.3c0.5,0.1,0.8,0.4,0.9,0.9l0.1,1.5c0,0.6-0.4,1-0.9,1.1
	c0,0,0,0-0.1,0c-0.5,0-1-0.4-1-0.9L107.2,16.6z M155.4,245.5c-0.6,0-1,0.4-1.1,0.9c-0.1,1-0.1,2-0.2,3c0,0.6,0.4,1,0.9,1.1
	c0,0,0,0,0.1,0c0.5,0,1-0.4,1-0.9c0.1-1,0.1-2,0.2-3C156.3,246,155.9,245.5,155.4,245.5z M154.9,254.5c-0.6,0-1,0.4-1,1
	c0,1-0.1,2-0.1,3c0,0.6,0.4,1,1,1c0,0,0,0,0,0c0.5,0,1-0.4,1-1c0-1,0.1-2,0.1-3C155.9,255,155.4,254.5,154.9,254.5z M156.7,227.5
	c-0.6,0-1,0.4-1.1,0.9c-0.1,1-0.2,2-0.2,3c0,0.6,0.4,1,0.9,1.1c0,0,0.1,0,0.1,0c0.5,0,1-0.4,1-0.9c0.1-1,0.2-2,0.2-3
	C157.6,228,157.2,227.6,156.7,227.5z M156,236.5c-0.6,0-1,0.4-1.1,0.9c-0.1,1-0.1,2-0.2,3c0,0.6,0.4,1,0.9,1.1c0,0,0,0,0.1,0
	c0.5,0,1-0.4,1-0.9c0.1-1,0.1-2,0.2-3C156.9,237,156.5,236.5,156,236.5z M126.8,103c-0.2-0.5-0.7-0.8-1.3-0.6
	c-0.5,0.2-0.8,0.7-0.6,1.3c0.3,1,0.6,1.9,1,2.9c0.1,0.4,0.5,0.7,0.9,0.7c0.1,0,0.2,0,0.3-0.1c0.5-0.2,0.8-0.8,0.6-1.3
	C127.5,104.9,127.2,103.9,126.8,103z M129.8,111.4c-0.2-0.5-0.8-0.8-1.3-0.6c-0.5,0.2-0.8,0.8-0.6,1.3c0.3,1,0.7,1.9,1,2.8
	c0.2,0.4,0.5,0.6,0.9,0.6c0.1,0,0.2,0,0.4-0.1c0.5-0.2,0.8-0.8,0.6-1.3C130.5,113.3,130.2,112.4,129.8,111.4z M204.6,37
	c0,0,0.1,0,0.1,0c0.5,0,0.9-0.4,1-0.9c0.1-1,0.3-2,0.4-3c0.1-0.5-0.3-1-0.9-1.1c-0.5-0.1-1,0.3-1.1,0.9c-0.1,1-0.2,2-0.4,3
	C203.6,36.4,204,36.9,204.6,37z M203.2,45.9c0.1,0,0.1,0,0.2,0c0.5,0,0.9-0.4,1-0.8c0.2-1,0.3-2,0.5-3c0.1-0.5-0.3-1.1-0.8-1.1
	c-0.5-0.1-1.1,0.3-1.1,0.8c-0.1,1-0.3,2-0.5,3C202.3,45.3,202.7,45.9,203.2,45.9z M205.6,28.1C205.7,28.1,205.7,28.1,205.6,28.1
	c0.6,0,1-0.4,1.1-0.9c0.1-1,0.2-2,0.3-3c0-0.6-0.4-1-0.9-1.1c-0.6,0-1,0.4-1.1,0.9c-0.1,1-0.2,2-0.3,3
	C204.7,27.5,205.1,28,205.6,28.1z M133,119.9c-0.2-0.5-0.8-0.8-1.3-0.6c-0.5,0.2-0.8,0.8-0.6,1.3c0.4,0.9,0.7,1.9,1.1,2.8
	c0.2,0.4,0.5,0.6,0.9,0.6c0.1,0,0.3,0,0.4-0.1c0.5-0.2,0.8-0.8,0.6-1.3C133.8,121.7,133.4,120.8,133,119.9z M125,97.3
	c-0.3-0.9-0.6-1.9-0.9-2.9c-0.2-0.5-0.7-0.8-1.3-0.7c-0.5,0.2-0.8,0.7-0.7,1.3c0.3,1,0.6,1.9,0.9,2.9c0.1,0.4,0.5,0.7,1,0.7
	c0.1,0,0.2,0,0.3,0C124.8,98.3,125.1,97.8,125,97.3z M201.7,54.8c0.1,0,0.1,0,0.2,0c0.5,0,0.9-0.3,1-0.8c0.2-1,0.4-2,0.5-3
	c0.1-0.5-0.3-1.1-0.8-1.2c-0.5-0.1-1.1,0.3-1.2,0.8c-0.2,1-0.4,2-0.5,3C200.8,54.2,201.1,54.7,201.7,54.8z M109.9,42.1
	c0.1,1,0.3,2,0.5,3c0.1,0.5,0.5,0.8,1,0.8c0.1,0,0.1,0,0.2,0c0.5-0.1,0.9-0.6,0.8-1.1c-0.2-1-0.3-2-0.5-3c-0.1-0.5-0.6-0.9-1.1-0.8
	C110.2,41.1,109.8,41.6,109.9,42.1z M221.4,97.3c-0.8-0.6-1.8-1.2-3-1.6c-2.5-0.9-5.2-1-5.8,0.6l0,0c-0.6,1.6,1.7,3.2,4.2,4.1
	c1.2,0.4,2.3,0.6,3.3,0.6c0,0,0,0,0,0c1.7,0,2.3-0.7,2.5-1.3C222.7,99.2,222.7,98.3,221.4,97.3z M108.7,33.2c0.1,1,0.2,2,0.4,3
	c0.1,0.5,0.5,0.9,1,0.9c0,0,0.1,0,0.1,0c0.5-0.1,0.9-0.6,0.9-1.1c-0.1-1-0.3-2-0.4-3c-0.1-0.5-0.6-0.9-1.1-0.9
	C109,32.1,108.6,32.6,108.7,33.2z M113.1,60c0.2,1,0.4,2,0.6,3c0.1,0.5,0.5,0.8,1,0.8c0.1,0,0.1,0,0.2,0c0.5-0.1,0.9-0.6,0.8-1.2
	c-0.2-1-0.4-2-0.6-2.9c-0.1-0.5-0.6-0.9-1.2-0.8C113.3,58.9,113,59.4,113.1,60z M111.4,51.1c0.2,1,0.4,2,0.5,3
	c0.1,0.5,0.5,0.8,1,0.8c0.1,0,0.1,0,0.2,0c0.5-0.1,0.9-0.6,0.8-1.2c-0.2-1-0.4-2-0.5-3c-0.1-0.5-0.6-0.9-1.2-0.8
	C111.6,50,111.3,50.5,111.4,51.1z M102.2,96.3c-0.2-0.6-0.8-1.3-2.5-1.3c-1,0-2.2,0.2-3.3,0.6c-1.2,0.4-2.3,1-3,1.6
	c-1.3,1-1.4,2-1.2,2.5c0.2,0.6,0.8,1.3,2.5,1.3c0,0,0,0,0,0c1,0,2.1-0.2,3.3-0.6C100.5,99.6,102.8,98,102.2,96.3z M117.7,71.3
	c-0.2-1-0.5-1.9-0.7-2.9c-0.1-0.5-0.7-0.9-1.2-0.7c-0.5,0.1-0.9,0.7-0.7,1.2c0.2,1,0.5,2,0.7,2.9c0.1,0.5,0.5,0.8,1,0.8
	c0.1,0,0.2,0,0.2,0C117.5,72.3,117.8,71.8,117.7,71.3z M119.9,80c-0.3-1-0.5-1.9-0.8-2.9c-0.1-0.5-0.7-0.9-1.2-0.7
	c-0.5,0.1-0.9,0.7-0.7,1.2c0.3,1,0.5,1.9,0.8,2.9c0.1,0.4,0.5,0.7,1,0.7c0.1,0,0.2,0,0.3,0C119.7,81.1,120,80.5,119.9,80z
	 M108.1,115.4c-1.1,0-2,0.3-2.9,0.9c-0.1-0.1-0.2-0.1-0.3-0.1l-4.5-1.3c-0.5-0.2-1.1,0.2-1.2,0.7c-0.1,0.5,0.2,1.1,0.7,1.2l3.6,1
	c-0.2,0.2-0.3,0.5-0.5,0.7l-2.6-0.7c-0.5-0.1-1.1,0.2-1.2,0.7c-0.1,0.5,0.2,1.1,0.7,1.2l2.2,0.6c-0.7,1.7-1.1,3.8-1.1,6
	c0,6.2,3.2,11,7.2,11s7.2-4.8,7.2-11C115.3,120.3,112.1,115.4,108.1,115.4z M122.3,88.7c-0.3-1-0.6-1.9-0.8-2.9
	c-0.2-0.5-0.7-0.8-1.2-0.7c-0.5,0.2-0.8,0.7-0.7,1.2c0.3,1,0.6,1.9,0.8,2.9c0.1,0.4,0.5,0.7,1,0.7c0.1,0,0.2,0,0.3,0
	C122.2,89.7,122.5,89.2,122.3,88.7z M109,28.1c0,0,0.1,0,0.1,0c0.5-0.1,1-0.5,0.9-1.1c-0.1-1-0.2-2-0.3-3c0-0.5-0.5-1-1.1-0.9
	c-0.6,0-1,0.5-0.9,1.1c0.1,1,0.2,2,0.3,3C108.1,27.7,108.5,28.1,109,28.1z M154.1,277.5C154.1,277.5,154.1,277.5,154.1,277.5
	c0.6,0,1-0.4,1-1c0-1,0-2,0.1-3c0-0.6-0.4-1-1-1c-0.6,0-1,0.4-1,1c0,1,0,2-0.1,3C153.1,277,153.6,277.5,154.1,277.5z M156.3,335.4
	c-0.5,0.1-1,0.5-0.9,1.1c0.1,1,0.2,2,0.3,3c0.1,0.5,0.5,0.9,1,0.9c0,0,0.1,0,0.1,0c0.5-0.1,0.9-0.6,0.9-1.1c-0.1-1-0.2-2-0.3-3
	C157.3,335.8,156.9,335.4,156.3,335.4z M154.1,286.5C154.1,286.5,154.1,286.5,154.1,286.5c0.6,0,1-0.4,1-1c0-1,0-2,0-3
	c0-0.6-0.4-1-1-1c0,0,0,0,0,0c-0.5,0-1,0.4-1,1c0,1,0,2,0,3C153.1,286,153.5,286.5,154.1,286.5z M199,67.6c-0.5-0.1-1.1,0.2-1.2,0.7
	c-0.2,1-0.5,1.9-0.7,2.9c-0.1,0.5,0.2,1.1,0.7,1.2c0.1,0,0.2,0,0.2,0c0.5,0,0.9-0.3,1-0.8c0.2-1,0.5-2,0.7-2.9
	C199.9,68.3,199.5,67.7,199,67.6z M196.9,76.4c-0.5-0.1-1.1,0.2-1.2,0.7c-0.3,1-0.5,1.9-0.8,2.9c-0.1,0.5,0.2,1.1,0.7,1.2
	c0.1,0,0.2,0,0.3,0c0.4,0,0.8-0.3,1-0.7c0.3-1,0.5-1.9,0.8-2.9C197.7,77.1,197.4,76.5,196.9,76.4z M154.5,308.5c-0.6,0-1,0.5-1,1
	c0,1,0.1,2,0.1,3c0,0.5,0.5,1,1,1c0,0,0,0,0,0c0.6,0,1-0.5,1-1c0-1-0.1-2-0.1-3C155.5,308.9,155,308.4,154.5,308.5z M154.9,317.5
	c-0.6,0-1,0.5-0.9,1.1c0.1,1,0.1,2,0.2,3c0,0.5,0.5,0.9,1,0.9c0,0,0,0,0.1,0c0.6,0,1-0.5,0.9-1.1c-0.1-1-0.1-2-0.2-3
	C155.9,317.9,155.5,317.4,154.9,317.5z M215.6,115.7c-0.1-0.5-0.7-0.8-1.2-0.7l-4.5,1.3c-0.1,0-0.2,0.1-0.3,0.1
	c-0.9-0.6-1.9-0.9-2.9-0.9c-4,0-7.2,4.8-7.2,11c0,6.2,3.2,11,7.2,11c4,0,7.2-4.8,7.2-11c0-2.2-0.4-4.3-1.1-6l2.2-0.6
	c0.5-0.1,0.8-0.7,0.7-1.2s-0.7-0.8-1.2-0.7l-2.6,0.7c-0.2-0.2-0.3-0.5-0.5-0.7l3.6-1C215.4,116.8,215.7,116.2,215.6,115.7z
	 M154.1,295.5C154.1,295.5,154.1,295.5,154.1,295.5c0.6,0,1-0.5,1-1c0-1,0-2,0-3c0-0.5-0.5-1-1-1c0,0,0,0,0,0c-0.6,0-1,0.5-1,1
	c0,1,0,2,0,3C153.1,295,153.6,295.5,154.1,295.5z M154.2,299.5c-0.6,0-1,0.5-1,1c0,1,0.1,2,0.1,3c0,0.5,0.5,1,1,1c0,0,0,0,0,0
	c0.6,0,1-0.5,1-1c0-1-0.1-2-0.1-3C155.2,299.9,154.7,299.5,154.2,299.5z M183.1,119.3c-0.5-0.2-1.1,0.1-1.3,0.6
	c-0.4,0.9-0.7,1.9-1.1,2.8c-0.2,0.5,0,1.1,0.6,1.3c0.1,0,0.2,0.1,0.4,0.1c0.4,0,0.8-0.2,0.9-0.6c0.4-0.9,0.7-1.9,1.1-2.8
	C183.8,120.1,183.6,119.5,183.1,119.3z M199.9,63.7c0.1,0,0.1,0,0.2,0c0.5,0,0.9-0.3,1-0.8c0.2-1,0.4-2,0.6-3
	c0.1-0.5-0.2-1.1-0.8-1.2c-0.5-0.1-1.1,0.2-1.2,0.8c-0.2,1-0.4,2-0.6,2.9C199,63,199.3,63.6,199.9,63.7z M194.5,85.1
	c-0.5-0.1-1.1,0.2-1.2,0.7c-0.3,1-0.6,1.9-0.8,2.9c-0.2,0.5,0.1,1.1,0.7,1.2c0.1,0,0.2,0,0.3,0c0.4,0,0.8-0.3,1-0.7
	c0.3-1,0.6-1.9,0.8-2.9C195.4,85.8,195,85.2,194.5,85.1z M155.9,331.4c0.6,0,1-0.5,0.9-1.1c-0.1-1-0.2-2-0.2-3c0-0.5-0.5-1-1.1-0.9
	c-0.6,0-1,0.5-0.9,1.1c0.1,1,0.2,2,0.2,3C154.9,331,155.3,331.4,155.9,331.4C155.9,331.4,155.9,331.4,155.9,331.4z M186.2,110.8
	c-0.5-0.2-1.1,0.1-1.3,0.6c-0.3,0.9-0.7,1.9-1,2.8c-0.2,0.5,0.1,1.1,0.6,1.3c0.1,0,0.2,0.1,0.4,0.1c0.4,0,0.8-0.2,0.9-0.6
	c0.4-0.9,0.7-1.9,1-2.8C187,111.6,186.7,111,186.2,110.8z M189.2,102.3c-0.5-0.2-1.1,0.1-1.3,0.6c-0.3,1-0.6,1.9-1,2.8
	c-0.2,0.5,0.1,1.1,0.6,1.3c0.1,0,0.2,0.1,0.3,0.1c0.4,0,0.8-0.3,0.9-0.7c0.3-0.9,0.7-1.9,1-2.9C190,103.1,189.7,102.5,189.2,102.3z
	 M192,93.7c-0.5-0.2-1.1,0.1-1.3,0.7c-0.3,1-0.6,1.9-0.9,2.9c-0.2,0.5,0.1,1.1,0.6,1.3c0.1,0,0.2,0,0.3,0c0.4,0,0.8-0.3,1-0.7
	c0.3-1,0.6-1.9,0.9-2.9C192.8,94.5,192.5,93.9,192,93.7z M263.7,371.1c0.8,0,1.7-0.1,2.6-0.3c3.6-0.7,7.3-2.7,10.6-5.6
	c7-6.2,9.4-14.5,5.6-18.9c-4.4-5-10.7-0.6-16.3,4.4c-3.8,3.4-6.6,6.5-8.2,9.1c-2.2,3.6-2.4,6.5-0.5,8.7
	C259,370.3,261.2,371.1,263.7,371.1z M259.7,361c1.5-2.5,4.2-5.4,7.8-8.7c6.9-6.2,10.8-7.5,13.4-4.5c3,3.4,0.6,10.8-5.4,16.1
	c-3,2.7-6.4,4.5-9.6,5.1c-3,0.6-5.5,0-6.9-1.6C258.6,366.8,257.2,365.2,259.7,361z M255.7,253.8c3.7,3.1,8.5,4.9,13,5
	c0,0,0.1,0,0.1,0c9.6,0,17.3-7.9,17.4-14.5c0-7.3-10.4-8.2-18.3-8.3c-5.4,0-9.4,0.4-12.2,1.4c-3.7,1.3-5.5,3.5-5.5,6.7
	C250,247.2,252.2,250.8,255.7,253.8z M256.3,239.2c2.6-0.9,6.4-1.3,11.6-1.3c11,0.1,16.4,2.1,16.3,6.3c0,5.1-6.5,12.6-15.4,12.6
	c0,0-0.1,0-0.1,0c-4.1,0-8.3-1.7-11.7-4.5c-3.1-2.6-4.9-5.7-4.9-8.2C252.1,241.8,253.4,240.2,256.3,239.2z M46.9,235.9
	c-7.9,0-18.4,1-18.3,8.3c0,6.6,7.8,14.5,17.4,14.5c0,0,0.1,0,0.1,0c9.9-0.1,18.7-8.3,18.7-14.7C64.7,236.8,55.2,235.9,46.9,235.9z
	 M46,256.8C46,256.8,46,256.8,46,256.8c-9,0-15.4-7.5-15.4-12.6c0-4.2,5.3-6.2,16.3-6.3c0.2,0,0.3,0,0.5,0c10.4,0,15.3,1.9,15.3,6.1
	C62.7,248.9,55.1,256.7,46,256.8z M48.5,350.8c-5.6-5-11.9-9.3-16.3-4.4c-3.9,4.4-1.4,12.6,5.6,18.9c3.3,2.9,7,4.9,10.6,5.6
	c0.9,0.2,1.8,0.3,2.6,0.3c2.6,0,4.8-0.8,6.2-2.5C60.5,364.9,57.6,358.9,48.5,350.8z M55.7,367.3c-1.4,1.6-3.9,2.2-6.9,1.6
	c-3.2-0.6-6.6-2.4-9.6-5.1c-6-5.3-8.4-12.6-5.4-16.1c0.9-1,1.9-1.5,3.2-1.5c2.4,0,5.7,2,10.3,6C51.8,356.4,58.9,363.7,55.7,367.3z
	 M139.4,183.2c5,3.4,11.5,5.1,18,5.1c6.4,0,12.8-1.7,17.8-5c0.2,0.8,0.2,1.7-0.1,2.5c-0.2,0.5,0.1,1.1,0.6,1.3
	c0.1,0,0.2,0.1,0.4,0.1c0.4,0,0.8-0.2,0.9-0.6c0.7-1.8,0.5-3.7-0.4-5.5c-0.9-1.7-2.5-3.1-4.5-3.8c-0.5-0.2-1.1,0.1-1.3,0.6
	c-0.2,0.5,0.1,1.1,0.6,1.3c1.3,0.5,2.4,1.3,3.1,2.4c-4.5,3.1-10.2,4.7-16,4.9v-21.2c13.3-0.2,23.6-4.8,23.6-10.7
	c0-6-11.2-15.7-24.6-15.7s-24.6,9.6-24.6,15.7c0,5.9,10.3,10.5,23.6,10.7v21.2c-5.9-0.2-11.7-1.8-16.2-4.9c0.7-1,1.8-1.9,3.1-2.4
	c0.5-0.2,0.8-0.8,0.6-1.3c-0.2-0.5-0.8-0.8-1.3-0.6c-4.1,1.5-6.3,5.7-4.9,9.3c0.2,0.4,0.5,0.6,0.9,0.6c0.1,0,0.2,0,0.4-0.1
	c0.5-0.2,0.8-0.8,0.6-1.3C139.3,184.9,139.2,184.1,139.4,183.2z M134.8,154.5c0-4.6,9.8-13.7,22.6-13.7s22.6,9.1,22.6,13.7
	c0,4.2-9.1,8.7-22.6,8.7S134.8,158.7,134.8,154.5z M157.4,264.1c-0.7,0-1.3,0-2,0.1c-0.1-0.4-0.5-0.7-0.9-0.7c-0.6,0-1,0.4-1,1
	c0,0,0,0,0,0c-14.6,2.6-25.5,19.4-25.5,34c0,1,0,1.9,0.1,2.8c0.1,0.8,0.2,1.6,0.3,2.4c1,5.2,3.3,9.8,6.8,13.5
	c0.6,0.6,1.2,1.2,1.8,1.8c5.2,4.6,12.3,7.4,20.3,7.4s15.1-2.8,20.3-7.4c0.6-0.6,1.3-1.2,1.8-1.8c3.4-3.7,5.8-8.3,6.8-13.5
	c0.1-0.8,0.3-1.6,0.3-2.4c0.1-0.9,0.1-1.9,0.1-2.8C186.8,282.6,173.9,264.1,157.4,264.1z M184.5,302.4c-0.2,1-0.4,2-0.6,3
	c-0.9,3.2-2.3,6.1-4.2,8.6c-0.6,0.8-1.3,1.6-2.1,2.4c-4.9,5-12,8-20.2,8s-15.2-3-20.2-8c-0.7-0.8-1.4-1.6-2.1-2.4
	c-1.9-2.5-3.4-5.4-4.2-8.6c-0.3-1-0.5-2-0.6-3c-0.2-1.3-0.3-2.6-0.3-3.9c0-13.6,10-29.3,23.4-32c0,0.3,0,0.6,0,0.9c0,0.6,0.4,1,1,1
	c0,0,0,0,0,0c0.5,0,1-0.4,1-1c0-0.4,0-0.8,0-1.3c0.7-0.1,1.3-0.1,2-0.1c15.4,0,27.4,17.4,27.4,32.4
	C184.8,299.8,184.7,301.1,184.5,302.4z M303.9,12c-5.5-6.2-16.2-10.8-28.1-11.8c-12.9-1.1-25,1.9-33.4,8.4
	c-4.9,3.8-8.8,9.5-11.4,16.3c-22.5-13-47.8-20-73.7-20c-25.8,0-51.1,7-73.7,20c-2.6-6.8-6.6-12.5-11.4-16.3
	C64,2.2,51.8-0.9,38.9,0.2C27.1,1.3,16.3,5.8,10.9,12C0.4,24-7.5,57.6,11.6,74.3c4,3.6,9.4,6.3,15.4,8.2
	c-8.3,15.6-12.8,32-12.8,47.6c0,30.1,14.2,53.4,42.2,69.2c11.5,6.5,25.3,11.6,41,15.1c-0.1,0-0.3,0.1-0.4,0.1
	c-6.3,1.6-13.5,3.5-20.9,4.6c-6.5,1-13.1,1.3-19.6,1.5c-7.6,0.3-14.7,0.5-20.6,2.1c-9.4,2.5-19.8,8.9-22.2,17.6
	c-2.8,10.5,0.9,21.4,9.7,29.2c8.1,7.1,19.1,10.7,31.7,10.7c10,0,21-2.3,32.2-6.9c4.4-1.8,8.6-3.9,12.7-6.2
	c-1.1,6.2-1.6,12.4-1.6,18.4c0,8.2,1.1,15.7,3.2,22.5c-0.9,0.5-1.9,1-2.9,1.5c-5.6,2.9-11.9,6.2-18.6,9c-1.1,0.4-2.2,0.9-3.4,1.5
	c-6.6,3-14.9,6.6-27.8,4.9c-8.5-1.1-17.4-2.3-23.4,3.4c-2.5,2.4-4.3,5.3-5.2,8.9c-2.6,9.7,1.4,21.9,10.1,31.2
	c0.6,0.6,1.2,1.2,1.9,1.8c0.4,0.4,0.8,0.7,1.1,1.1c0.9,0.9,1.9,1.8,3,2.6c6.3,4.9,15.1,8.2,25.7,8.2c11.7,0,25.6-4.1,40.8-14.9
	c10.7-7.6,19.8-17.2,25.9-26.9c8.2,3.9,17.8,6,28.7,6s20.5-2.1,28.7-6c6.2,9.7,15.3,19.3,25.9,26.9c15.1,10.8,29,14.9,40.8,14.9
	c10.6,0,19.4-3.4,25.7-8.2c1.1-0.8,2.1-1.7,3-2.6c0.4-0.4,0.7-0.7,1.1-1.1c0.6-0.6,1.3-1.2,1.9-1.8c8.7-9.3,12.7-21.5,10.1-31.2
	c-0.9-3.5-2.7-6.5-5.2-8.9c-6-5.7-14.9-4.5-23.4-3.4c-13,1.7-21.2-1.9-27.8-4.9c-1.2-0.5-2.3-1-3.4-1.5c-6.7-2.7-13-6.1-18.6-9
	c-1-0.5-1.9-1-2.9-1.5c2.1-6.8,3.2-14.3,3.2-22.5c0-6-0.6-12.2-1.6-18.4c4,2.3,8.3,4.4,12.7,6.2c11.3,4.6,22.2,6.9,32.2,6.9
	c12.5,0,23.6-3.6,31.7-10.7c8.9-7.8,12.5-18.7,9.7-29.2c-2.3-8.7-12.8-15.2-22.2-17.6c-5.9-1.6-13-1.8-20.6-2.1
	c-6.4-0.2-13.1-0.5-19.6-1.5c-7.4-1.2-14.6-3-20.9-4.6c-0.1,0-0.3-0.1-0.4-0.1c15.6-3.6,29.4-8.6,41-15.1c28-15.8,42.2-39,42.2-69.2
	c0-15.6-4.5-32-12.8-47.6c6-1.9,11.4-4.6,15.4-8.2C322.2,57.6,314.4,24,303.9,12z M12.9,72.8c-19.3-17-9-49.8-0.5-59.5
	C18.5,6.3,31.2,2,44,2c9.8,0,19.8,2.5,27.1,8.2c4.6,3.6,8.4,9.1,10.9,15.7c-5,3-9.9,6.3-14.7,9.9c-1.6-3.1-3.7-5.9-6-8
	c-4.4-3.9-10.1-5.7-16-5.2c-5.9,0.5-11.4,3.3-15.4,7.8S23.8,40.8,24,46.7c0.2,6,2.8,11.4,7.2,15.2c1.8,1.6,3.9,2.9,6.3,4
	c-3.5,4.8-6.7,9.8-9.5,14.8C22.1,79,16.8,76.3,12.9,72.8z M65.7,37.1c-3.3,2.6-6.5,5.3-9.6,8.1c-6.5,6-12.3,12.4-17.4,19.1
	c-2.3-1-4.4-2.3-6.2-3.9c-4-3.5-6.3-8.4-6.5-13.8c-0.2-5.4,1.7-10.7,5.3-14.9c3.7-4.2,8.7-6.7,14.1-7.2c0.6,0,1.2-0.1,1.8-0.1
	c4.7,0,9.2,1.7,12.8,4.8C62.2,31.3,64.2,34,65.7,37.1z M86.6,271.5c-24.7,10.1-47.8,8.8-61.8-3.5c-8.3-7.3-11.7-17.4-9.1-27.1
	c1.8-6.9,10.2-13.4,20.7-16.2c5.6-1.5,12.7-1.8,20.2-2c6.5-0.2,13.2-0.5,19.8-1.5c7.5-1.2,14.7-3,21.1-4.7c1.5-0.4,2.9-0.7,4.3-1.1
	c6,1.2,12.3,2.2,18.8,3c-1.7,2.3-3.4,4.7-5,7.2c-7.1,11.5-12.3,25.2-15,39C96.2,267.2,91.6,269.5,86.6,271.5z M101.6,365.5
	c-27.9,19.9-51.4,16.5-64.1,6.7c-1-0.8-1.9-1.6-2.8-2.4c-0.4-0.4-0.8-0.7-1.2-1.1c-0.6-0.6-1.2-1.1-1.8-1.7
	c-8.3-8.8-12-20.3-9.6-29.3v0c0.8-3.2,2.4-5.8,4.7-7.9c3.1-2.9,7.1-3.8,11.5-3.8c3.2,0,6.7,0.5,10.3,0.9c13.5,1.8,22.4-2.2,28.9-5.1
	c1.2-0.5,2.3-1,3.3-1.4c6.8-2.8,13.2-6.1,18.8-9.1c0.9-0.5,1.7-0.9,2.6-1.3c4.5,13.2,13,23.3,24.7,29.4
	C121.3,348.2,112.9,357.4,101.6,365.5z M215.1,311.3c5.6,2.9,12,6.3,18.8,9.1c1.1,0.4,2.2,0.9,3.3,1.4c6.5,2.9,15.4,6.9,28.9,5.1
	c8.4-1.1,16.4-2.2,21.8,2.8c2.2,2.1,3.8,4.8,4.7,7.9c2.4,9-1.4,20.5-9.6,29.3c-0.6,0.6-1.2,1.2-1.8,1.7c-0.4,0.4-0.8,0.7-1.2,1.1
	c-0.9,0.8-1.8,1.7-2.8,2.4c-12.7,9.8-36.2,13.2-64.1-6.7c-11.3-8.1-19.7-17.4-25.3-26.1c11.7-6.1,20.2-16.2,24.7-29.4
	C213.4,310.4,214.3,310.9,215.1,311.3z M211.5,307.2c-0.2,0.7-0.4,1.3-0.6,1.9c-4.7,13.8-13.5,22.9-24.1,28.4
	c-0.6,0.3-1.2,0.6-1.8,0.9c-8.6,4.1-18.2,5.8-27.5,5.8c-9.4,0-19-1.8-27.5-5.8c-0.6-0.3-1.2-0.6-1.8-0.9
	c-10.6-5.5-19.4-14.7-24.1-28.4c-0.2-0.6-0.4-1.3-0.6-1.9c-1.9-6.3-2.9-13.4-2.9-21.6c0-6.4,0.7-13.1,1.9-19.7
	c0.2-0.9,0.3-1.8,0.5-2.6c3.5-16.4,10.6-32.5,20-44.5c2.8,0.3,5.5,0.6,8.4,0.8c0.8,0.1,1.5,0.1,2.3,0.2c7.3,0.5,14.9,0.8,22.7,0.9
	l-0.2,1.9c0,0.5,0.4,1,0.9,1.1c0,0,0.1,0,0.1,0c0.5,0,0.9-0.4,1-0.9l0.2-2.1c7.9,0,15.5-0.3,22.9-0.9c0.8-0.1,1.5-0.1,2.3-0.2
	c2.8-0.2,5.6-0.5,8.4-0.8c9.4,12,16.5,28.1,20,44.5c0.2,0.9,0.4,1.8,0.5,2.6c1.3,6.6,1.9,13.3,1.9,19.7
	C214.4,293.7,213.3,300.9,211.5,307.2z M238.5,221.1c6.6,1,13.3,1.3,19.8,1.5c7.5,0.3,14.5,0.5,20.2,2c10.6,2.8,18.9,9.3,20.7,16.2
	c2.6,9.7-0.8,19.9-9.1,27.1c-14,12.3-37.1,13.6-61.8,3.5c-5-2.1-9.7-4.4-13.9-6.9c-2.7-13.8-7.9-27.5-15-39c-1.6-2.6-3.2-5-5-7.2
	c6.5-0.8,12.8-1.8,18.8-3c1.4,0.4,2.8,0.7,4.3,1.1C223.7,218.1,230.9,219.9,238.5,221.1z M298.6,130.1c0,29.4-13.8,52-41.1,67.4
	c-12.3,6.9-27.3,12.2-44.3,15.8c-1.6,0.3-3.1,0.6-4.7,0.9c-5,0.9-10.2,1.7-15.5,2.3c-0.8,0.1-1.6,0.2-2.5,0.3
	c-1.8,0.2-3.7,0.4-5.5,0.5c-0.9,0.1-1.7,0.1-2.6,0.2c-8,0.6-16.3,1-24.9,1c-8.6,0-16.9-0.3-24.9-1c-0.9-0.1-1.7-0.1-2.6-0.2
	c-1.9-0.2-3.7-0.3-5.5-0.5c-0.8-0.1-1.6-0.2-2.5-0.3c-5.3-0.6-10.5-1.4-15.5-2.3c-1.6-0.3-3.2-0.6-4.7-0.9
	c-17.1-3.5-32-8.8-44.3-15.8c-27.3-15.4-41.1-38.1-41.1-67.4c0-15.5,4.6-31.7,12.8-47c0.3-0.6,0.6-1.2,1-1.8c2.8-5,5.9-9.8,9.4-14.6
	c0.4-0.6,0.8-1.1,1.3-1.7c7.3-9.5,16-18.4,25.9-26.2c0.5-0.4,1.1-0.8,1.6-1.3c4.6-3.5,9.4-6.8,14.5-9.8c0.6-0.3,1.2-0.7,1.8-1
	c7.2-4.2,14.9-7.9,23-10.9c0.2-0.2,0.4-0.4,0.7-0.4c0.1,0,0.1,0,0.2,0c15.2-5.5,31.7-8.7,49-8.7c17.4,0,33.9,3.2,49,8.7
	c-0.5,0.1-0.8,0.4-0.9,0.9l-0.1,1.5c0,0.6,0.4,1,0.9,1.1c0,0,0,0,0.1,0c0.5,0,1-0.4,1-0.9l0.1-1.5c0-0.3-0.1-0.5-0.2-0.7
	c8.1,3,15.7,6.7,23,10.9c0.6,0.3,1.2,0.7,1.8,1c5.1,3,9.9,6.3,14.5,9.8c0.5,0.4,1.1,0.8,1.6,1.3c9.9,7.8,18.6,16.7,25.9,26.2
	c0.4,0.6,0.8,1.1,1.3,1.7c3.5,4.7,6.7,9.6,9.4,14.6c0.3,0.6,0.7,1.2,1,1.8C294,98.5,298.6,114.6,298.6,130.1z M249,37.1
	c1.5-3,3.5-5.7,5.8-7.8c3.5-3.1,8-4.8,12.8-4.8c0.6,0,1.2,0,1.8,0.1c5.4,0.5,10.4,3,14.1,7.2c3.7,4.2,5.6,9.4,5.3,14.9
	c-0.2,5.4-2.5,10.3-6.5,13.8c-1.7,1.5-3.9,2.8-6.2,3.9c-5.1-6.7-11-13.2-17.4-19.1C255.5,42.3,252.3,39.6,249,37.1z M301.9,72.8
	c-3.9,3.5-9.2,6.2-15.1,7.9c-2.8-5.1-6-10-9.5-14.8c2.4-1.1,4.5-2.4,6.3-4c4.4-3.9,6.9-9.3,7.2-15.2c0.2-5.9-1.8-11.7-5.8-16.3
	c-4-4.6-9.5-7.3-15.4-7.8c-5.9-0.5-11.6,1.3-16,5.2c-2.4,2.1-4.4,4.9-6,8c-4.7-3.6-9.6-6.9-14.7-9.9c2.5-6.6,6.3-12.1,10.9-15.7
	c16.8-13.1,47.8-9.3,58.7,3.1C310.9,23,321.2,55.8,301.9,72.8z M180,129.4l0.2-0.4c0.2-0.5,0-1.1-0.5-1.3c-0.5-0.2-1.1,0-1.3,0.5
	l-0.2,0.5c-6.4-2.1-13.4-3.2-20.7-3.2c-7.4,0-14.4,1.2-20.7,3.2l-0.2-0.5c-0.2-0.5-0.8-0.7-1.3-0.5c-0.5,0.2-0.7,0.8-0.5,1.3
	l0.2,0.4c-21.7,7.7-36.1,25.8-36.1,42.3c0,16.1,13.2,28.6,34.1,34c0.9,0.2,1.7,0.4,2.6,0.6c6.7,1.5,14.1,2.3,22.1,2.3
	c8,0,15.4-0.8,22.1-2.3c0.9-0.2,1.7-0.4,2.6-0.6c20.9-5.4,34.1-17.9,34.1-34C216.1,155.1,201.7,137.1,180,129.4z M180,204.2
	c-0.9,0.2-1.8,0.4-2.8,0.6c-6.1,1.2-12.7,1.9-19.9,1.9s-13.8-0.7-19.9-1.9c-0.9-0.2-1.9-0.4-2.8-0.6c-20.8-5-34.1-17-34.1-32.5
	c0-20.9,24.3-44.2,56.8-44.2s56.8,23.4,56.8,44.2C214.1,187.2,200.9,199.2,180,204.2z"/>
<path class="st4" d="M109.3,123.5c0,2.2-1.2,4-2.7,4c-1.5,0-2.7-1.8-2.7-4s1.2-4,2.7-4C108.1,119.5,109.3,121.3,109.3,123.5z
	 M202.8,123.5c0,2.2,1.2,4,2.7,4c1.5,0,2.7-1.8,2.7-4s-1.2-4-2.7-4C204,119.5,202.8,121.3,202.8,123.5z M154.1,147.3
	c-1-2.2-4.4-2.7-7.6-1.3c-3.2,1.5-5.1,4.4-4.1,6.5c1,2.2,4.4,2.7,7.6,1.3C153.2,152.4,155.1,149.5,154.1,147.3z"/>
<path class="st5" d="M112.7,132.2c0,1.7-2,3.1-4.6,3.1c-2.5,0-4.6-1.4-4.6-3.1c0-1.7,2-1.7,4.6-1.7
	C110.6,130.6,112.7,130.5,112.7,132.2z M206.7,130.6c-2.5,0-4.6,0-4.6,1.7c0,1.7,2,3.1,4.6,3.1c2.5,0,4.6-1.4,4.6-3.1
	C211.2,130.5,209.2,130.6,206.7,130.6z"/>
</svg>
