<?xml version="1.0" encoding="utf-8"?>
<!-- Generator: Adobe Illustrator 24.0.0, SVG Export Plug-In . SVG Version: 6.00 Build 0)  -->
<svg version="1.1" xmlns="http://www.w3.org/2000/svg" xmlns:xlink="http://www.w3.org/1999/xlink" x="0px" y="0px"
	 viewBox="0 0 206 206" style="enable-background:new 0 0 206 206;" xml:space="preserve">
<style type="text/css">
	.st0{fill:url(#SVGID_1_);}
	.st1{fill:url(#SVGID_2_);}
	.st2{fill:#EFEFEF;}
	.st3{fill:url(#SVGID_3_);}
	.st4{fill:url(#SVGID_4_);}
	.st5{fill:url(#SVGID_5_);}
	.st6{fill:url(#SVGID_6_);}
	.st7{fill:#FFFFFF;}
	.st8{fill:#BF0000;}
	.st9{fill:url(#SVGID_7_);}
	.st10{fill:url(#SVGID_8_);}
	.st11{fill:url(#SVGID_9_);}
	.st12{fill:#085400;}
</style>
<g id="button">
	<linearGradient id="SVGID_1_" gradientUnits="userSpaceOnUse" x1="103" y1="0.3054" x2="103" y2="206.3054">
		<stop  offset="0" style="stop-color:#D8D8D8"/>
		<stop  offset="0.2422" style="stop-color:#DFDFDF"/>
		<stop  offset="0.5391" style="stop-color:#EFEFEF"/>
		<stop  offset="0.6172" style="stop-color:#DCDCDC"/>
		<stop  offset="0.777" style="stop-color:#BBBBBB"/>
		<stop  offset="0.9103" style="stop-color:#A7A7A7"/>
		<stop  offset="1" style="stop-color:#A0A0A0"/>
	</linearGradient>
	<path class="st0" d="M206,103c0,56.9-46.1,103-103,103S0,159.9,0,103S46.1,0,103,0S206,46.1,206,103z"/>
	<linearGradient id="SVGID_2_" gradientUnits="userSpaceOnUse" x1="103" y1="3" x2="103" y2="203">
		<stop  offset="0" style="stop-color:#C9C9C9"/>
		<stop  offset="0.1722" style="stop-color:#D0D0D0"/>
		<stop  offset="0.4241" style="stop-color:#E4E4E4"/>
		<stop  offset="0.5391" style="stop-color:#EFEFEF"/>
		<stop  offset="0.6823" style="stop-color:#C4C4C4"/>
		<stop  offset="0.8153" style="stop-color:#A2A2A2"/>
		<stop  offset="0.9257" style="stop-color:#8E8E8E"/>
		<stop  offset="1" style="stop-color:#878787"/>
	</linearGradient>
	<path class="st1" d="M203,103c0,55.2-44.8,100-100,100S3,158.2,3,103S47.8,3,103,3S203,47.8,203,103z"/>
	<path class="st2" d="M189,103c0,47.5-38.5,86-86,86s-86-38.5-86-86s38.5-86,86-86S189,55.5,189,103z"/>
	<linearGradient id="SVGID_3_" gradientUnits="userSpaceOnUse" x1="103" y1="18.1135" x2="103" y2="186.613">
		<stop  offset="0" style="stop-color:#000000"/>
		<stop  offset="1" style="stop-color:#757575"/>
	</linearGradient>
	<path class="st3" d="M187,103c0,46.4-37.6,84-84,84s-84-37.6-84-84s37.6-84,84-84S187,56.6,187,103z"/>
	<path d="M183,103c0,44.2-35.8,80-80,80s-80-35.8-80-80s35.8-80,80-80S183,58.8,183,103z"/>
</g>
<g id="green-play-button">
	<linearGradient id="SVGID_7_" gradientUnits="userSpaceOnUse" x1="103" y1="23.506" x2="103" y2="181.7945">
		<stop  offset="0" style="stop-color:#08A000"/>
		<stop  offset="1" style="stop-color:#00680A"/>
	</linearGradient>
	<path class="st9" d="M182,103c0,43.6-35.4,79-79,79s-79-35.4-79-79s35.4-79,79-79S182,59.4,182,103z"/>
	<linearGradient id="SVGID_8_" gradientUnits="userSpaceOnUse" x1="103" y1="26" x2="103" y2="179.228">
		<stop  offset="0" style="stop-color:#00BF0D"/>
		<stop  offset="1" style="stop-color:#0B9300"/>
	</linearGradient>
	<path class="st10" d="M180,103c0,42.5-34.5,77-77,77s-77-34.5-77-77s34.5-77,77-77S180,60.5,180,103z"/>
	<radialGradient id="SVGID_9_" cx="102.2106" cy="25.6875" r="123.9693" gradientUnits="userSpaceOnUse">
		<stop  offset="0" style="stop-color:#FFFFFF"/>
		<stop  offset="0.8715" style="stop-color:#FFFFFF;stop-opacity:0"/>
	</radialGradient>
	<path class="st11" d="M180,103c0,42.5-154,42.5-154,0s34.5-77,77-77S180,60.5,180,103z"/>
	<path class="st7" d="M135,106.4l-48.1,27.8c-2.7,1.5-6-0.4-6-3.4V75.2c0-3.1,3.3-5,6-3.4L135,99.6
		C137.6,101.1,137.6,104.9,135,106.4z"/>
	<path class="st12" d="M82.2,133.6c-0.7-0.7-1.2-1.7-1.2-2.9V75.2c0-3.1,3.3-5,6-3.4L135,99.6c1.3,0.7,2,2,2,3.4L85.8,73.4
		c-1.6-0.9-3.6,0.2-3.6,2.1V133.6z"/>
</g>
</svg>
