<?xml version="1.0" encoding="utf-8"?>
<!-- Generator: Adobe Illustrator 24.0.0, SVG Export Plug-In . SVG Version: 6.00 Build 0)  -->
<svg version="1.1" id="Layer_1" xmlns="http://www.w3.org/2000/svg" xmlns:xlink="http://www.w3.org/1999/xlink" x="0px" y="0px"
	 viewBox="0 0 159.8 93.1" style="enable-background:new 0 0 159.8 93.1;" xml:space="preserve">
<style type="text/css">
	.st0{fill:#FF2727;}
	.st1{fill:#DB0000;}
</style>
<path class="st0" d="M158.5,29.8c-1.5,11.1-1.6,22.2-0.3,33.3c0.8,6.7-0.5,13.3-4.3,19c-9.5,14.4-24.8,12.2-41.8,1
	c-3.3-2.1-9-6.9-14.6-12.6c-1.5,0.6-3.2,0.8-4.9,0.4c-13.6-3-10.8-3-24.4-0.1c-2.2,0.5-4.3,0-6-1.1C56.4,75.5,50.4,80.3,47,82.4
	C29.8,93.3,14.4,95.2,5.2,80.6c-3.6-5.7-4.8-12.4-3.9-19C2.8,50.5,3,39.4,1.6,28.3C0.8,21.6,2.2,15,5.9,9.3
	c9.5-14.4,25.9-7.8,42.9,3.4c3.1,2,8,6.3,13,11.2c1.7-1.4,4-2.1,6.3-1.8c14,2,11.6,2,25.6,0.3c1.9-0.2,3.8,0.2,5.3,1.2
	c4.8-4.6,9.6-8.4,12.5-10.3c17.2-10.9,33.7-17.2,43-2.6C158.3,16.4,159.5,23.1,158.5,29.8z"/>
<path class="st1" d="M59.2,66.6C53,72.8,38.5,82,28.6,84c-13,2.6-20.2-7.2-21-11.3c-0.8-4.1,4.5-8.7,17.5-11.4
	c9.7-2,24.9-3,32.5-1.7c0.2,1.5,0.5,3,0.7,4.5C58.5,65,58.8,65.8,59.2,66.6z M134.8,62.3c-9.2-2.1-23.6-3.3-31.5-2.4
	c-0.1,1.3-0.3,2.6-0.5,4c-0.2,1.5-0.8,2.9-1.7,4c6,6.4,18.7,15.5,28.1,17.6c13,2.9,22-7.3,22.9-11.4C153,69.9,147.8,65.2,134.8,62.3
	z"/>
<path d="M155.5,10.2c-10.4-16.3-29.2-7.4-44.4,2.3c-2.6,1.7-7.3,5.4-12.1,9.9c-1.6-0.8-3.4-1.2-5.3-0.9l-2.9,0.3
	C81,23,81,23,71.6,21.6l-3.4-0.5c-2.3-0.3-4.5,0.2-6.4,1.4c-4.9-4.9-9.8-8.9-12.5-10.7C34.4,1.9,15.8-7.4,5.1,8.7
	c-3.8,5.7-5.3,12.5-4.4,19.7c1.3,10.9,1.2,22.1-0.3,33c-1,7.1,0.4,14,4,19.7c4.6,7.2,10.9,10.9,18.7,10.9c0,0,0,0,0,0
	c7,0,15.2-3,24.4-8.8c2.9-1.8,9-6.5,14.9-12.3c1.9,0.9,4,1.2,6.1,0.8c1.4-0.3,2.7-0.6,3.8-0.8c8.4-1.8,8.4-1.8,17,0.2
	c1,0.2,2,0.5,3.2,0.7c0.7,0.2,1.4,0.2,2.1,0.2c0.9,0,1.9-0.1,2.8-0.4c5.7,5.8,11.5,10.4,14.3,12.3c9.3,6.2,17.6,9.2,24.7,9.2
	c7.6,0,13.8-3.5,18.4-10.5c3.8-5.7,5.3-12.5,4.4-19.6c-1.3-11-1.2-22.1,0.3-33.1C160.5,22.8,159.1,15.9,155.5,10.2z M46.5,81.6
	c-8.9,5.6-16.8,8.5-23.4,8.5c0,0,0,0,0,0c-7.1,0-12.8-3.4-17-10c0,0,0,0,0,0c-3.4-5.3-4.7-11.7-3.8-18.4C3.8,50.6,4,39.3,2.6,28.2
	c-0.8-6.7,0.6-13,4.1-18.3c3.4-5.2,7.9-7.8,13.8-7.8c7.1,0,16.2,3.8,27.8,11.5c3,2,7.5,5.8,12.1,10.3c-1.2,1.2-2,2.7-2.4,4.4
	c-2.2,10-2.7,20.1-1.5,30.2c-8.8-1.2-24.1,0.3-31.5,1.8c-6.3,1.3-11.1,3.1-14.3,5.3c-3.9,2.7-4.3,5.5-4,7.3
	c0.8,4.2,7,12.6,17.7,12.6c1.4,0,2.9-0.1,4.5-0.5c9-1.8,23.2-10.3,30.2-16.9c0.5,0.6,1,1.2,1.6,1.7C55.4,75.1,49.9,79.4,46.5,81.6z
	 M57.4,64.3c0.1,0.7,0.4,1.4,0.6,2C51.9,72,38.3,81,28.4,83C15.5,85.6,9.2,75.5,8.6,72.5c-0.4-2.2,1.5-4.1,3.1-5.2
	c2.9-2,7.6-3.7,13.6-5c7.5-1.5,16.3-2.2,23.3-2.2c3.2,0,6,0.1,8.2,0.4C56.9,61.7,57.1,63,57.4,64.3z M92.9,69.9
	c-1.2-0.3-2.3-0.5-3.2-0.7c-9-2-9.2-2.1-17.9-0.2c-1.1,0.2-2.3,0.5-3.7,0.8c-1.9,0.4-3.9,0-5.5-1.1c-1.7-1.1-2.8-2.8-3.2-4.8
	c-2.3-11.7-2.1-23.6,0.5-35.2c0.8-3.7,4.4-6.1,8.1-5.6l3.3,0.5C81,25,81,25,91,23.8l2.9-0.3c3.9-0.5,7.6,2.3,8.1,6.2
	c1.5,11.3,1.5,22.8-0.2,34c-0.3,2.1-1.4,3.9-3.1,5C97,69.9,94.9,70.3,92.9,69.9z M103.8,64c0.2-1.1,0.3-2.1,0.4-3.2
	c1.4-0.1,3.1-0.2,5.2-0.2c0.7,0,1.5,0,2.3,0c7.4,0.2,16.4,1.2,22.9,2.7c13.3,3,17.2,7.5,16.5,10.5c-0.8,3.4-9,13.5-21.7,10.6
	c-5.6-1.3-13.3-5.4-20.5-11c-2.8-2.1-4.9-4.1-6.5-5.7C103.1,66.6,103.6,65.4,103.8,64z M157.5,29.6c-1.5,11.1-1.7,22.4-0.3,33.6
	c0.8,6.7-0.6,13-4.1,18.3c-8.4,12.7-22,12.9-40.4,0.7c-3.3-2.2-8.4-6.4-13.5-11.5c0.2-0.1,0.4-0.2,0.6-0.3c0.5-0.3,0.9-0.7,1.3-1.1
	c2.6,2.6,5.5,5,6.5,5.7c7.5,5.8,15.4,10,21.3,11.3c1.6,0.4,3.2,0.5,4.7,0.5c10.8,0,18.5-8.4,19.4-12.7c1.2-5.3-5.6-10.1-18-12.9
	c-6.6-1.5-15.7-2.5-23.2-2.7c-3-0.1-5.4,0-7.4,0.2c1-9.8,0.9-19.6-0.5-29.4c-0.3-2.4-1.6-4.5-3.3-5.9c4.4-4.1,8.6-7.5,11.5-9.4
	c11.5-7.3,20.6-11,27.6-11c6,0,10.6,2.7,14,8C157.2,16.6,158.5,23,157.5,29.6z"/>
</svg>
