<?xml version="1.0" encoding="utf-8"?>
<!-- Generator: Adobe Illustrator 24.0.0, SVG Export Plug-In . SVG Version: 6.00 Build 0)  -->
<svg version="1.1" id="Layer_1" xmlns="http://www.w3.org/2000/svg" xmlns:xlink="http://www.w3.org/1999/xlink" x="0px" y="0px"
	 viewBox="0 0 173.6 150.9" style="enable-background:new 0 0 173.6 150.9;" xml:space="preserve">
    <style type="text/css">
	.st0{fill:#FFE600;}
</style>
    <g id="dress">
        <path class="st0" d="M29.6,92.8L47.4,8.7c0,0,12-6.7,27.4-7.6c0,6.1,9.8,6.8,11.9,6.8c2.1-0.1,11.9-0.7,11.9-6.8
		C114,2,126,8.7,126,8.7l17.8,84.1l0,0c11.1,3.9,22.7,13.6,28.7,24.9c-14,23.2-58.3,32.2-85.8,32.2s-71.8-9-85.8-32.2
		C6.8,106.4,18.5,96.6,29.6,92.8L29.6,92.8z"/>
        <path d="M173.5,117.2c-5.8-10.9-17.2-21-28.7-25.1L127.1,8.5c-0.1-0.3-0.2-0.5-0.5-0.7c-0.5-0.3-12.4-6.9-27.9-7.8
		c-0.3,0-0.5,0.1-0.7,0.3S97.7,0.8,97.7,1c0,5.2-8.9,5.8-10.9,5.8c-2-0.1-10.9-0.7-10.9-5.8c0-0.3-0.1-0.5-0.3-0.7S75.1,0,74.9,0
		C59.5,0.9,47.5,7.5,47,7.8c-0.3,0.1-0.4,0.4-0.5,0.7L28.8,92.1c-11.5,4.2-22.9,14.2-28.7,25.1c-0.2,0.3-0.2,0.7,0,1
		c14.4,24,59.8,32.7,86.7,32.7s72.2-8.7,86.7-32.7C173.6,117.8,173.6,117.5,173.5,117.2z M48.2,9.3C50.3,8.2,60.8,3,73.9,2.1
		c0.9,5.6,9.2,6.6,12.2,6.8c0.1,0,0.2,0,0.3,0h0.8c0.1,0,0.2,0,0.3,0c3-0.2,11.3-1.2,12.2-6.8c13,1,23.5,6.1,25.7,7.2l17.6,83
		c-3,2.1-19.9,12.6-56.1,12.6c-36.1-0.1-53.1-10.6-56.1-12.6L48.2,9.3z M86.8,148.8c-26.3,0-70.3-8.3-84.7-31.2
		c5.6-10.3,16.4-19.7,27.3-23.7v-0.1c2.8,2,19.6,13,56.9,13.1c0,0,0,0,0.1,0c0.3,0,0.5,0,0.8,0c0,0,0,0,0.1,0
		c37.4-0.2,54.1-11.1,56.9-13.1v0.1c10.8,4,21.7,13.4,27.3,23.7C157.1,140.5,113,148.8,86.8,148.8z"/>
    </g>
</svg>