<svg version="1.1" id="Layer_1" xmlns="http://www.w3.org/2000/svg" x="0" y="0" viewBox="0 0 154.6 39.6" style="enable-background:new 0 0 154.6 39.6" xml:space="preserve"><style>.st0{fill:#138ee2}</style><g id="sandals"><g id="sandals-right"><path class="st0" d="M152.9 34.4c-2 3.7-7.4 4.5-13.5 4 .1 0 .1.1.2.1-.3-.1-.7-.1-1.1-.2-1-.1-2-.2-3-.4-12.2-1-33.2 2.1-42.1-3.3-.3-1.4-.3-3.2-.2-4.7l-.3-.3c-2.5-3 .4-10.4 3.1-18.7 2.4 3.1 8.3 5.7 14.8 6.9C117 12.5 124.4 3.9 125.4 1c2.2.8 3.9 2.8 4.5 3.9-.3 3.4-6.2 9.1-12 13.6 7.7 0 14.7-2.5 15.8-9.1 17.7 7.5 21.9 19.9 19.2 25z"/><path d="M153.8 26.3c-2.5-7.1-9.7-13.5-19.6-17.7-.3-.1-.6-.1-.9 0-.3.1-.5.4-.5.7-.8 4.7-5 6.7-8.3 7.6-1.1.3-2.3.5-3.5.6 5-4.1 9.7-9 10-12.4 0-.2 0-.4-.2-.6-.9-1.4-2.8-3.4-5-4.3-.3-.1-.5-.1-.8 0-.2.1-.4.3-.5.6-.9 2.6-7.9 10.8-14 16.1-6.1-1.2-11.5-3.7-13.7-6.4-.2-.3-.6-.4-1-.4-.4.1-.7.3-.8.7l-.8 2.3c-2.6 7.6-4.8 14.2-2.2 17.3-.1 1.6 0 3.3.2 4.5 0 .3.2.5.5.7 6.2 3.7 17.6 3.5 28.6 3.3 5-.1 9.8-.2 13.7.1 1 .2 6.4.6 7.2.6 5.1 0 9.5-1.2 11.3-4.7 1.4-2.2 1.4-5.4.3-8.6zM126 2.4c1.3.8 2.4 1.9 3 2.8-.6 2.9-5.7 8-11.3 12.4-1.5 0-3-.1-4.5-.3 5.2-4.9 10.9-11.5 12.8-14.9zm-4.5 34.4c-10 .2-21.3.4-27.2-2.8-.1-.8-.2-1.6-.2-2.5 2.9 1.2 8.1 1.8 15.2 2.5 3.8.4 7.5.8 9.8 1.3.8.2 1.9.5 3.1.8l2.4.6c-1 0-2 .1-3.1.1zM133.5 36.6c-4-.7-8-1.7-10.8-2.4-1.3-.3-2.3-.6-3.2-.8-2.4-.5-6.1-.9-10-1.3-5.6-.6-13.7-1.5-15.3-2.7s-1.3-2.8-1.3-2.8c-.1-3.1 1.6-7.9 3.3-13l.2-.7c2.7 2.4 7.2 4.4 12.1 5.5l2.5.5c1.3.2 2.6.4 4 .5l3.2.1c2.3 0 4.6-.3 6.6-.8 5.1-1.3 8.4-4 9.5-7.9 12.5 5.6 16.3 13.1 17.4 16.1 1 2.8 1 5.3.1 7-1.7 3.2-6.7 3.9-12.3 3.5l-6-.8z"/></g><g id="sandals-left_1_"><path class="st0" d="M20.9 9.4C22 16 29 18.5 36.7 18.5 30.9 14 25 8.3 24.7 4.9c.7-1 2.3-3 4.5-3.9 1 2.9 8.4 11.5 14.6 16.8 6.5-1.2 12.4-3.8 14.8-6.9 2.7 8.2 5.6 15.7 3.1 18.7l-.3.3c.1 1.5.1 3.3-.2 4.7-8.9 5.3-29.8 2.2-42.1 3.3-1 .2-2 .3-3 .4-.4.1-.7.1-1.1.2 0 0 .1-.1.2-.1-6.1.5-11.5-.2-13.5-4-2.6-5.1 1.5-17.5 19.2-25z"/><path d="M.9 34.8c1.8 3.5 6.2 4.7 11.3 4.7.8 0 6.2-.5 7.2-.6 3.9-.3 8.7-.2 13.7-.1 11 .2 22.4.5 28.6-3.3.2-.1.4-.4.5-.7.2-1.2.3-3 .2-4.5 2.6-3.1.4-9.7-2.2-17.3l-.8-2.3c-.1-.4-.4-.6-.8-.7-.4-.1-.7.1-1 .4-2.1 2.8-7.6 5.3-13.7 6.4-6-5.3-13.1-13.5-14-16.1-.1-.3-.3-.5-.5-.6s-.5-.1-.8 0c-2.2.8-4.1 2.8-5 4.3-.1.2-.2.4-.2.6.3 3.4 5 8.3 10 12.4-1.2-.1-2.4-.3-3.5-.6-3.4-.8-7.5-2.8-8.3-7.6 0-.3-.2-.6-.5-.7s-.6-.2-.9 0C10.3 12.7 3.1 19.2.6 26.2c-.9 3.3-.9 6.5.3 8.6zm40.6-17.5c-1.5.2-3 .3-4.5.3-5.7-4.4-10.7-9.5-11.3-12.4.6-.8 1.7-2 3-2.8 1.8 3.4 7.6 10 12.8 14.9zM30 36.7c.9-.2 1.7-.4 2.4-.6 1.2-.3 2.3-.6 3.1-.8 2.3-.5 5.9-.9 9.8-1.3 7-.7 12.3-1.3 15.2-2.5 0 .8 0 1.7-.2 2.5-5.9 3.2-17.2 3-27.2 2.8-1 0-2.1-.1-3.1-.1zM14.9 37.4c-5.6.4-10.5-.2-12.3-3.5-.9-1.7-.8-4.2.1-7 1.1-3 4.9-10.5 17.4-16.1 1.1 3.9 4.4 6.7 9.5 7.9 2 .5 4.3.7 6.6.8l3.2-.1c1.3-.1 2.7-.3 4-.5l2.5-.5c5-1.1 9.5-3.1 12.1-5.5l.2.7c1.7 5.1 3.4 9.9 3.3 13 0 0 .3 1.7-1.3 2.8s-9.7 2.1-15.3 2.7c-3.9.4-7.6.8-10 1.3-.8.2-1.9.5-3.2.8-2.9.7-6.8 1.7-10.8 2.4l-6 .8z"/></g></g></svg>