<?xml version="1.0" encoding="utf-8"?>
<!-- Generator: Adobe Illustrator 24.0.0, SVG Export Plug-In . SVG Version: 6.00 Build 0)  -->
<svg version="1.1" id="ball" xmlns="http://www.w3.org/2000/svg" xmlns:xlink="http://www.w3.org/1999/xlink" x="0px" y="0px"
	 viewBox="0 0 290.4 290.4" style="enable-background:new 0 0 290.4 290.4;" xml:space="preserve">
<style type="text/css">
	.st0_ball{fill:#FFFFFF;}
	.st1_ball{fill:#EAEAEA;}
</style>
<path id="ball_1_" class="st0_ball" d="M289.4,145.2c0,79.6-64.6,144.2-144.2,144.2S1,224.9,1,145.2S65.6,1,145.2,1
	S289.4,65.6,289.4,145.2z"/>
<path id="hadow" class="st1_ball_ball" d="M289.4,145.2c0,79.6-64.6,144.2-144.2,144.2c-52.7,0-98.7-28.2-123.9-70.4
	c25.1,21.1,57.5,33.9,92.8,33.9c79.6,0,144.2-64.6,144.2-144.2c0-27-7.4-52.2-20.3-73.8C269.5,61.3,289.4,100.9,289.4,145.2z"/>
<path id="circuit" d="M145.2,0C65.1,0,0,65.1,0,145.2s65.1,145.2,145.2,145.2s145.2-65.1,145.2-145.2S225.3,0,145.2,0z M97.3,31.4
	c0.5,0.6,1.2,1,2.1,1.3c16.3,4.7,30.6,10.5,42.5,17.2c0.7,0.4,1.4,0.6,2.3,0.7v46h2V50.5c0.6-0.1,1.2-0.3,1.7-0.6
	c11.5-6.7,25.8-12.6,42.5-17.4c0.9-0.3,1.6-0.7,2.1-1.2c17.8,7.5,33.5,19.1,45.9,33.6c-0.3,0.6-0.4,1.3-0.4,2
	c0.5,16.9-0.6,32.3-3.2,45.7c-0.1,0.3-0.1,0.6-0.1,1c0,0.3,0,0.6,0.1,0.8L192.9,131c-0.3-0.6-0.6-1.1-1.1-1.5
	c-12.9-12.4-27.7-23.1-44-32c-1.6-0.9-3.5-0.9-5.1-0.1c-16.7,8.5-31.6,19.3-44.2,32.1c-0.3,0.3-0.5,0.6-0.8,1l-42.4-15.3
	c0.1-0.3,0.1-0.7,0.1-1c0-0.4,0-0.7-0.1-1c-2.9-13-4-28.4-3.4-45.8c0-0.8-0.1-1.5-0.4-2.1c2.5-3,5.2-5.9,8-8.6
	C70.7,45.8,83.5,37.3,97.3,31.4z M24.1,154c9.5-14,19.5-25.8,29.5-35.1c0.5-0.5,0.9-1,1.2-1.7L97,132.4c-0.1,0.6-0.1,1.2,0,1.8
	c2.7,16.8,8.2,33.8,16.9,51.9c0.2,0.5,0.6,1,1,1.4l-25.6,34c-0.7-0.4-1.5-0.7-2.3-0.8c-13.3-1.3-28.3-5-44.6-10.9
	c-0.2-0.1-0.4-0.1-0.6-0.2c-10.5-16.4-16.8-35.1-18.5-54.7C23.6,154.7,23.9,154.4,24.1,154z M116.1,263.1
	c-10.4-13.4-18.5-26.5-24.2-38.9c-0.2-0.5-0.6-1-1-1.4l25.6-34.1c0.4,0.2,0.9,0.4,1.4,0.5c8.4,1.5,17.1,2.2,26.2,2.2
	c9.2,0,18.7-0.8,28.4-2.3c0.5-0.1,1.1-0.3,1.6-0.5l25.9,33.9c-0.4,0.4-0.7,0.9-0.9,1.3c-5.3,12.2-13.4,25.3-24.1,39
	c-9.5,2.4-19.5,3.7-29.7,3.7c-0.4,0-0.9,0-1.3,0C134.4,266.4,125.1,265.2,116.1,263.1z M248.9,209.1c-0.2,0-0.3,0.1-0.5,0.1
	c-15.9,5.7-30.9,9.5-44.5,11.1c-0.8,0.1-1.6,0.4-2.4,0.9l-25.8-33.8c0.4-0.4,0.7-0.8,0.9-1.3c8.2-16.6,13.9-34,16.8-51.8
	c0.1-0.5,0.1-0.9,0-1.4l41.9-16.6c0.3,0.7,0.8,1.4,1.3,1.9c10,8.9,20,20.7,29.7,35.1c0.2,0.4,0.5,0.7,0.8,0.9
	C265.5,174.4,259,193,248.9,209.1z M265.7,67.8c-9.3-2.8-17.6-4.3-25.2-4.4c-0.2,0-0.4,0-0.6,0.1c-12.6-14.8-28.6-26.6-46.9-34.2
	c0,0,0,0,0-0.1c-1.8-7-5.6-14.5-11.7-22.6C216.5,15.8,246.5,38,265.7,67.8z M108.9,6.7c-5.6,8-9.5,15.5-12,22.7c0,0,0,0.1,0,0.1
	c-14.2,6-27.3,14.7-38.7,25.8C55.4,58,52.7,61,50.1,64c-0.1,0-0.3-0.1-0.4-0.1c-7.2-0.5-15.5,0.9-25.1,4.1
	C43.8,38.2,73.7,15.9,108.9,6.7z M2.2,137c5.9,7.8,11.7,13.8,17.8,18.4c0.4,0.3,0.8,0.4,1.3,0.4c0,0,0,0,0,0
	c1.8,19.3,8,37.7,18.1,54c-0.5,0.2-0.9,0.6-1.1,1.1c-2.7,6.7-4,15-3.8,25.1C14.2,211.3,2,179.7,2,145.2C2,142.4,2.1,139.7,2.2,137z
	 M93.2,278.6c9.2-3.2,16.8-6.9,23-11.3c0.5-0.3,0.8-0.8,0.9-1.4c0-0.2,0-0.4,0-0.5c8.7,2,17.7,3.1,26.8,3.2c0.5,0,0.9,0,1.3,0
	c9.9,0,19.5-1.2,28.7-3.4c-0.1,0.8,0.2,1.5,0.7,1.9c5.6,4.7,13.1,8.4,22.8,11.4c-16.2,6.4-33.8,9.9-52.2,9.9
	C126.9,288.4,109.3,285,93.2,278.6z M256,235.8c-0.2-9.7-1.4-18-3.6-25.3c-0.2-0.6-0.6-1-1.1-1.3c0,0-0.1,0-0.1,0
	c9.9-16,16.2-34.4,17.9-54c0,0,0,0,0,0c0.4,0,0.8-0.1,1.1-0.3c6.2-3.9,12.1-9.8,17.9-18.1c0.2,2.8,0.3,5.6,0.3,8.5
	C288.4,179.6,276.3,211.1,256,235.8z"/>
<path id="light" class="st0_ball" d="M135.7,136c-9.7,8.2-18.6,13.8-22.7,9.1s-1.6-18.1,8.1-26.3s22.9-8.2,27-3.4
	C152.1,120.1,145.4,127.8,135.7,136z"/>
</svg>
