<?xml version="1.0" encoding="utf-8"?>
<!-- Generator: Adobe Illustrator 24.0.0, SVG Export Plug-In . SVG Version: 6.00 Build 0)  -->
<svg version="1.1" id="Layer_1" xmlns="http://www.w3.org/2000/svg" xmlns:xlink="http://www.w3.org/1999/xlink" x="0px" y="0px"
	 viewBox="0 0 154.6 39.6" style="enable-background:new 0 0 154.6 39.6;" xml:space="preserve">
<style type="text/css">
	.st0{fill:#138EE2;}
</style>
<g id="sandals">
	<g id="sandals-right">
		<path class="st0" d="M152.9,34.4c-2,3.7-7.4,4.5-13.5,4c0.1,0,0.1,0.1,0.2,0.1c-0.3-0.1-0.7-0.1-1.1-0.2c-1-0.1-2-0.2-3-0.4
			c-12.2-1-33.2,2.1-42.1-3.3c-0.3-1.4-0.3-3.2-0.2-4.7c-0.1-0.1-0.2-0.2-0.3-0.3c-2.5-3,0.4-10.4,3.1-18.7
			c2.4,3.1,8.3,5.7,14.8,6.9C117,12.5,124.4,3.9,125.4,1c2.2,0.8,3.9,2.8,4.5,3.9c-0.3,3.4-6.2,9.1-12,13.6c7.7,0,14.7-2.5,15.8-9.1
			C151.4,16.9,155.6,29.3,152.9,34.4z"/>
		<path d="M153.8,26.3c-2.5-7.1-9.7-13.5-19.6-17.7c-0.3-0.1-0.6-0.1-0.9,0c-0.3,0.1-0.5,0.4-0.5,0.7c-0.8,4.7-5,6.7-8.3,7.6
			c-1.1,0.3-2.3,0.5-3.5,0.6c5-4.1,9.7-9,10-12.4c0-0.2,0-0.4-0.2-0.6c-0.9-1.4-2.8-3.4-5-4.3c-0.3-0.1-0.5-0.1-0.8,0
			c-0.2,0.1-0.4,0.3-0.5,0.6c-0.9,2.6-7.9,10.8-14,16.1c-6.1-1.2-11.5-3.7-13.7-6.4c-0.2-0.3-0.6-0.4-1-0.4
			c-0.4,0.1-0.7,0.3-0.8,0.7l-0.8,2.3c-2.6,7.6-4.8,14.2-2.2,17.3l0,0c-0.1,1.6,0,3.3,0.2,4.5c0,0.3,0.2,0.5,0.5,0.7
			c6.2,3.7,17.6,3.5,28.6,3.3c5-0.1,9.8-0.2,13.7,0.1c1,0.2,6.4,0.6,7.2,0.6c5.1,0,9.5-1.2,11.3-4.7
			C154.9,32.7,154.9,29.5,153.8,26.3z M126,2.4c1.3,0.8,2.4,1.9,3,2.8c-0.6,2.9-5.7,8-11.3,12.4c-1.5,0-3-0.1-4.5-0.3
			C118.4,12.4,124.1,5.8,126,2.4z M121.5,36.8c-10,0.2-21.3,0.4-27.2-2.8c-0.1-0.8-0.2-1.6-0.2-2.5c2.9,1.2,8.1,1.8,15.2,2.5
			c3.8,0.4,7.5,0.8,9.8,1.3c0.8,0.2,1.9,0.5,3.1,0.8c0.8,0.2,1.6,0.4,2.4,0.6C123.6,36.7,122.6,36.8,121.5,36.8z M98.3,24.9
			L98.3,24.9 M133.5,36.6c-4-0.7-8-1.7-10.8-2.4c-1.3-0.3-2.3-0.6-3.2-0.8c-2.4-0.5-6.1-0.9-10-1.3c-5.6-0.6-13.7-1.5-15.3-2.7
			s-1.3-2.8-1.3-2.8c-0.1-3.1,1.6-7.9,3.3-13l0.2-0.7c2.7,2.4,7.2,4.4,12.1,5.5l2.5,0.5c1.3,0.2,2.6,0.4,4,0.5l3.2,0.1
			c2.3,0,4.6-0.3,6.6-0.8c5.1-1.3,8.4-4,9.5-7.9c12.5,5.6,16.3,13.1,17.4,16.1c1,2.8,1,5.3,0.1,7c-1.7,3.2-6.7,3.9-12.3,3.5
			L133.5,36.6z"/>
	</g>
	<g id="sandals-left_1_">
		<path class="st0" d="M20.9,9.4C22,16,29,18.5,36.7,18.5C30.9,14,25,8.3,24.7,4.9c0.7-1,2.3-3,4.5-3.9c1,2.9,8.4,11.5,14.6,16.8
			c6.5-1.2,12.4-3.8,14.8-6.9c2.7,8.2,5.6,15.7,3.1,18.7c-0.1,0.1-0.2,0.2-0.3,0.3c0.1,1.5,0.1,3.3-0.2,4.7
			c-8.9,5.3-29.8,2.2-42.1,3.3c-1,0.2-2,0.3-3,0.4c-0.4,0.1-0.7,0.1-1.1,0.2c0,0,0.1-0.1,0.2-0.1c-6.1,0.5-11.5-0.2-13.5-4
			C-0.9,29.3,3.2,16.9,20.9,9.4z"/>
		<path d="M0.9,34.8c1.8,3.5,6.2,4.7,11.3,4.7c0.8,0,6.2-0.5,7.2-0.6c3.9-0.3,8.7-0.2,13.7-0.1c11,0.2,22.4,0.5,28.6-3.3
			c0.2-0.1,0.4-0.4,0.5-0.7c0.2-1.2,0.3-3,0.2-4.5l0,0c2.6-3.1,0.4-9.7-2.2-17.3l-0.8-2.3c-0.1-0.4-0.4-0.6-0.8-0.7
			c-0.4-0.1-0.7,0.1-1,0.4c-2.1,2.8-7.6,5.3-13.7,6.4c-6-5.3-13.1-13.5-14-16.1c-0.1-0.3-0.3-0.5-0.5-0.6s-0.5-0.1-0.8,0
			c-2.2,0.8-4.1,2.8-5,4.3c-0.1,0.2-0.2,0.4-0.2,0.6c0.3,3.4,5,8.3,10,12.4c-1.2-0.1-2.4-0.3-3.5-0.6c-3.4-0.8-7.5-2.8-8.3-7.6
			c0-0.3-0.2-0.6-0.5-0.7s-0.6-0.2-0.9,0C10.3,12.7,3.1,19.2,0.6,26.2C-0.3,29.5-0.3,32.7,0.9,34.8z M41.5,17.3
			c-1.5,0.2-3,0.3-4.5,0.3c-5.7-4.4-10.7-9.5-11.3-12.4c0.6-0.8,1.7-2,3-2.8C30.5,5.8,36.3,12.4,41.5,17.3z M30,36.7
			c0.9-0.2,1.7-0.4,2.4-0.6c1.2-0.3,2.3-0.6,3.1-0.8c2.3-0.5,5.9-0.9,9.8-1.3c7-0.7,12.3-1.3,15.2-2.5c0,0.8,0,1.7-0.2,2.5
			c-5.9,3.2-17.2,3-27.2,2.8C32.1,36.8,31,36.7,30,36.7z M56.4,24.9L56.4,24.9 M14.9,37.4c-5.6,0.4-10.5-0.2-12.3-3.5
			c-0.9-1.7-0.8-4.2,0.1-7c1.1-3,4.9-10.5,17.4-16.1c1.1,3.9,4.4,6.7,9.5,7.9c2,0.5,4.3,0.7,6.6,0.8l3.2-0.1c1.3-0.1,2.7-0.3,4-0.5
			l2.5-0.5c5-1.1,9.5-3.1,12.1-5.5l0.2,0.7c1.7,5.1,3.4,9.9,3.3,13c0,0,0.3,1.7-1.3,2.8s-9.7,2.1-15.3,2.7c-3.9,0.4-7.6,0.8-10,1.3
			c-0.8,0.2-1.9,0.5-3.2,0.8c-2.9,0.7-6.8,1.7-10.8,2.4L14.9,37.4z"/>
	</g>
</g>
</svg>
