<svg xmlns="http://www.w3.org/2000/svg" viewBox="0 0 173.6 150.9" style="enable-background:new 0 0 173.6 150.9" xml:space="preserve"><path d="M29.6 92.8 47.4 8.7s12-6.7 27.4-7.6c0 6.1 9.8 6.8 11.9 6.8 2.1-.1 11.9-.7 11.9-6.8C114 2 126 8.7 126 8.7l17.8 84.1c11.1 3.9 22.7 13.6 28.7 24.9-14 23.2-58.3 32.2-85.8 32.2s-71.8-9-85.8-32.2c5.9-11.3 17.6-21.1 28.7-24.9z" style="fill:#ffe600"/><path d="M173.5 117.2c-5.8-10.9-17.2-21-28.7-25.1L127.1 8.5c-.1-.3-.2-.5-.5-.7-.5-.3-12.4-6.9-27.9-7.8-.3 0-.5.1-.7.3s-.3.5-.3.7c0 5.2-8.9 5.8-10.9 5.8-2-.1-10.9-.7-10.9-5.8 0-.3-.1-.5-.3-.7s-.5-.3-.7-.3C59.5.9 47.5 7.5 47 7.8c-.3.1-.4.4-.5.7L28.8 92.1C17.3 96.3 5.9 106.3.1 117.2c-.2.3-.2.7 0 1 14.4 24 59.8 32.7 86.7 32.7s72.2-8.7 86.7-32.7c.1-.4.1-.7 0-1zM48.2 9.3C50.3 8.2 60.8 3 73.9 2.1c.9 5.6 9.2 6.6 12.2 6.8H87.5c3-.2 11.3-1.2 12.2-6.8 13 1 23.5 6.1 25.7 7.2l17.6 83c-3 2.1-19.9 12.6-56.1 12.6-36.1-.1-53.1-10.6-56.1-12.6l17.4-83zm38.6 139.5c-26.3 0-70.3-8.3-84.7-31.2 5.6-10.3 16.4-19.7 27.3-23.7v-.1c2.8 2 19.6 13 56.9 13.1h1c37.4-.2 54.1-11.1 56.9-13.1v.1c10.8 4 21.7 13.4 27.3 23.7-14.4 22.9-58.5 31.2-84.7 31.2z"/></svg>