<?xml version="1.0" encoding="utf-8"?>
<!-- Generator: Adobe Illustrator 24.0.0, SVG Export Plug-In . SVG Version: 6.00 Build 0)  -->
<svg version="1.1" xmlns="http://www.w3.org/2000/svg" xmlns:xlink="http://www.w3.org/1999/xlink" x="0px" y="0px"
	 viewBox="0 0 347.9 584.5" style="enable-background:new 0 0 347.9 584.5;" xml:space="preserve">
    <style type="text/css">
	.st0{fill:#FF8888;}
	.st1{fill:#FFA6A6;}
	.st2{fill:#FFCFCF;}
	.st3{fill:#FFCEB6;}
	.st4{fill:#138EE2;}
	.st5{fill:#6B4844;}
	.st6{fill:#EF9A7F;}
	.st7{fill:#FF2727;}
	.st8{fill:#FFFFFF;}
	.st9{fill:#0051AA;}
	.st10{fill:#1977CC;}
	.st11{fill:#FFE600;}
	.st12{fill:#DB0000;}
</style>
    <g id="chair">
        <path class="st0" d="M327,412.5v149.7h-14V413.8l11.3-1.1L327,412.5z M224.1,422.6l-11.3,1.1v91.9h14v-93.3L224.1,422.6z
		 M136.4,431.2l-11.3,1.1v151.2h14V430.9L136.4,431.2z M74.6,404.4l-11.3-11.5v139.8h14V407.2L74.6,404.4z"/>
        <path class="st1" d="M345.4,396l-115.1-57.8c-2.3-1-4.9-1.4-7.4-1.2l-0.5,0V207c6.7,0.5,13.4,1.2,20.1,1.9c4.6,0.5,8.6-2.8,9.2-7.4
		c2-16.5,4-33,5.9-49.5c0.3-2.6-0.6-5.1-2.3-6.8c-1-1.1-2.4-1.9-3.9-2.3c-0.4-0.1-0.8-0.2-1.3-0.2c-77.8-8.5-156.3-5.5-233.2,8.8
		c-4.6,0.9-7.6,5.3-6.7,9.9c3.2,16.3,6.4,32.6,9.7,48.9c0,0.1,0,0.2,0.1,0.2c0.3,1.3,0.9,2.5,1.7,3.4c1.9,2.3,4.9,3.5,8,3
		c4.6-0.9,9.3-1.7,13.9-2.4c2.5-0.4,5.1-0.8,7.6-1.2v138.1l-7.6,0.6l-4.4,0.4c-1.4,0.1-2.2,1.2-2.2,2.4c0,0.6,0.2,1.2,0.7,1.7
		l5.8,5.8h0l11.4,11.3l8.5,8.4l11.3,11.2l2.7,2.7l24.4,24.2c0.7,0.7,1.6,1.3,2.6,1.6c0.9,0.3,1.9,0.5,2.9,0.4l9.6-0.9l8.9-0.8
		l78.8-7.2l8.5-0.8l11.3-1l2.7-0.3l77.7-7.1l19.8-1.8l11.4-1h0l9-0.8c1-0.1,1.7-0.7,2-1.5C347.1,398,346.7,396.5,345.4,396z
		 M192.3,339.6l-118.6,10V210.1c39.3-4.8,79-6.5,118.6-4.9c2.5,0.1,5.1,0.2,7.6,0.3v133.4L192.3,339.6z M304.5,414.7l8.5-0.8v148.3
		h0l-8.5-7.3v0V414.7z M204.3,508.3l8.5,7.3v-91.9l-8.5,0.8V508.3z M116.6,576.2l8.5,7.3V432.3l-8.5,0.8V576.2z M54.8,525.4l8.5,7.3
		v0V392.9l-8.5-8.6V525.4z"/>
        <path class="st2" d="M346.8,399.1v8.1v0.3c0,1.5-0.4,3-2.2,3.2l-17.7,1.7l-2.7,0.3l-11.3,1.1l-8.5,0.8l-77.7,7.6l-2.7,0.3
		l-11.3,1.1l-8.5,0.8l-65.2,6.4l-2.7,0.3l-11.3,1.1l-8.5,0.8l-9.6,0.9c-1.6,0.1-3.1-0.3-4.4-1.1c-0.4-0.3-0.7-0.5-1-0.8l-24.4-24.9
		l-2.7-2.8l-11.3-11.5l-8.5-8.6l-17.2-17.6c-0.5-0.5-0.7-1.1-0.7-1.7v0v-10.2c0,0.6,0.2,1.2,0.7,1.7l5.8,5.8h0l11.4,11.3l8.5,8.4
		l11.3,11.2l2.7,2.7l24.4,24.2c0.7,0.7,1.6,1.3,2.6,1.6c0.9,0.3,1.9,0.5,2.9,0.4l9.6-0.9l8.9-0.8l78.8-7.2l8.5-0.8l11.3-1l2.7-0.3
		l77.7-7.1l19.8-1.8l11.4-1h0l9-0.8c1-0.1,1.7-0.7,2-1.5L346.8,399.1z M10.3,161.4c-0.9-4.6,2.1-9,6.7-9.9
		c76.9-14.3,155.5-17.3,233.2-8.8c0.4,0,0.9,0.1,1.3,0.2c-0.3-1.4-0.9-2.6-1.8-3.6c-1.3-1.6-3.3-2.6-5.5-2.9
		c-77.8-8.5-156.3-5.5-233.2,8.8c-4.6,0.9-7.6,5.3-6.7,9.9c3.2,16.3,6.4,32.6,9.7,48.9c0.3,1.5,1,2.8,1.9,3.9l0,0l0.6,0.6l0,0
		c1,1,2.2,1.6,3.6,2c0-0.1,0-0.2-0.1-0.2C16.7,194,13.5,177.7,10.3,161.4z M199.9,338.9V205.5c-2.5-0.1-5.1-0.2-7.6-0.3v134.3
		L199.9,338.9z M51.2,351.4V213.3c-2.5,0.4-5.1,0.8-7.6,1.2V352L51.2,351.4z"/>
        <path d="M345.8,395.1l-115.1-57.8c-2.3-1-4.8-1.4-7.3-1.3V208.1c6.4,0.5,12.8,1.1,19,1.8c5.1,0.5,9.7-3.1,10.3-8.2l5.9-49.5
		c0.3-2.8-0.6-5.6-2.6-7.6c0,0,0,0,0,0l-5.7-5.9c0,0,0,0,0,0c-1.6-1.8-3.7-2.9-6.1-3.2c-77.9-8.5-156.5-5.5-233.5,8.8
		c-2.5,0.5-4.7,1.9-6.1,4c-1.4,2.1-1.9,4.6-1.4,7.1c3.2,16.3,6.4,32.6,9.7,48.9c0.3,1.6,1,3.1,2.1,4.3c0,0,0,0,0,0c0,0,0,0,0,0
		s0,0,0,0c0,0,0,0,0,0l5.9,6.1c0,0,0,0,0.1,0c1.8,2.2,4.4,3.4,7.2,3.4c0.6,0,1.1-0.1,1.7-0.2c4.1-0.8,8.4-1.5,12.7-2.2v135.4
		l-3.5,0.3c-1.5,0.1-2.7,1.2-3,2.7c0,0,0,0.1,0,0.1c0,0,0,0,0,0c0,0.1-0.1,0.2-0.1,0.3v10.6c0,0,0,0,0,0c0,0,0,0,0,0
		c0,0.9,0.4,1.7,1,2.3l16.9,17.3v140.6c0,0,0,0,0,0c0,0.1,0,0.3,0.1,0.4c0,0,0,0,0,0c0,0.1,0.1,0.2,0.2,0.3c0,0,0,0,0,0
		c0,0,0,0,0.1,0.1l8.4,7.3c0.2,0.2,0.4,0.2,0.7,0.2c0,0,0,0,0,0h13.9c0.6,0,1-0.4,1-1v-123l22.7,23.1c0.3,0.3,0.7,0.7,1.2,1
		c1.3,0.9,2.8,1.3,4.4,1.3c0.2,0,0.4,0,0.7,0l8.5-0.8v141.9c0,0,0,0,0,0c0,0.1,0,0.3,0.1,0.4c0,0,0,0,0,0c0,0.1,0.1,0.2,0.2,0.3
		c0,0,0,0,0,0c0,0,0,0,0.1,0.1l8.4,7.3c0,0,0.1,0.1,0.2,0.1c0,0,0.1,0.1,0.1,0.1c0.1,0,0.2,0.1,0.4,0.1h14c0.6,0,1-0.4,1-1V431.8
		l63.2-6.2v82.7c0,0,0,0,0,0c0,0.1,0,0.1,0,0.2c0,0.1,0,0.1,0,0.2c0,0.1,0.1,0.1,0.1,0.1c0,0.1,0.1,0.1,0.1,0.2c0,0,0,0,0,0l8.5,7.3
		c0,0,0.1,0.1,0.2,0.1c0,0,0.1,0.1,0.1,0.1c0.1,0,0.2,0.1,0.4,0.1h14c0.6,0,1-0.4,1-1v-92.4l75.7-7.4v139c0,0,0,0,0,0
		c0,0.1,0,0.2,0.1,0.3c0,0,0,0.1,0,0.1c0,0.1,0.1,0.2,0.2,0.2c0,0,0,0.1,0.1,0.1c0,0,0,0,0,0l8.5,7.3c0.1,0.1,0.2,0.1,0.2,0.1
		c0,0,0,0,0,0c0.1,0,0.2,0.1,0.4,0.1c0,0,0,0,0,0s0,0,0,0h14c0.6,0,1-0.4,1-1V413.4l16.7-1.6c1.2-0.1,3.1-0.8,3.1-4.2c0,0,0,0,0,0
		s0,0,0,0v-8.4c0-0.1,0-0.2-0.1-0.3C348.1,397.4,347.5,395.8,345.8,395.1z M52.2,214.1c6.6-1,13.5-2,20.5-2.9v137.3l-20.5,1.7V214.1
		z M74.7,211c38.5-4.7,77.8-6.3,116.6-4.9v132.5l-116.6,9.8V211z M193.3,206.2c1.9,0.1,3.7,0.2,5.6,0.3V338l-5.6,0.5V206.2z
		 M200.9,206.6c6.8,0.3,13.7,0.8,20.5,1.3v128.2l-20.5,1.7V206.6z M5.2,154.9c-0.4-1.9,0-3.9,1.1-5.6c1.1-1.7,2.8-2.8,4.8-3.1
		c76.8-14.3,155.2-17.3,232.9-8.8c1.9,0.2,3.6,1.1,4.8,2.5c0.4,0.5,0.8,1.1,1.1,1.7c-77.8-8.5-156.2-5.5-233.2,8.8
		c-2.5,0.5-4.7,1.9-6.1,4c-1.4,2.1-1.9,4.6-1.4,7.1l0.7,3.3c2.9,14.6,5.8,29.3,8.7,44c-0.6-0.3-1.1-0.7-1.6-1.1l0,0l-0.5-0.5
		c0,0,0,0,0,0c0,0,0,0,0,0c0,0,0,0,0,0c-0.8-1-1.4-2.1-1.7-3.4C11.6,187.5,8.4,171.2,5.2,154.9z M29.5,216c-2.6,0.5-5.3-0.5-7-2.6
		c-0.7-0.9-1.2-1.9-1.5-3c0-0.1,0-0.2-0.1-0.2c-3-15.2-6-30.4-9-45.6l-0.7-3.3c-0.4-2,0-3.9,1.1-5.6c1.1-1.7,2.8-2.8,4.8-3.1
		c48.3-9,97.2-13.5,146.2-13.5c28.9,0,57.9,1.6,86.7,4.7c0.4,0,0.8,0.1,1.1,0.2c1.3,0.3,2.5,1,3.4,2c0,0,0,0,0,0
		c1.6,1.6,2.3,3.8,2,6l-5.9,49.5c-0.5,4-4.1,6.9-8.1,6.5c-6.6-0.7-13.3-1.4-20.2-1.9c-7.5-0.6-15-1.1-22.6-1.5
		c-2.5-0.1-5.1-0.2-7.6-0.3c-39.5-1.6-79.5,0.1-118.7,4.9c-7.7,1-15.3,2-22.5,3.1c-2.5,0.4-5.1,0.8-7.6,1.2
		C38.6,214.3,33.9,215.1,29.5,216z M44.5,215.4c1.9-0.3,3.8-0.6,5.6-0.9v136l-5.6,0.5V215.4z M39.2,353.4l153.2-12.8L223,338
		c2.4-0.2,4.8,0.2,6.9,1.1L345,396.9c0.8,0.3,1,1.2,0.7,1.8c0,0,0,0,0,0c-0.1,0.3-0.4,0.8-1.2,0.9l-8.9,0.8c0,0-0.1,0-0.1,0
		L107,421.2c-0.8,0.1-1.6,0-2.4-0.3c-0.8-0.3-1.6-0.7-2.2-1.4l-58.2-57.9c0,0-0.1-0.1-0.1-0.1l-5.8-5.7c-0.3-0.3-0.4-0.6-0.4-1
		C37.9,354.2,38.4,353.5,39.2,353.4z M62.3,393.4v137.2l-6.5-5.6V386.7L62.3,393.4z M76.3,531.7h-12V395.4l12,12.2V531.7z M64,392.2
		C64,392.2,64,392.2,64,392.2L38.3,366c-0.3-0.3-0.4-0.7-0.4-1c0,0,0,0,0,0c0,0,0,0,0,0v-6.8l4.8,4.8c0,0,0.1,0.1,0.1,0.1l58.1,57.8
		c0.6,0.6,1.3,1.1,2,1.4c0,0.1-0.1,0.2-0.1,0.3v9.2c-0.2-0.1-0.4-0.3-0.5-0.5L64,392.2z M124.1,433.4v148l-6.5-5.6V434L124.1,433.4z
		 M138.1,582.5h-12V433.2l12-1.2V582.5z M211.8,424.8v88.6l-6.5-5.6v-82.4L211.8,424.8z M225.8,514.6h-12v-90l12-1.2V514.6z
		 M312,414.9v145l-6.5-5.6V415.6L312,414.9z M326,561.2h-12V414.7l12-1.2V561.2z M344.5,409.7l-205.4,20.2c0,0,0,0,0,0c0,0,0,0,0,0
		l-32.1,3.2c-0.7,0.1-1.4,0-2.1-0.2V423c0.5,0.1,1.1,0.2,1.6,0.2c0.2,0,0.4,0,0.7,0l228.5-20.8c0,0,0.1,0,0.1,0l9-0.8
		c0.4,0,0.8-0.1,1.1-0.3v6.3C345.8,409.6,345,409.7,344.5,409.7z"/>
    </g>
    <g id="doll">
        <g id="body_1_">
            <g id="left-leg">
                <path class="st3" d="M255.5,353c12.4,2.9,19.4,2.5,20.7,2.1c2.1-0.7,9.2-4.2,15.6-9.1c4.6-3.4,11.6-11,17.5-7.6
				c3.7,2.3,6.5,12.1-3.6,26.1c-4.1,5.5-5.5,23.1-10.9,24.9c-6.7,2.2-13.9-4-19.4-5.8c-5.4-1.8-25.4-1.8-35.1-2.7
				c-29.1-2.9-63.5-9.2-74.1-16.8c-11-7.9,2.6-31.8,6.4-31.7C187.6,332.9,246.8,351,255.5,353L255.5,353z"/>
                <path d="M312.8,352.7c-0.9,3.5-2.8,7.7-6.4,12.5c-1.6,2.1-2.8,6.6-4,10.8c-1.8,6.8-3.7,13.2-7.3,14.4c-5,1.7-10.2-1-14.8-3.3
				c-1.9-1-3.6-1.9-5.3-2.4c-3.3-1-12.8-1.4-21.2-1.8c-5.2-0.3-10.1-0.5-13.8-0.9c-29.3-2.8-63.7-9.2-74.6-16.9
				c-6.6-4.7-4.6-14.1-2.9-19.3c2.3-6.8,7-14.4,10-14.3c11.2,0.4,46.5,10.3,67.6,16.3c7.4,2.1,13.3,3.7,15.5,4.2l0,0
				c11.9,2.7,19,2.5,20.1,2.2c1.9-0.6,9.1-4.1,15.4-9c0.8-0.5,1.6-1.2,2.4-1.9c4.5-3.7,10.7-9,16.2-5.7c1.7,1,3.1,3.2,3.6,5.9
				C313.7,345.5,313.9,348.5,312.8,352.7L312.8,352.7z M163.9,348.3c-1.2,4.3-2.2,11.5,2.8,15.1c10.5,7.5,45.5,13.9,73.5,16.5
				c3.5,0.3,8.5,0.5,13.7,0.8c8.9,0.4,18.2,0.8,21.7,2c1.7,0.6,3.6,1.5,5.5,2.5c4.2,2.2,9,4.6,13.2,3.2c2.7-0.9,4.5-7.4,6.2-13
				c1.3-4.6,2.5-8.9,4.4-11.5c7.4-10.2,7.1-17.4,6.5-20c-0.4-2.2-1.4-3.9-2.7-4.7c-4.3-2.5-9.6,1.9-13.9,5.5c-0.8,0.7-1.7,1.4-2.5,2
				c-6.3,4.8-13.6,8.4-15.9,9.2c-1.6,0.5-8.8,0.7-21.2-2.1l0,0c-2.3-0.5-8.2-2.2-15.6-4.3c-21-5.9-56.1-15.9-67.1-16.2
				c-1.3,0.1-6.1,6.3-8.5,14.3C164,347.9,163.9,348.1,163.9,348.3L163.9,348.3z"/>
                <path class="st4" d="M316.2,336.3c3,2.9,2.4,8.3,0.3,14.1c0-0.1,0.1-0.1,0.1-0.2c-0.2,0.3-0.3,0.6-0.5,1
				c-0.4,0.9-0.7,1.9-1.2,2.8c-4.2,11.5-6.7,32.6-14.3,39.7c-1.4-0.1-3.2-0.6-4.6-1c-0.1,0.1-0.2,0.1-0.4,0.2
				c-3.6,1.6-9.9-3.1-17.2-7.9c3.6-1.5,7.7-6.5,10.6-12.5c-3.5-7.4-9.8-16.8-12.4-18.5c1.4-1.9,3.7-3,4.9-3.3
				c3.2,1.2,7.1,8.4,10,15.2c2-7.4,1.5-14.8-4.6-17.6C299,333.1,312,332.3,316.2,336.3z"/>
                <path d="M308.7,333.3c-7.5,0.5-15.6,5.8-22.2,14.2c-0.2,0.3-0.3,0.6-0.2,0.9s0.3,0.6,0.5,0.7c4.3,2,5.1,6.6,5.1,10
				c0,1.1-0.1,2.4-0.3,3.5c-2.6-5.9-6.1-11.7-9.3-12.9c-0.2-0.1-0.4-0.1-0.6,0c-1.6,0.5-4,1.8-5.5,3.7c-0.2,0.3-0.2,0.5-0.2,0.8
				c0,0.2,0.2,0.5,0.4,0.6c2.3,1.6,8.3,10.5,11.8,17.7c-2.8,5.6-6.6,10.1-9.8,11.5c-0.3,0.1-0.5,0.5-0.6,0.9c0,0.4,0.1,0.8,0.5,1
				l2,1.4c6.6,4.5,12.4,8.4,16.1,6.7l0,0c1.5,0.5,3.2,0.9,4.4,1c0.3,0.1,0.5-0.1,0.8-0.3c5.2-5,8-16.1,10.7-26.7
				c1.2-4.8,2.4-9.5,3.7-13.2c0.5-0.9,2.3-6,2.5-6.8c1.3-4.9,1.3-9.5-1.6-12.1C315.1,333.9,312,333.1,308.7,333.3z M278.3,353.8
				c1.1-1,2.5-1.8,3.5-2.2c2.6,1.3,6.2,7.6,9,14.2c-0.4,1.4-0.9,2.9-1.5,4.3C285.9,363.8,281.1,356.5,278.3,353.8z M310.3,367.2
				c-2.4,9.7-5.2,20.7-9.9,25.5c-0.8-0.1-1.6-0.2-2.5-0.5c1.9-2.5,3.9-7.3,6.4-14c1.4-3.6,2.7-7,3.8-9.1c0.4-0.7,1-1.7,1.6-2.8
				c0.4-0.7,0.8-1.4,1.2-2.2C310.7,365.2,310.6,366.2,310.3,367.2z M292.7,386.5L292.7,386.5 M313.2,355.6c-1.7,3.7-3.7,7.3-5.2,9.8
				c-0.6,1.2-1.2,2.1-1.6,2.9c-1.1,2.2-2.5,5.6-3.9,9.3c-2.1,5.2-5.1,12.8-6.6,14s-3,0.5-3,0.5c-3-0.7-7.2-3.6-11.7-6.6l-0.6-0.4
				c3-2,6.1-5.8,8.5-10.2l1.1-2.3c0.5-1.2,1.1-2.4,1.5-3.7l0.9-3.1c0.6-2.2,0.9-4.5,1-6.6c0.1-5.3-1.6-9.2-5.1-11.2
				c8.7-10.6,16.9-12.3,20.1-12.5c3-0.2,5.4,0.4,6.8,1.7c2.6,2.5,2,7.5,0.1,12.8L313.2,355.6z"/>
            </g>
            <g id="right-leg">
                <path class="st3" d="M211.4,381.8c11.5,5.5,18.4,6.7,19.7,6.6c2.2-0.2,9.9-2.1,17.3-5.5c5.2-2.3,13.7-8.2,18.7-3.6
				c3.2,3,3.7,13.3-9.2,24.7c-5.2,4.5-10.4,21.3-16.1,21.9c-7,0.7-12.7-7-17.6-9.9c-4.9-2.8-24.4-7.3-33.7-10.3
				c-27.8-9.1-60-22.9-68.6-32.5c-9-10.1,9.5-30.5,13.1-29.6C149.6,347.3,203.4,378,211.4,381.8L211.4,381.8z"/>
                <path d="M267.5,393.9c-1.7,3.2-4.5,6.9-9.1,10.8c-2,1.8-4.2,5.8-6.3,9.7c-3.3,6.2-6.4,12-10.3,12.4c-5.3,0.6-9.8-3.1-13.7-6.4
				c-1.7-1.3-3.3-2.6-4.6-3.5c-3-1.7-12.2-4.2-20.3-6.4c-5-1.4-9.8-2.7-13.2-3.8c-28-9.1-60.2-22.9-69.1-32.8
				c-5.4-6-1.5-14.8,1.3-19.4c3.8-6.1,10-12.5,12.9-11.7c10.9,2.7,43.2,20.2,62.4,30.6c6.8,3.6,12.2,6.5,14.2,7.5
				c11.1,5.3,18,6.7,19.2,6.5c2.1-0.3,9.8-2.1,17-5.4c0.9-0.3,1.8-0.9,2.8-1.4c5.2-2.8,12.4-6.5,17-2.1c1.4,1.3,2.2,3.8,2.2,6.6
				C270,387.1,269.5,390.1,267.5,393.9L267.5,393.9z M123.1,357.2c-2.1,4-4.7,10.8-0.4,15.3c8.5,9.6,41.3,23.4,68.2,32.2
				c3.4,1.1,8,2.3,13.1,3.7c8.7,2.4,17.6,4.8,20.8,6.7c1.5,0.9,3.1,2.2,4.8,3.7c3.6,3,7.8,6.5,12.2,6c2.9-0.3,6.1-6.2,8.8-11.4
				c2.3-4.2,4.5-8.3,6.8-10.2c9.5-8.3,10.6-15.4,10.7-18.1c0.1-2.2-0.5-4.1-1.6-5.1c-3.6-3.4-9.8-0.2-14.8,2.4c-1,0.5-2,1-2.9,1.4
				c-7.2,3.3-15.1,5.3-17.5,5.6c-1.7,0.2-8.8-1.1-20.2-6.6l0,0c-2.1-1-7.6-3.9-14.3-7.6c-19.2-10.4-51.4-27.8-61.9-30.5
				c-1.2-0.2-7.4,4.8-11.4,12.1C123.3,356.8,123.2,357,123.1,357.2L123.1,357.2z M211.4,381.8"/>
                <path class="st4" d="M274.2,378.8c2.4,3.5,0.5,8.6-2.8,13.8c0-0.1,0.2-0.1,0.2-0.1c-0.3,0.3-0.4,0.6-0.7,0.9
				c-0.6,0.8-1.1,1.7-1.8,2.5c-6.7,10.4-13.7,30.3-22.6,35.7c-1.4-0.4-3-1.2-4.2-2c-0.1,0-0.3,0.1-0.4,0.1
				c-3.8,0.8-9.1-5.3-15.1-11.5c3.9-0.7,8.9-4.7,13-9.9c-1.8-8-5.9-18.5-8-20.8c1.8-1.5,4.3-2,5.6-2.2c2.9,1.9,5.1,9.7,6.4,17
				c3.6-6.8,4.7-14.2-0.7-18.2C258.1,371.9,270.9,374.1,274.2,378.8z"/>
                <path d="M267.5,374c-7.4-1.1-16.5,2.3-24.8,9.1c-0.3,0.2-0.4,0.5-0.4,0.8c-0.1,0.3,0.1,0.6,0.4,0.8c3.9,2.9,3.7,7.5,2.8,10.9
				c-0.2,1.1-0.6,2.3-1.1,3.4c-1.3-6.3-3.4-12.8-6.3-14.6c-0.2-0.1-0.4-0.1-0.6-0.1c-1.7,0.1-4.4,0.8-6.1,2.4
				c-0.2,0.2-0.4,0.5-0.4,0.7c0,0.2,0.1,0.5,0.3,0.7c1.9,2,5.8,12.1,7.7,19.9c-3.8,4.9-8.6,8.6-12.1,9.1c-0.4,0.1-0.7,0.3-0.8,0.7
				c-0.1,0.4-0.1,0.8,0.2,1l1.7,1.8c5.5,5.8,10.3,10.9,14.3,10l0,0c1.3,0.8,2.9,1.5,4.1,1.9c0.3,0.1,0.7,0,0.9-0.1
				c6.3-3.7,11.3-13.9,16.3-23.7c2.2-4.5,4.4-8.8,6.5-12.1c0.6-0.8,3.5-5.4,3.9-6.1c2.4-4.5,3.4-9,1.1-12.2
				C273.7,376.2,270.8,374.7,267.5,374z M233.3,387.7c1.3-0.8,2.9-1.2,3.9-1.3c2.3,1.9,4.5,8.7,5.7,15.8c-0.7,1.3-1.5,2.6-2.4,3.8
				C238.6,399.1,235.5,390.9,233.3,387.7z M261.7,407.7c-4.5,8.9-9.6,19-15.2,22.7c-0.8-0.2-1.6-0.6-2.3-1c2.4-2,5.4-6.4,9.3-12.3
				c2.2-3.3,4.2-6.3,5.7-8.1c0.6-0.6,1.3-1.4,2.2-2.4c0.5-0.5,1.1-1.1,1.7-1.8C262.6,405.8,262.1,406.8,261.7,407.7z M240.3,422.7
				L240.3,422.7 M267.2,396.8c-2.5,3.2-5.2,6.2-7.2,8.4c-0.9,1-1.7,1.8-2.2,2.5c-1.6,1.9-3.6,5-5.8,8.2c-3.1,4.7-7.8,11.4-9.5,12.3
				c-1.7,0.9-3.1-0.2-3.1-0.2c-2.8-1.4-6.2-5.1-10-9l-0.5-0.5c3.3-1.2,7.2-4.2,10.5-8.1l1.6-2c0.8-1.1,1.6-2.2,2.3-3.3l1.6-2.8
				c1-2.1,1.9-4.2,2.4-6.2c1.3-5.1,0.4-9.3-2.5-12.1c10.8-8.4,19.2-8.3,22.4-7.9c2.9,0.5,5.2,1.6,6.2,3.2c2.1,3.1,0.3,7.7-2.7,12.5
				L267.2,396.8z"/>
            </g>
            <g id="right-hand">
                <path class="st3" d="M120,255.1c-34.6,5.6-59.2,22.9-72,36.7c3.1,4.8-0.5,9.5-0.8,12.6c-0.4,3.7,1,7.2-0.6,7.8
				c-5.9,2.2-5.7-10.2-9.5-11.2c-3.3-0.7-15,17.2-18.3,14.1c-3.7-3.5,6.4-11.7,4.1-13.9c-1.3-1-18,7.7-21.1,4.2
				c-2-2.2,2.5-6.2,5.3-8.2c-2.6,0.3-15-2.7,6.3-9.9c1-0.4,0.8-2.2-0.4-2.4c-5.5-1-7-1.7-6.9-3.3c0.1-2.7,5-1.8,11-3.6
				c2.5-2.5,11.5-7.2,17-7c22.6-22.9,53.2-20.8,70.1-34.4C120.6,223,138.8,252.1,120,255.1L120,255.1z"/>
                <path d="M5.8,279.7c1-1.1,2.9-1.3,5-1.6c1.7-0.2,3.6-0.5,5.7-1.1l0.1-0.1c2.9-2.6,11.4-7,17-7c13.3-13.2,29.2-18.1,43.1-22.4
				c10.2-3.1,19.7-6,26.7-11.7c5.5-4.4,11.8-5,17.5-1.6c5.6,3.3,9,9.8,8,14.8c-0.5,2.2-2.2,6.1-8.7,7.1
				c-38.9,6.2-62.2,26.7-70.9,35.8c1.9,3.6,0.6,7.1-0.3,9.7c-0.4,1-0.7,2-0.9,2.8c-0.2,1.4-0.1,2.8,0,3.9c0.2,2.1,0.3,4.1-1.3,4.8
				c-1.3,0.5-3.3,0.7-4.9-1.5c-1-1.3-1.7-3.1-2.4-4.9c-0.8-2.1-1.7-4.4-2.7-4.7c-1.1,0-4.6,3.9-7,6.4c-4.6,4.9-7.8,8.1-10.1,8.2
				c-0.6,0-1.3-0.2-1.7-0.7c-2.6-2.6-0.1-6.5,2-9.7c0.7-1,2.2-3.3,2.2-4c-0.9,0.2-3.2,1-5.2,1.7c-7.7,2.8-13.9,4.8-16.1,2.2
				c-0.5-0.6-0.8-1.4-0.7-2.3c0.2-2,2.1-4.1,4.2-5.8c-1.9-0.5-3.9-1.3-4.3-3c-0.6-2.7,3.6-5.5,12.9-8.6c0,0,0-0.1-0.1-0.4
				c0-0.1-0.1-0.2-0.2-0.2c-4.8-0.8-7.8-1.6-7.7-4.4C4.9,280.7,5.2,280.2,5.8,279.7L5.8,279.7z M14.2,287.9
				c-0.1,0.1-0.4,0.3-0.8,0.3c-12,4-11.7,6.2-11.6,6.2c0.2,1,3.5,1.8,4.9,1.7c0.5,0,1,0.2,1.1,0.6c0.2,0.4,0,0.8-0.3,1.1
				c-3.2,2.3-5.2,4.7-5.4,6c0.1,0.4,0.1,0.6,0.3,0.8c1.5,1.7,9.6-1.2,14.2-2.6c4.8-1.7,6.2-2.2,7.1-1.5c1.7,1.6,0.1,4.1-1.7,6.8
				c-1.8,2.7-3.7,5.7-2.3,7.2c0.1,0.1,0.1,0.1,0.2,0.1c1.7,0,5.8-4.4,8.7-7.5c4.4-4.7,7-7.3,8.9-7c2,0.5,3,3.1,4.1,5.9
				c0.6,1.6,1.2,3.3,2.1,4.4c0.9,1,1.6,1.2,2.7,0.8c0.3-0.3,0.2-1.8,0.1-2.8c-0.1-1.3-0.2-2.8-0.1-4.3c0.1-1.1,0.5-2.1,1-3.3
				c0.9-2.6,2-5.6,0-8.6c-0.2-0.4-0.2-0.9,0.1-1.2c8.3-9,32.2-30.5,72.6-36.9c3.9-0.7,6.4-2.6,7-5.6c0.8-4.2-2.3-9.9-7.1-12.7
				c-2.9-1.7-8.7-3.9-15.2,1.4c-7.3,5.9-17.1,8.9-27.4,12.1c-14,4.3-29.7,9.2-42.6,22.3c-0.2,0.2-0.5,0.3-0.8,0.3
				c-4.9-0.3-13.8,4.3-16.2,6.6c-0.1,0.1-0.3,0.3-0.4,0.3c-2.3,0.7-4.4,1-6.2,1.3c-2.9,0.3-4.1,0.6-4.1,1.4c0,0.8,1,1.4,6.1,2.3
				c1,0.2,1.8,1.1,1.9,2.2C15,286.8,14.7,287.5,14.2,287.9L14.2,287.9z M120,255.1"/>
            </g>
            <g id="left-hand">
                <path class="st3" d="M176.4,236.2c29.5,19,59.3,22.5,78.1,20.8c0.9-5.7,6.7-6.7,9-8.8c2.8-2.5,4.1-6,5.7-5.4
				c5.8,2.3-2.6,11.4-0.4,14.7c2,2.7,22.7-2.8,23,1.7c0.3,5.1-12.7,4.4-12.3,7.6c0.3,1.6,18.5,6.3,18.5,11c0,3.1-6,2.9-9.4,2.6
				c2.1,1.5,9.4,12-11.3,3.1c-1-0.4-2.1,1.1-1.3,2.1c3.4,4.4,4.1,5.9,2.9,7.1c-1.9,1.9-4.9-2-10.6-4.7c-3.5,0.2-13.4-2.3-17.3-6.1
				c-32.1,1.9-53.5-20.1-75.1-21.2C154.6,259.7,160.4,225.9,176.4,236.2L176.4,236.2z"/>
                <path d="M277.9,294.3c-1.4,0-3-1.1-4.7-2.2c-1.4-1-3-2-5-3h-0.1c-3.9,0-13.2-2.4-17.3-6.1c-18.7,1-33.7-6-47.1-12.1
				c-9.7-4.4-18.8-8.6-27.7-9.1c-7-0.4-12.1-4.2-14.1-10.5c-1.9-6.2-0.2-13.2,3.9-16.4c1.8-1.4,5.6-3.1,11.2,0.5l0,0
				c33.1,21.4,64.2,21.7,76.7,20.7c1-4,4.3-5.7,6.7-7c1-0.5,1.9-1,2.5-1.5c1-0.9,1.8-2,2.6-2.9c1.3-1.7,2.5-3.3,4.2-2.7
				c1.3,0.5,2.9,1.7,2.7,4.4c-0.1,1.7-0.8,3.5-1.5,5.3c-0.8,2.1-1.7,4.4-1.1,5.3c0.7,0.7,5.9,0.2,9.4-0.1c6.7-0.6,11.2-0.9,13,0.7
				c0.5,0.4,0.8,1,0.8,1.6c0.3,3.7-4.3,4.9-8,5.9c-1.2,0.3-3.7,1-4.2,1.5c0.8,0.5,3.1,1.4,4.9,2.2c7.7,3.1,13.5,5.7,13.5,9.1
				c0,0.9-0.3,1.6-1,2.2c-1.5,1.3-4.3,1.6-7,1.5c1.1,1.6,2.1,3.6,1.2,5.1c-1.4,2.4-6.2,1.7-15.3-2.2c0,0-0.1,0.1-0.2,0.3
				c0,0.1,0,0.2,0,0.3c3,3.8,4.8,6.4,2.8,8.4C279.2,294,278.5,294.3,277.9,294.3L277.9,294.3z M268.4,287.1c0.2,0,0.3,0,0.4,0.1
				c2.2,1,4,2.3,5.5,3.2c2.4,1.6,3.5,2.2,4,1.7c0.5-0.6,0.3-1.7-3-5.8c-0.7-0.8-0.6-2,0-2.9c0.6-0.8,1.6-1.1,2.5-0.8
				c11.5,5,12.7,3.2,12.8,3.1c0.5-0.8-1.3-3.6-2.5-4.5c-0.4-0.3-0.5-0.7-0.3-1.2c0.2-0.4,0.6-0.7,1-0.6c3.9,0.4,7,0.1,8-0.9
				c0.2-0.2,0.3-0.4,0.3-0.8c0-2.3-8-5.5-12.3-7.2c-4.7-1.9-6-2.5-6.2-3.5c-0.3-2.3,2.7-3.1,5.8-4c3.1-0.8,6.6-1.8,6.5-3.8
				c0-0.1,0-0.1-0.1-0.2c-1.3-1.1-7.2-0.6-11.5-0.2c-6.4,0.6-10,0.8-11.2-0.7c-1.2-1.8-0.2-4.4,0.9-7.2c0.7-1.7,1.3-3.4,1.4-4.7
				s-0.3-2-1.4-2.4c-0.4,0-1.3,1.2-1.9,2c-0.8,1-1.7,2.2-2.8,3.2c-0.8,0.7-1.8,1.3-2.9,1.8c-2.4,1.3-5.2,2.8-5.8,6.4
				c-0.1,0.4-0.4,0.8-0.9,0.8c-12.2,1.1-44.4,1.2-78.7-21c-3.4-2.2-6.5-2.4-8.9-0.6c-3.5,2.6-4.9,8.8-3.2,14.2
				c1,3.2,3.9,8.7,12.3,9.1c9.3,0.5,18.6,4.7,28.5,9.3c13.2,6.1,28.2,13,46.5,11.9c0.3,0,0.5,0.1,0.8,0.3
				C255.4,284.7,265,287.2,268.4,287.1L268.4,287.1L268.4,287.1z"/>
            </g>
            <g id="torso">
                <path class="st3" d="M175.7,275.7c0.9,14,9,39.8,10.6,68.6c-12.2,3.7-30.8,18.4-35.6,25.3c-2.3,0.4-4.7,0.6-7.1,0.6
				c-2.3,0-4.7-0.2-7.1-0.6c-4.8-6.9-23.4-21.7-35.6-25.3c1.7-29,9.8-54.7,10.7-68.7c0.9-12.9-2-38.5-2-38.5s0.6-0.4,1.6-1l0,0
				c0,0,10-6.1,20.5-8.4l0,0v-16.6c0-8.7,23.9-8.7,23.9,0v16.6c10.4,2.3,20.5,8.5,20.5,8.5l0,0c1,0.6,1.6,1,1.6,1
				S174.8,262.7,175.7,275.7L175.7,275.7z"/>
                <path d="M143.7,371.3c-2.4,0-4.9-0.2-7.3-0.6c-0.3,0-0.5-0.2-0.7-0.4c-4.8-6.9-23.1-21.4-35-24.9c-0.4-0.1-0.7-0.6-0.7-1
				c1-17.4,4.3-33.7,7-46.8c1.8-8.8,3.3-16.3,3.7-21.9c0.8-12.7-2-38.1-2-38.3c0-0.4,0.1-0.7,0.4-0.9c0,0,0.5-0.4,1.5-0.9l0.1-0.1
				c0.4-0.3,9.8-6,20.1-8.4v-15.9c0-5.2,6.7-7.5,12.9-7.5s12.9,2.4,12.9,7.5V227c10.2,2.4,19.7,8.1,20.1,8.4c0,0,0.1,0,0.1,0.1
				c1,0.6,1.5,0.9,1.5,0.9c0.3,0.2,0.5,0.6,0.4,0.9c0,0.3-2.8,25.6-2,38.3l0,0c0.4,5.5,1.9,13.1,3.7,21.9c2.7,13.1,6,29.4,7,46.8
				c0,0.5-0.3,0.9-0.7,1c-11.9,3.5-30.3,18-35,24.9c-0.2,0.2-0.4,0.4-0.7,0.4C148.6,371.1,146.1,371.3,143.7,371.3L143.7,371.3z
				 M137.1,368.8c2.2,0.3,4.4,0.5,6.6,0.5c2.2,0,4.4-0.2,6.6-0.5c5.2-7.1,23-21.1,35.1-25.1c-1-17-4.3-32.9-6.9-45.8
				c-1.8-8.8-3.3-16.5-3.7-22.1l0,0c-0.8-11.8,1.5-34.1,2-38.1c-0.3-0.2-0.6-0.4-1-0.6l-0.1-0.1c-1.1-0.6-10.5-6.2-20.1-8.3
				c-0.5-0.1-0.8-0.5-0.8-1v-16.6c0-3.6-5.5-5.5-10.9-5.5s-10.9,1.9-10.9,5.5v16.6c0,0.5-0.4,0.9-0.9,1c-9.6,2.1-19,7.6-20.1,8.3
				l-0.1,0.1c-0.4,0.3-0.8,0.5-1,0.6c0.4,4,2.7,26.3,2,38.1c-0.4,5.7-1.9,13.3-3.7,22.2c-2.6,12.9-5.9,28.8-6.9,45.8
				C114.1,347.7,131.9,361.7,137.1,368.8L137.1,368.8z"/>
            </g>
        </g>
        <g id="head">
            <path class="st5" d="M144.1,207c-98.4,0-143.6-37-135-75.8c3.8-17.6,10-21.6,17.4-37.6C39.4,66,50,1,144.1,1s104.7,65,117.6,92.6
			c7.4,16,13.5,20,17.4,37.6C287.6,170,242.5,207,144.1,207L144.1,207z"/>
            <path d="M144.1,208c-60.3,0-106.4-14.3-126.5-39.4C8.5,157.3,5.2,144.2,8.1,131c2.5-11.4,6-17.3,10.1-24.1c2.2-3.8,4.8-8,7.4-13.7
			c1.7-3.6,3.4-8.1,5.2-12.7c6.1-15.9,13.7-35.7,30.3-51.9C80.7,9.4,107.8,0,144.1,0s63.4,9.4,83,28.6c16.5,16.2,24.2,36,30.3,51.9
			c1.8,4.7,3.5,9.1,5.2,12.7c2.7,5.7,5.2,10,7.4,13.7c4,6.8,7.5,12.6,10.1,24.1c2.9,13.3-0.3,26.3-9.5,37.6
			C250.5,193.7,204.4,208,144.1,208L144.1,208z M144.1,2C63.2,2,44.8,49.7,32.7,81.2c-1.8,4.7-3.5,9.1-5.2,12.8
			c-2.7,5.8-5.3,10.1-7.5,13.9c-4.1,6.9-7.4,12.4-9.8,23.5c-2.8,12.7,0.3,25.1,9.1,36C38.9,191.9,84.4,206,144.1,206
			s105.2-14.1,124.9-38.6c8.7-10.9,11.9-23.3,9.1-36c-2.4-11.1-5.7-16.6-9.8-23.5c-2.3-3.8-4.8-8.1-7.5-13.9
			c-1.7-3.7-3.4-8.1-5.2-12.8C243.3,49.7,225,2,144.1,2L144.1,2z"/>
            <g id="ear-left">
                <path class="st3" d="M53.1,150.4c0,8-7.4,14.5-15.4,14.5s-14.5-6.5-14.5-14.5s6.5-14.5,14.5-14.5S53.1,142.4,53.1,150.4z"/>
                <path class="st6" d="M48.1,150.4c0,4-3.7,7.2-7.7,7.2s-7.2-3.2-7.2-7.2s3.2-7.2,7.2-7.2S48.1,146.4,48.1,150.4z"/>
                <path d="M37.7,165.9c-8.5,0-15.5-7-15.5-15.5s7-15.5,15.5-15.5s16.4,7.2,16.4,15.5S46.4,165.9,37.7,165.9z M37.7,136.9
				c-7.4,0-13.5,6-13.5,13.5s6,13.5,13.5,13.5s14.4-6.3,14.4-13.5S45.4,136.9,37.7,136.9z M40.4,158.6c-4.5,0-8.2-3.7-8.2-8.2
				s3.7-8.2,8.2-8.2s8.7,3.8,8.7,8.2S45.1,158.6,40.4,158.6z M40.4,144.2c-3.4,0-6.2,2.8-6.2,6.2s2.8,6.2,6.2,6.2s6.7-2.9,6.7-6.2
				S44,144.2,40.4,144.2z"/>
            </g>
            <g id="ear-right">
                <path class="st3" d="M248.8,135.9c8,0,14.5,6.5,14.5,14.5s-6.5,14.5-14.5,14.5c-8,0-15.4-6.5-15.4-14.5S240.8,135.9,248.8,135.9z
				"/>
                <path class="st6" d="M246.1,143.2c4,0,7.2,3.2,7.2,7.2s-3.2,7.2-7.2,7.2s-7.7-3.2-7.7-7.2S242.1,143.2,246.1,143.2z"/>
                <path d="M248.8,165.9c-8.7,0-16.4-7.2-16.4-15.5s7.7-15.5,16.4-15.5c8.8,0,15.5,7,15.5,15.5S257.4,165.9,248.8,165.9z
				 M248.8,136.9c-7.7,0-14.4,6.3-14.4,13.5s6.7,13.5,14.4,13.5c7.7,0,13.5-6,13.5-13.5S256.3,136.9,248.8,136.9z M246.1,158.6
				c-4.7,0-8.7-3.8-8.7-8.2s4-8.2,8.7-8.2c4.7,0,8.2,3.7,8.2,8.2S250.6,158.6,246.1,158.6z M246.1,144.2c-3.6,0-6.7,2.9-6.7,6.2
				s3.1,6.2,6.7,6.2c3.6,0,6.2-2.8,6.2-6.2S249.5,144.2,246.1,144.2z"/>
            </g>
            <g id="face">
                <path class="st3" d="M242.7,143.3c0,51.4-44,74-98.4,74s-98.4-22.5-98.4-74s44-76.8,98.4-76.8S242.7,91.8,242.7,143.3z"/>
                <path d="M144.3,218.3c-62.2,0-99.4-28-99.4-75c0-24.6,10.1-44.8,29.2-58.5c17.6-12.6,41.9-19.3,70.1-19.3s52.5,6.7,70.1,19.3
				c19.1,13.7,29.2,34,29.2,58.5C243.7,190.2,206.5,218.3,144.3,218.3z M144.3,67.5c-47.1,0-97.4,19.9-97.4,75.8
				c0,45.7,36.4,73,97.4,73s97.4-27.3,97.4-73C241.7,87.4,191.4,67.5,144.3,67.5z"/>
            </g>
            <g>
                <path class="st5" d="M138.1,54.4c12.1-24.7,55.6-20.1,82.8,4.4c34.6,31.2,35,82.9,21.7,89.5c-11.3,0-23.7-13.7-47.5-42.6
				C171.9,77.5,131.6,67.8,138.1,54.4L138.1,54.4z"/>
                <path d="M242.6,149.4c-11.6,0-23.6-13.1-48.3-43c-10.8-13.1-25.4-22.3-37.1-29.6c-13.8-8.7-23.8-14.9-20-22.8l0,0
				c4.1-8.4,12-14,22.7-16.1c19.3-3.7,44.1,4.4,61.6,20.2c24.4,22.1,32.5,54.4,29.6,75.1c-1.1,8.3-4,14-8.1,16
				C242.9,149.4,242.7,149.4,242.6,149.4L242.6,149.4z M169.8,39c-3.3,0-6.4,0.3-9.4,0.9c-10.1,1.9-17.5,7.1-21.3,15l0,0
				c-3.1,6.3,6.3,12.1,19.2,20.3c11.9,7.4,26.6,16.6,37.6,30c23.5,28.5,35.8,42.1,46.5,42.3c3.3-1.8,5.8-7,6.8-14.4
				c2.9-20.8-6.1-52.7-29-73.4C205.9,46.7,186.7,39,169.8,39L169.8,39z M138.1,54.4"/>
            </g>
            <g>
                <path class="st5" d="M150.5,54.4c6.5,13.4-33.8,23.1-57,51.3c-23.8,28.9-36.2,42.6-47.5,42.6c-13.2-6.5-12.8-58.2,21.8-89.4
				C94.9,34.3,138.5,29.7,150.5,54.4L150.5,54.4z"/>
                <path d="M46.1,149.4c-0.2,0-0.3,0-0.4-0.1c-4.1-2-7-7.7-8.2-16c-2.9-20.7,5.2-53,29.6-75.1c17.5-15.8,42.3-24,61.6-20.2
				c10.7,2.1,18.6,7.6,22.7,16.1l0,0c3.9,7.9-6.1,14.2-20,22.8c-11.7,7.3-26.3,16.5-37.1,29.6C69.8,136.3,57.8,149.4,46.1,149.4
				L46.1,149.4z M118.9,39c-16.9,0-36.1,7.7-50.5,20.6c-22.8,20.6-31.8,52.5-29,73.4c1,7.4,3.5,12.6,6.8,14.4
				c10.7-0.2,23-13.8,46.5-42.3c11-13.4,25.8-22.6,37.6-30c12.9-8.1,22.3-14,19.2-20.3l0,0c-3.8-7.9-11.2-13-21.3-15
				C125.3,39.3,122.2,39,118.9,39L118.9,39z"/>
            </g>
            <path id="nose" d="M134.1,177.2c4.7,2.9,10.3,3.9,15.5,2.1c1.7-0.6,3.4-1.4,5-2.5c0.9-0.6,2,0.5,1.4,1.4c-4.9,7.8-18,8.3-23.3,0.5
			C132.1,177.8,133.2,176.6,134.1,177.2L134.1,177.2L134.1,177.2z"/>
            <path id="brows-left" d="M94,121.7c3-0.8,5.6-0.4,5.9,0.7c0.3,1.2-1.9,2.7-4.8,3.5s-5.6,0.4-5.9-0.7C88.9,124,91.1,122.5,94,121.7
			z"/>
            <path id="brows-right" d="M188.7,122.4c0.3-1.2,2.9-1.5,5.9-0.7s5.1,2.3,4.8,3.5s-2.9,1.5-5.9,0.7
			C190.5,125.2,188.4,123.6,188.7,122.4z"/>
            <g>
                <path class="st5" d="M144.8,54.4c40.4,0,69,32.8,54.6,45.9c-7.7,7-24,1.8-31.4-5.9c17.1,34.1-18.4,44.8-23.9,10.4
				c-17.9,36.6-41.2,16.3-26.5-5.7c-1.4,3.1-29.1,13.9-32,0C82.3,82.9,113.1,54.4,144.8,54.4L144.8,54.4z"/>
                <path d="M161.1,126.9c-1.1,0-2.1-0.1-3.2-0.4c-6.7-1.8-11.9-8.7-14.2-18.6c-6.1,11.4-13.6,18-20.6,18.1c-3.9,0.1-7.4-1.9-9.4-5.6
				c-2.1-3.9-2.8-10.4,0.8-17.9c-5.1,2.6-13.8,5.1-20.4,4.4c-5.3-0.6-8.6-3.2-9.5-7.6c-1.2-5.6,1.5-12.8,7.5-20.1
				c10.1-12.4,30.9-25.7,52.7-25.7c28.3,0,52.1,16.4,58,31.6c2.5,6.4,1.6,12.1-2.7,16c-7.2,6.6-20.9,3.1-29.3-3
				c4,10,3.8,18.9-0.7,24.4C167.9,125.3,164.6,126.9,161.1,126.9L161.1,126.9z M144.2,103.8h0.1c0.4,0.1,0.8,0.4,0.8,0.8
				c1.7,10.7,6.7,18.1,13.3,19.9c3.9,1,7.7-0.2,10.2-3.3c4.6-5.6,4-15.5-1.4-26.4c-0.2-0.4-0.1-1,0.3-1.3c0.4-0.3,1-0.2,1.3,0.1
				c7.5,7.8,23.1,12.1,30,5.9c4.6-4.2,3.7-9.8,2.2-13.8c-5.7-14.6-28.7-30.3-56.1-30.3c-21.1,0-41.3,13-51.1,25
				c-5.5,6.8-8.1,13.5-7.1,18.4c0.7,3.4,3.1,5.3,7.2,5.9c8.8,1.3,21.2-4.2,22.8-6c0.1-0.1,0.1-0.2,0.2-0.3c0.3-0.4,0.9-0.6,1.3-0.3
				s0.6,0.8,0.4,1.3c-0.1,0.1-0.1,0.3-0.3,0.4c-5.4,8.3-5,15.5-2.8,19.5c1.6,2.9,4.4,4.6,7.6,4.5c3.2-0.1,11.6-2.1,20.2-19.6
				C143.5,104,143.8,103.7,144.2,103.8L144.2,103.8z"/>
            </g>
            <g id="mouth">
                <path d="M143.7,208c-7,0-12.4-3.7-12.4-8.4s5.7-10.5,12.4-10.5s12.4,5.8,12.4,10.5S150.7,208,143.7,208z"/>
                <path class="st7" d="M133.3,198.8c0.6-3.3,4.9-7.7,10.4-7.7c5.3,0,9.4,3.9,10.3,7.2C147.3,200.1,139.9,200.3,133.3,198.8z"/>
                <path class="st7" d="M154.1,200.3c-0.6,3.2-5.1,5.7-10.4,5.7c-4.9,0-9.2-2.3-10.2-5.1c2.9,0.6,5.9,0.9,9,0.9
				C146.4,201.8,150.3,201.3,154.1,200.3z"/>
                <path d="M142.5,201.8c-7.4,0-14.7-1.8-20.1-5.3c-0.5-0.3-0.6-0.9-0.3-1.4s0.9-0.6,1.4-0.3c10.8,7,29,6.6,40.5-0.9
				c0.5-0.3,1.1-0.2,1.4,0.3c0.3,0.5,0.2,1.1-0.3,1.4C158.7,199.7,150.5,201.8,142.5,201.8L142.5,201.8z"/>
            </g>
            <g id="open-eyes">
                <g id="eyes-left">
                    <path d="M114.3,169.4c-1.7,4.7-5,8.3-9.4,10.1c-2,0.8-4.1,1.2-6.2,1.2l0,0c-6.4,0-12.7-3.7-16.3-9.8c-1.3-1.7-2.4-3.5-3.2-5.5
					c-1.8-4.2-2.1-8.7-1.3-12.7c-1.8-1-4.4-2.5-4.5-2.6c-1-0.6-0.4-2.1,0.7-1.9l4.8,1c0.3-0.8,0.8-1.7,1.3-2.5l-3.2-4
					c-0.8-0.9,0.4-2.1,1.3-1.5l0,0l4.1,2.6c0.7-0.8,1.6-1.5,2.5-2.1c-0.8-1.7-1.7-3.7-1.8-3.8c-0.5-1,0.8-2,1.6-1.2l0,0l3.3,3.4
					c7-2.6,14.8,0.2,19.8,6.4c2.5,2.1,4.5,4.8,5.8,8C115.6,159.3,115.7,164.6,114.3,169.4z"/>
                    <path class="st8" d="M104,177.5c-8,3.3-17.5-1.3-21.3-10.3c-1.8-4.4-2-9.1-0.5-13.3s4.4-7.4,8.3-9c1.7-0.7,3.6-1.1,5.4-1.1l0,0
					c2.3,0,4.5,0.5,6.7,1.6c4,1.9,7.3,5.4,9.1,9.8c1.8,4.4,2,9.1,0.5,13.3C110.7,172.8,107.8,175.9,104,177.5z"/>
                    <g id="pupil">
                        <path class="st9" d="M99.2,149.8c7.1,0,12.8,6.1,12.8,13.6s-5.7,13.7-12.8,13.7c-7.1,0-12.8-6.1-12.8-13.7
						C86.4,155.9,92.1,149.8,99.2,149.8z"/>
                        <path class="st10" d="M108.4,166.8c0.6,2.5-2,7-6.2,7.9s-8.4-2-9-4.5s2.8-3.4,7-4.4C104.4,164.9,107.9,164.4,108.4,166.8
						L108.4,166.8z"/>
                        <path class="st8" d="M93.2,157.8c1.5,0,2.8,1.2,2.8,2.8s-1.2,2.8-2.8,2.8s-2.8-1.2-2.8-2.8S91.7,157.8,93.2,157.8z"/>
                    </g>
                </g>
                <g id="eyes-right">
                    <path d="M173.8,169.2c1.7,4.7,5,8.3,9.4,10.1c2,0.8,4.1,1.2,6.2,1.2l0,0c6.4,0,12.7-3.7,16.3-9.8c1.3-1.6,2.4-3.4,3.2-5.5
					c1.8-4.3,2.1-8.7,1.3-12.7c1.7-1,4.3-2.6,4.5-2.6c1-0.6,0.4-2.1-0.7-1.9l-4.8,1c-0.4-0.9-0.8-1.7-1.3-2.5l3.2-4
					c0.7-0.9-0.4-2.1-1.3-1.5l0,0l-4.1,2.6c-0.8-0.8-1.6-1.5-2.5-2.1c0.8-1.7,1.8-3.7,1.8-3.8c0.5-1-0.9-2-1.6-1.2l0,0l-3.3,3.4
					c-6.9-2.5-14.8,0.2-19.8,6.4c-2.5,2.1-4.4,4.8-5.8,8C172.4,159.3,172.2,164.6,173.8,169.2z"/>
                    <path class="st8" d="M175.7,168.6c-1.5-4.2-1.3-8.9,0.5-13.3c1.8-4.4,5-7.8,9.1-9.8c2.2-1,4.5-1.6,6.7-1.6l0,0
					c1.9,0,3.7,0.4,5.4,1.1c3.9,1.6,6.8,4.8,8.3,9s1.3,9-0.5,13.3c-3.7,9-13.3,13.6-21.3,10.3C180.1,175.9,177.2,172.8,175.7,168.6z
					"/>
                    <g id="pupil_1_">
                        <path class="st9" d="M201.5,163.4c0,7.5-5.7,13.7-12.8,13.6c-7.1,0-12.8-6.1-12.8-13.6s5.7-13.6,12.8-13.6
						S201.5,155.9,201.5,163.4z"/>
                        <path class="st10" d="M179.5,166.8c0.6-2.5,4-1.9,8.2-1s7.5,1.9,7,4.4c-0.6,2.5-4.8,5.4-9,4.5S179,169.3,179.5,166.8
						L179.5,166.8z"/>
                        <path class="st8" d="M197.5,160.6c0,1.5-1.2,2.8-2.8,2.8s-2.8-1.2-2.8-2.8s1.2-2.8,2.8-2.8S197.5,159.1,197.5,160.6z"/>
                    </g>
                </g>
            </g>
        </g>
        <g id="underpants_1_">
            <path class="st8" d="M143.6,320.5c14.2,0,28.6-2,38.1-5.2c1.6,8.8,2.9,18.5,3.5,28.4c-12.1,4-29.9,18-35.1,25.1
			c-2.2,0.3-4.4,0.5-6.6,0.5c-2.1,0-4.3-0.2-6.6-0.5c-5.2-7.1-23-21.1-35.1-25.1c0.6-10,2-19.6,3.5-28.4
			C115,318.5,129.4,320.5,143.6,320.5z"/>
            <path d="M143.6,369.2c-2.1,0-4.3-0.2-6.6-0.5c-5.2-7.1-23-21.1-35.1-25.1c0.6-10,2-19.6,3.5-28.4c9.5,3.2,23.9,5.2,38.1,5.2
			s28.6-2,38.1-5.2c1.6,8.8,2.9,18.5,3.5,28.4c-12.1,4-29.9,18-35.1,25.1C147.9,369,145.7,369.2,143.6,369.2z M103.9,312.7
			c-1.8,9.7-3.4,20.4-4,31.6c0,0.5,0.3,0.9,0.7,1c11.9,3.5,30.3,18,35,24.9c0.2,0.2,0.4,0.4,0.7,0.4c2.1,0.4,5.1,0.7,6.9,0.7h0.8
			c2.6,0.1,4.8-0.3,6.9-0.7c0.3,0,0.5-0.2,0.7-0.4c4.8-6.9,23.1-21.4,35-24.9c0.4-0.1,0.7-0.6,0.7-1c-0.6-11.2-2.2-21.9-4-31.7
			l-1.9,0.6c-9.3,3.2-23.6,5.2-37.8,5.2c-14.1,0-28.5-2-37.8-5.2L103.9,312.7z"/>
        </g>
        <g id="singlet_1_">
            <path class="st8" d="M143.6,318.5c-14.1,0-28.5-2-37.8-5.2c1-5.5,2-10.6,3-15.4c1.8-8.8,3.3-16.5,3.7-22.1
			c0.8-11.8-1.5-34.1-1.9-38.1c0.6-0.4,1.7-1.1,3.2-1.9c0.7,4.9,2.1,12.6,3.4,19.3c0.4,2.4,0.9,4.7,1.2,6.6c0.1,0.5,0.6,0.9,1.1,0.8
			c8-1.2,20.7-1.5,23.9-1.5h0.3c3.2,0,15.9,0.3,23.9,1.5c0.5,0.1,1-0.3,1.1-0.8c0.4-2,0.8-4.2,1.2-6.6c1.2-6.8,2.6-14.4,3.4-19.3
			c1.5,0.8,2.6,1.5,3.2,1.9c-0.4,4-2.7,26.3-1.9,38.1c0.4,5.7,1.9,13.3,3.7,22.1c1,4.7,2,9.9,3,15.4
			C172.1,316.5,157.7,318.5,143.6,318.5z"/>
            <path d="M105.5,315.2c9.5,3.2,23.9,5.2,38.1,5.2s28.6-2,38.1-5.2l1.9-0.7c-1.1-6.1-2.2-11.8-3.3-17.1c-1.8-8.8-3.3-16.3-3.7-21.9
			c-0.8-12.7,2-38.1,2-38.3c0-0.4-0.1-0.7-0.4-0.9c-0.1-0.1-2-1.3-5.2-3c-0.3-0.2-0.6-0.2-0.9,0c-0.3,0.1-0.5,0.4-0.5,0.8
			c-0.7,4.8-2.2,13.2-3.6,20.7c-0.4,2-0.7,4-1,5.7c-7.9-1.1-19.4-1.4-22.9-1.4c-0.1,0-0.9,0-0.9,0c-3.5,0-15,0.3-22.9,1.4
			c-0.3-1.7-0.7-3.7-1-5.7c-1.4-7.5-2.9-15.9-3.6-20.7c0-0.3-0.2-0.6-0.5-0.8c-0.3-0.1-0.6-0.1-0.9,0c-3.2,1.7-5.1,3-5.2,3
			c-0.3,0.2-0.5,0.6-0.4,0.9c0,0.3,2.8,25.6,2,38.3c-0.4,5.5-1.9,13.1-3.7,21.9c-1.1,5.3-2.2,11-3.3,17.2L105.5,315.2z M108.8,297.9
			c1.8-8.8,3.3-16.5,3.7-22.1c0.8-11.8-1.5-34.1-1.9-38.1c0.6-0.4,1.7-1.1,3.2-1.9c0.7,4.9,2.1,12.6,3.4,19.3
			c0.4,2.4,0.9,4.7,1.2,6.6c0.1,0.5,0.6,0.9,1.1,0.8c8-1.2,20.7-1.5,23.9-1.5h0.3c3.2,0,15.9,0.3,23.9,1.5c0.5,0.1,1-0.3,1.1-0.8
			c0.4-2,0.8-4.2,1.2-6.6c1.2-6.8,2.6-14.4,3.4-19.3c1.5,0.8,2.6,1.5,3.2,1.9c-0.4,4-2.7,26.3-1.9,38.1c0.4,5.7,1.9,13.3,3.7,22.1
			c1,4.7,2,9.9,3,15.4c-9.3,3.2-23.6,5.2-37.8,5.2c-14.1,0-28.5-2-37.8-5.2C106.8,307.8,107.9,302.6,108.8,297.9z"/>
        </g>
        <g id="dress">
            <path class="st11" d="M86.7,318.5l17.8-84.1c0,0,12-6.7,27.4-7.6c0,6.1,9.8,6.8,11.9,6.8c2.1-0.1,11.9-0.7,11.9-6.8
			c15.4,0.9,27.4,7.6,27.4,7.6l17.8,84.1l0,0c11.1,3.9,22.7,13.6,28.7,24.9c-14,23.2-58.3,32.2-85.8,32.2s-71.8-9-85.8-32.2
			C63.9,332.1,75.6,322.3,86.7,318.5L86.7,318.5z"/>
            <path d="M230.6,342.9c-5.8-10.9-17.2-21-28.7-25.1l-17.7-83.6c-0.1-0.3-0.2-0.5-0.5-0.7c-0.5-0.3-12.4-6.9-27.9-7.8
			c-0.3,0-0.5,0.1-0.7,0.3s-0.3,0.5-0.3,0.7c0,5.2-8.9,5.8-10.9,5.8c-2-0.1-10.9-0.7-10.9-5.8c0-0.3-0.1-0.5-0.3-0.7
			s-0.5-0.3-0.7-0.3c-15.5,0.9-27.4,7.5-27.9,7.8c-0.3,0.1-0.4,0.4-0.5,0.7l-17.7,83.6C74.4,322,63,332,57.2,342.9
			c-0.2,0.3-0.2,0.7,0,1c14.4,24,59.8,32.7,86.7,32.7s72.2-8.7,86.7-32.7C230.7,343.5,230.7,343.2,230.6,342.9z M105.3,235
			c2.1-1.1,12.6-6.3,25.7-7.2c0.9,5.6,9.2,6.6,12.2,6.8c0.1,0,0.2,0,0.3,0h0.8c0.1,0,0.2,0,0.3,0c3-0.2,11.3-1.2,12.2-6.8
			c13,1,23.5,6.1,25.7,7.2l17.6,83c-3,2.1-19.9,12.6-56.1,12.6c-36.1-0.1-53.1-10.6-56.1-12.6L105.3,235z M143.9,374.5
			c-26.3,0-70.3-8.3-84.7-31.2c5.6-10.3,16.4-19.7,27.3-23.7v-0.1c2.8,2,19.6,13,56.9,13.1c0,0,0,0,0.1,0c0.3,0,0.5,0,0.8,0
			c0,0,0,0,0.1,0c37.4-0.2,54.1-11.1,56.9-13.1v0.1c10.8,4,21.7,13.4,27.3,23.7C214.2,366.2,170.1,374.5,143.9,374.5z"/>
        </g>
        <g id="bow">
            <path class="st7" d="M224,29.8c-1.5,11.1-1.6,22.2-0.3,33.3c0.8,6.7-0.5,13.3-4.3,19c-9.5,14.4-24.8,12.2-41.8,1
			c-3.3-2.1-9-6.9-14.6-12.6c-1.5,0.6-3.2,0.8-4.9,0.4c-13.6-3-10.8-3-24.4-0.1c-2.2,0.5-4.3,0-6-1.1c-5.8,5.8-11.9,10.6-15.2,12.7
			c-17.2,10.9-32.6,12.8-41.8-1.8c-3.6-5.7-4.8-12.4-3.9-19c1.5-11.1,1.7-22.2,0.3-33.3c-0.8-6.7,0.5-13.3,4.3-19
			c9.5-14.4,25.9-7.8,42.9,3.4c3.1,2,8,6.3,13,11.2c1.7-1.4,4-2.1,6.3-1.8c14,2,11.6,2,25.6,0.3c1.9-0.2,3.8,0.2,5.3,1.2
			c4.8-4.6,9.6-8.4,12.5-10.3c17.2-10.9,33.7-17.2,43-2.6C223.8,16.4,225,23.1,224,29.8z"/>
            <path class="st12" d="M124.8,66.6C118.6,72.8,104,82,94.1,84c-13,2.6-20.2-7.2-21-11.3c-0.8-4.1,4.5-8.7,17.5-11.4
			c9.7-2,24.9-3,32.5-1.7c0.2,1.5,0.5,3,0.7,4.5C124,65,124.3,65.8,124.8,66.6z M200.3,62.3c-9.2-2.1-23.6-3.3-31.5-2.4
			c-0.1,1.3-0.3,2.6-0.5,4c-0.2,1.5-0.8,2.9-1.7,4c6,6.4,18.7,15.5,28.1,17.6c13,2.9,22-7.3,22.9-11.4
			C218.5,69.9,213.3,65.2,200.3,62.3z"/>
            <path d="M221,10.2c-10.4-16.3-29.2-7.4-44.4,2.3c-2.6,1.7-7.3,5.4-12.1,9.9c-1.6-0.8-3.4-1.2-5.3-0.9l-2.9,0.3
			c-9.8,1.2-9.8,1.2-19.1-0.2l-3.4-0.5c-2.3-0.3-4.5,0.2-6.4,1.4c-4.9-4.9-9.8-8.9-12.5-10.7c-15-9.9-33.6-19.3-44.3-3.1
			c-3.8,5.7-5.3,12.5-4.4,19.7c1.3,10.9,1.2,22.1-0.3,33c-1,7.1,0.4,14,4,19.7c4.6,7.2,10.9,10.9,18.7,10.9c0,0,0,0,0,0
			c7,0,15.2-3,24.4-8.8c2.9-1.8,9-6.5,14.9-12.3c1.9,0.9,4,1.2,6.1,0.8c1.4-0.3,2.7-0.6,3.8-0.8c8.4-1.8,8.4-1.8,17,0.2
			c1,0.2,2,0.5,3.2,0.7c0.7,0.2,1.4,0.2,2.1,0.2c0.9,0,1.9-0.1,2.8-0.4c5.7,5.8,11.5,10.4,14.3,12.3c9.3,6.2,17.6,9.2,24.7,9.2
			c7.6,0,13.8-3.5,18.4-10.5c3.8-5.7,5.3-12.5,4.4-19.6c-1.3-11-1.2-22.1,0.3-33.1C226,22.8,224.6,15.9,221,10.2z M112,81.6
			c-8.9,5.6-16.8,8.5-23.4,8.5c0,0,0,0,0,0c-7.1,0-12.8-3.4-17-10c0,0,0,0,0,0c-3.4-5.3-4.7-11.7-3.8-18.4
			c1.6-11.2,1.7-22.5,0.3-33.6c-0.8-6.7,0.6-13,4.1-18.3c3.4-5.2,7.9-7.8,13.8-7.8c7.1,0,16.2,3.8,27.8,11.5c3,2,7.5,5.8,12.1,10.3
			c-1.2,1.2-2,2.7-2.4,4.4c-2.2,10-2.7,20.1-1.5,30.2c-8.8-1.2-24.1,0.3-31.5,1.8c-6.3,1.3-11.1,3.1-14.3,5.3
			c-3.9,2.7-4.3,5.5-4,7.3c0.8,4.2,7,12.6,17.7,12.6c1.4,0,2.9-0.1,4.5-0.5c9-1.8,23.2-10.3,30.2-16.9c0.5,0.6,1,1.2,1.6,1.7
			C120.9,75.1,115.4,79.4,112,81.6z M122.9,64.3c0.1,0.7,0.4,1.4,0.6,2C117.4,72,103.8,81,93.9,83C81,85.6,74.7,75.5,74.1,72.5
			c-0.4-2.2,1.5-4.1,3.1-5.2c2.9-2,7.6-3.7,13.6-5c7.5-1.5,16.3-2.2,23.3-2.2c3.2,0,6,0.1,8.2,0.4C122.4,61.7,122.6,63,122.9,64.3z
			 M158.4,69.9c-1.2-0.3-2.3-0.5-3.2-0.7c-9-2-9.2-2.1-17.9-0.2c-1.1,0.2-2.3,0.5-3.7,0.8c-1.9,0.4-3.9,0-5.5-1.1
			c-1.7-1.1-2.8-2.8-3.2-4.8c-2.3-11.7-2.1-23.6,0.5-35.2c0.8-3.7,4.4-6.1,8.1-5.6l3.3,0.5c9.7,1.4,9.7,1.4,19.7,0.2l2.9-0.3
			c3.9-0.5,7.6,2.3,8.1,6.2c1.5,11.3,1.5,22.8-0.2,34c-0.3,2.1-1.4,3.9-3.1,5C162.5,69.9,160.4,70.3,158.4,69.9z M169.3,64
			c0.2-1.1,0.3-2.1,0.4-3.2c1.4-0.1,3.1-0.2,5.2-0.2c0.7,0,1.5,0,2.3,0c7.4,0.2,16.4,1.2,22.9,2.7c13.3,3,17.2,7.5,16.5,10.5
			c-0.8,3.4-9,13.5-21.7,10.6c-5.6-1.3-13.3-5.4-20.5-11c-2.8-2.1-4.9-4.1-6.5-5.7C168.6,66.7,169.1,65.4,169.3,64z M223,29.7
			c-1.5,11.1-1.7,22.4-0.3,33.6c0.8,6.7-0.6,13-4.1,18.3c-8.4,12.7-22,12.9-40.4,0.7c-3.3-2.2-8.4-6.4-13.5-11.5
			c0.2-0.1,0.4-0.2,0.6-0.3c0.5-0.3,0.9-0.7,1.3-1.1c2.6,2.6,5.5,5,6.5,5.7c7.5,5.8,15.4,10,21.3,11.3c1.6,0.4,3.2,0.5,4.7,0.5
			c10.8,0,18.5-8.4,19.4-12.7c1.2-5.3-5.6-10.1-18-12.9c-6.6-1.5-15.7-2.5-23.2-2.7c-3-0.1-5.4,0-7.4,0.2c1-9.8,0.9-19.6-0.5-29.4
			c-0.3-2.4-1.6-4.5-3.3-5.9c4.4-4.1,8.6-7.5,11.5-9.4c11.5-7.3,20.6-11,27.6-11c6,0,10.6,2.7,14,8C222.7,16.6,224,23,223,29.7z"/>
        </g>
    </g>
</svg>